<svg id="svg" version="1.1" xmlns="http://www.w3.org/2000/svg" xmlns:xlink="http://www.w3.org/1999/xlink" width="400" height="400" viewBox="0, 0, 400,400"><g id="svgg"><path id="path0" d="M103.000 85.067 C 100.487 85.626,96.003 88.359,95.998 89.334 C 95.996 89.590,95.681 90.340,95.298 91.000 C 94.484 92.399,94.001 217.849,94.771 227.685 C 95.412 235.882,97.083 245.455,98.067 246.580 C 98.250 246.789,98.400 247.217,98.400 247.531 C 98.400 248.083,98.942 249.293,102.656 257.036 C 103.615 259.036,104.400 260.890,104.400 261.156 C 104.400 261.853,105.512 263.948,106.864 265.800 C 107.507 266.680,109.213 269.192,110.656 271.382 C 113.735 276.054,115.496 278.299,118.100 280.871 C 119.145 281.903,120.002 282.985,120.005 283.274 C 120.011 283.942,123.305 287.381,124.765 288.243 C 125.372 288.602,126.192 289.494,126.586 290.226 C 126.980 290.958,128.557 292.601,130.089 293.878 C 131.622 295.155,134.164 297.445,135.738 298.966 C 137.312 300.487,139.344 302.287,140.254 302.966 C 141.163 303.645,143.791 305.763,146.094 307.673 C 148.396 309.583,150.951 311.523,151.772 311.985 C 153.511 312.961,156.879 315.431,158.600 316.993 C 159.260 317.592,160.970 318.621,162.400 319.281 C 163.830 319.940,165.418 320.866,165.928 321.340 C 167.188 322.508,171.724 325.344,174.338 326.598 C 176.398 327.586,180.788 330.245,181.200 330.753 C 181.596 331.242,186.370 333.599,188.264 334.241 C 190.142 334.877,194.767 337.026,196.800 338.207 C 198.895 339.425,201.990 338.979,206.069 336.874 C 208.121 335.815,210.610 334.702,211.600 334.400 C 213.596 333.791,218.157 331.462,219.400 330.417 C 220.244 329.707,224.174 327.397,226.200 326.420 C 228.382 325.368,233.383 322.278,234.400 321.353 C 234.950 320.853,236.438 319.985,237.707 319.424 C 238.975 318.863,240.775 317.717,241.707 316.878 C 243.487 315.274,248.175 312.001,248.695 311.999 C 248.863 311.999,249.630 311.445,250.400 310.768 C 251.170 310.091,252.740 308.830,253.889 307.964 C 255.038 307.099,256.690 305.718,257.560 304.896 C 258.430 304.073,260.395 302.410,261.926 301.200 C 263.457 299.990,265.045 298.492,265.455 297.871 C 265.865 297.249,266.830 296.413,267.600 296.013 C 268.370 295.612,270.034 294.140,271.297 292.742 C 273.797 289.975,274.568 289.183,277.603 286.266 C 278.709 285.202,279.870 283.838,280.182 283.235 C 280.494 282.632,281.899 280.982,283.304 279.569 C 285.466 277.394,289.508 271.747,291.808 267.688 C 292.147 267.090,293.035 265.839,293.781 264.910 C 294.527 263.980,295.439 262.184,295.806 260.919 C 296.174 259.653,296.795 258.164,297.185 257.609 C 297.575 257.054,298.562 255.070,299.377 253.200 C 300.192 251.330,301.026 249.629,301.230 249.420 C 301.433 249.211,301.600 248.662,301.600 248.200 C 301.600 247.738,301.743 247.189,301.918 246.980 C 302.568 246.204,303.214 243.628,304.022 238.583 C 306.016 226.148,305.982 227.528,305.991 159.446 C 306.000 94.435,305.996 94.256,304.550 90.940 C 304.247 90.246,304.000 89.503,304.000 89.287 C 304.000 88.776,301.873 87.167,299.600 85.958 L 297.800 85.000 200.800 84.944 C 147.450 84.914,103.440 84.969,103.000 85.067 M278.320 170.000 C 278.407 212.107,278.315 228.808,277.988 230.400 C 277.395 233.288,275.681 238.984,274.797 241.000 C 274.412 241.880,273.707 243.719,273.231 245.087 C 272.405 247.462,266.456 256.820,263.258 260.776 C 259.250 265.733,248.058 276.991,244.401 279.744 C 243.192 280.655,241.932 281.692,241.601 282.049 C 241.271 282.406,239.651 283.756,238.002 285.049 C 236.353 286.342,234.654 287.715,234.226 288.100 C 233.799 288.485,233.291 288.800,233.097 288.800 C 232.517 288.800,229.209 291.200,226.874 293.315 C 225.672 294.403,223.740 295.713,222.581 296.225 C 221.422 296.738,220.359 297.343,220.219 297.569 C 219.712 298.389,211.753 303.365,209.003 304.582 C 207.850 305.092,205.556 306.429,203.905 307.554 C 202.254 308.680,200.700 309.600,200.452 309.600 C 199.951 309.600,199.769 112.364,200.269 111.865 C 200.416 111.717,218.011 111.642,239.369 111.698 L 278.200 111.800 278.320 170.000 " stroke="none" fill="#f9fafb" fill-rule="evenodd"></path><path id="path1" d="M0.000 200.000 L 0.000 400.000 117.400 400.000 C 181.970 400.000,234.800 399.901,234.800 399.780 C 234.800 398.872,233.299 397.057,231.840 396.202 C 229.887 395.058,226.635 391.770,226.247 390.548 C 226.109 390.113,225.181 389.242,224.184 388.612 C 222.193 387.353,220.144 385.246,218.963 383.243 C 218.544 382.530,217.390 381.448,216.400 380.837 C 215.410 380.226,213.970 378.962,213.200 378.028 C 212.430 377.094,211.105 375.670,210.255 374.865 C 209.406 374.059,207.606 372.280,206.255 370.910 C 204.905 369.541,203.206 367.831,202.480 367.110 C 201.754 366.390,199.912 364.540,198.386 363.000 C 194.173 358.749,193.998 358.579,191.060 355.899 C 189.553 354.525,188.074 352.926,187.773 352.346 C 187.473 351.766,186.456 350.839,185.513 350.286 C 183.650 349.193,182.010 347.535,180.311 345.028 C 179.713 344.145,178.273 342.787,177.111 342.011 C 175.823 341.150,174.397 339.694,173.454 338.276 C 172.604 336.998,171.164 335.483,170.254 334.910 C 168.439 333.765,165.348 330.669,165.001 329.647 C 164.771 328.971,163.797 328.097,160.831 325.907 C 159.858 325.188,158.495 323.790,157.801 322.800 C 157.107 321.810,155.798 320.500,154.893 319.889 C 153.987 319.278,152.471 317.860,151.523 316.739 C 149.588 314.449,147.842 312.706,144.622 309.851 C 143.413 308.779,142.204 307.407,141.937 306.802 C 141.669 306.197,140.597 305.120,139.555 304.409 C 137.215 302.812,135.635 301.200,136.411 301.200 C 136.714 301.200,136.205 300.473,135.281 299.585 C 134.356 298.697,133.600 297.805,133.600 297.604 C 133.600 297.402,133.001 296.954,132.270 296.606 C 130.646 295.836,126.000 291.389,126.000 290.605 C 126.000 290.293,125.206 289.492,124.236 288.825 C 122.363 287.536,120.120 285.119,119.198 283.396 C 118.891 282.823,117.461 281.143,116.020 279.663 C 114.579 278.182,111.910 274.727,110.089 271.985 C 106.086 265.957,106.361 266.355,105.484 265.335 C 104.717 264.442,103.200 260.621,103.200 259.581 C 103.200 259.234,102.840 258.564,102.400 258.092 C 101.960 257.620,101.600 257.043,101.600 256.811 C 101.600 256.579,101.426 256.077,101.212 255.695 C 100.173 253.832,98.000 248.805,98.000 248.262 C 98.000 247.924,97.820 247.536,97.600 247.400 C 97.380 247.264,97.200 246.749,97.200 246.256 C 97.200 245.763,97.049 245.189,96.864 244.980 C 96.271 244.308,95.672 241.000,94.188 230.200 C 93.322 223.897,93.352 94.545,94.220 92.052 C 95.493 88.399,96.771 86.884,100.071 85.123 L 101.800 84.200 200.000 84.200 L 298.200 84.200 299.929 85.123 C 302.317 86.398,304.006 87.961,304.659 89.500 C 304.963 90.215,305.453 90.800,305.748 90.800 C 306.261 90.800,338.033 122.445,379.944 164.700 C 390.690 175.535,399.599 184.400,399.742 184.400 C 399.884 184.400,400.000 142.910,400.000 92.200 L 400.000 0.000 200.000 0.000 L 0.000 0.000 0.000 200.000 M200.400 210.608 L 200.400 308.816 201.900 307.984 C 202.725 307.527,204.390 306.449,205.600 305.589 C 206.810 304.728,208.104 304.019,208.476 304.012 C 208.848 304.005,209.264 303.820,209.400 303.600 C 209.536 303.380,209.969 303.200,210.362 303.200 C 210.755 303.200,211.402 302.840,211.800 302.400 C 212.198 301.960,212.665 301.600,212.837 301.600 C 213.220 301.600,218.294 298.182,219.400 297.179 C 219.840 296.780,221.010 296.106,222.000 295.682 C 222.990 295.257,224.700 294.112,225.800 293.137 C 228.251 290.965,231.769 288.400,232.297 288.400 C 232.512 288.400,233.478 287.716,234.444 286.881 C 235.410 286.045,237.370 284.470,238.800 283.381 C 240.230 282.291,241.544 281.175,241.720 280.900 C 241.896 280.625,242.563 280.130,243.202 279.799 C 243.841 279.469,245.843 277.759,247.650 275.999 C 249.458 274.240,251.010 272.800,251.101 272.800 C 251.419 272.800,259.133 264.340,262.221 260.606 C 263.309 259.290,264.513 257.863,264.895 257.436 C 265.278 257.009,265.707 256.286,265.849 255.829 C 265.992 255.373,266.240 254.910,266.401 254.800 C 266.562 254.690,267.329 253.602,268.106 252.383 C 268.883 251.163,269.770 249.957,270.076 249.703 C 270.625 249.247,272.213 245.940,273.198 243.200 C 273.475 242.430,274.311 240.090,275.056 238.000 C 275.801 235.910,276.579 233.840,276.786 233.400 C 277.610 231.645,277.704 226.083,277.852 170.300 L 278.005 112.400 239.203 112.400 L 200.400 112.400 200.400 210.608 M306.565 217.000 C 306.566 220.960,306.626 222.526,306.698 220.480 C 306.771 218.434,306.771 215.194,306.698 213.280 C 306.624 211.366,306.565 213.040,306.565 217.000 M305.850 230.850 C 305.709 231.553,305.669 232.202,305.759 232.292 C 305.850 232.383,306.048 231.891,306.200 231.200 C 306.352 230.509,306.393 229.859,306.291 229.758 C 306.189 229.656,305.991 230.147,305.850 230.850 M305.246 234.867 C 305.221 235.234,305.096 235.864,304.970 236.267 C 304.752 236.962,304.763 236.963,305.197 236.287 C 305.448 235.896,305.573 235.266,305.473 234.887 C 305.311 234.268,305.288 234.266,305.246 234.867 M304.493 240.400 C 304.493 241.170,304.575 241.485,304.676 241.100 C 304.776 240.715,304.776 240.085,304.676 239.700 C 304.575 239.315,304.493 239.630,304.493 240.400 M289.268 272.965 C 288.571 273.936,288.000 274.863,288.000 275.025 C 288.000 275.290,289.791 272.951,290.546 271.700 C 291.250 270.532,290.437 271.338,289.268 272.965 M285.617 278.179 C 284.489 279.597,283.258 280.855,282.882 280.974 C 282.506 281.093,281.955 281.580,281.658 282.056 C 280.792 283.442,284.429 280.302,285.984 278.320 C 288.059 275.676,288.112 275.600,287.883 275.600 C 287.765 275.600,286.746 276.760,285.617 278.179 M276.342 288.330 C 275.540 288.919,274.668 289.740,274.403 290.156 C 274.139 290.572,274.840 290.139,275.961 289.194 C 277.083 288.248,278.000 287.413,278.000 287.337 C 278.000 287.127,277.905 287.184,276.342 288.330 M271.600 293.532 C 270.390 294.779,269.040 296.014,268.600 296.276 C 268.160 296.539,268.010 296.764,268.268 296.776 C 268.836 296.805,273.070 292.990,273.629 291.947 C 274.194 290.890,274.062 290.993,271.600 293.532 M264.825 299.769 L 263.450 301.400 265.005 299.913 C 265.860 299.096,266.479 298.362,266.380 298.283 C 266.281 298.203,265.581 298.872,264.825 299.769 M137.671 302.114 C 137.962 302.397,138.920 303.152,139.800 303.791 C 140.680 304.430,141.948 305.413,142.618 305.976 C 143.287 306.539,143.176 306.370,142.371 305.600 C 140.556 303.865,137.741 301.600,137.398 301.600 C 137.258 301.600,137.381 301.832,137.671 302.114 M144.563 307.541 C 144.886 308.063,149.600 311.731,149.600 311.460 C 149.600 311.357,148.406 310.334,146.946 309.187 C 145.486 308.040,144.414 307.299,144.563 307.541 M253.800 308.865 C 251.594 310.624,249.936 312.228,251.400 311.188 C 251.840 310.875,252.774 310.135,253.476 309.543 C 254.178 308.951,255.076 308.285,255.473 308.063 C 255.869 307.842,256.105 307.573,255.997 307.466 C 255.889 307.359,254.900 307.989,253.800 308.865 M246.100 314.440 C 245.165 315.102,244.400 315.733,244.400 315.841 C 244.400 315.950,245.210 315.481,246.200 314.800 C 247.190 314.119,248.000 313.480,248.000 313.381 C 248.000 313.105,247.924 313.148,246.100 314.440 M158.315 317.900 C 159.284 318.835,160.280 319.600,160.528 319.600 C 160.775 319.600,160.533 319.303,159.989 318.940 C 159.445 318.576,158.449 317.811,157.777 317.240 C 157.104 316.668,157.346 316.965,158.315 317.900 M236.167 320.914 C 234.908 321.648,233.200 323.079,233.200 323.399 C 233.200 323.555,233.802 323.169,234.538 322.541 C 235.274 321.914,236.219 321.186,236.638 320.924 C 237.641 320.296,237.240 320.288,236.167 320.914 M230.600 324.800 C 229.940 325.237,229.580 325.592,229.800 325.588 C 230.201 325.582,232.376 324.023,232.000 324.012 C 231.890 324.008,231.260 324.363,230.600 324.800 M224.400 328.020 L 223.400 328.822 224.500 328.347 C 225.105 328.085,225.600 327.720,225.600 327.536 C 225.600 327.079,225.545 327.102,224.400 328.020 M221.700 329.596 C 220.985 330.032,220.400 330.475,220.400 330.581 C 220.400 330.686,221.030 330.401,221.800 329.947 C 222.570 329.493,223.200 329.049,223.200 328.960 C 223.200 328.705,223.074 328.758,221.700 329.596 M209.600 336.000 C 208.830 336.422,208.380 336.766,208.600 336.766 C 208.820 336.766,209.630 336.422,210.400 336.000 C 211.170 335.578,211.620 335.234,211.400 335.234 C 211.180 335.234,210.370 335.578,209.600 336.000 M191.600 336.800 C 192.370 337.222,193.180 337.566,193.400 337.566 C 193.620 337.566,193.170 337.222,192.400 336.800 C 191.630 336.378,190.820 336.034,190.600 336.034 C 190.380 336.034,190.830 336.378,191.600 336.800 M206.265 337.447 C 205.640 337.786,205.206 338.139,205.300 338.233 C 205.487 338.420,208.000 337.246,208.000 336.971 C 208.000 336.662,207.418 336.822,206.265 337.447 M399.600 337.218 C 399.600 337.448,399.158 338.078,398.618 338.618 C 398.078 339.158,397.448 339.600,397.218 339.600 C 396.988 339.600,396.800 339.960,396.800 340.400 C 396.800 340.861,396.533 341.200,396.171 341.200 C 395.453 341.200,394.400 342.134,394.400 342.771 C 394.400 343.007,394.040 343.200,393.600 343.200 C 393.160 343.200,392.800 343.380,392.800 343.600 C 392.800 343.820,392.615 344.000,392.389 344.000 C 392.164 344.000,391.174 344.805,390.189 345.789 C 389.205 346.774,388.400 347.764,388.400 347.989 C 388.400 348.215,388.202 348.400,387.960 348.400 C 387.719 348.400,387.017 348.940,386.400 349.600 C 385.711 350.338,384.879 350.800,384.240 350.800 C 383.668 350.800,383.200 350.980,383.200 351.200 C 383.200 351.420,382.930 351.600,382.600 351.600 C 382.270 351.600,382.000 351.870,382.000 352.200 C 382.000 352.530,381.820 352.800,381.600 352.800 C 381.380 352.800,381.200 353.078,381.200 353.418 C 381.200 353.758,380.758 354.478,380.218 355.018 C 379.678 355.558,378.958 356.000,378.618 356.000 C 378.278 356.000,378.000 356.180,378.000 356.400 C 378.000 356.620,377.730 356.800,377.400 356.800 C 377.070 356.800,376.800 356.993,376.800 357.229 C 376.800 357.866,375.747 358.800,375.029 358.800 C 374.667 358.800,374.400 359.139,374.400 359.600 C 374.400 360.133,374.133 360.400,373.600 360.400 C 373.160 360.400,372.800 360.580,372.800 360.800 C 372.800 361.020,372.607 361.200,372.371 361.200 C 371.914 361.200,370.800 362.182,370.800 362.585 C 370.800 363.110,367.988 365.600,367.395 365.600 C 366.798 365.600,364.800 367.294,364.800 367.800 C 364.800 368.206,362.858 370.000,362.418 370.000 C 362.188 370.000,362.000 370.180,362.000 370.400 C 362.000 370.620,361.717 370.800,361.371 370.800 C 360.653 370.800,359.600 371.734,359.600 372.371 C 359.600 372.607,359.420 372.800,359.200 372.800 C 358.980 372.800,358.800 373.160,358.800 373.600 C 358.800 374.187,358.533 374.400,357.800 374.400 C 357.250 374.400,356.800 374.580,356.800 374.800 C 356.800 375.020,356.522 375.200,356.182 375.200 C 355.588 375.200,353.600 376.902,353.600 377.410 C 353.600 377.742,352.526 378.800,352.189 378.800 C 352.042 378.800,351.417 379.340,350.800 380.000 C 350.183 380.660,349.391 381.200,349.040 381.200 C 348.688 381.200,348.400 381.380,348.400 381.600 C 348.400 381.820,348.130 382.000,347.800 382.000 C 347.470 382.000,347.200 382.188,347.200 382.418 C 347.200 382.976,345.354 384.800,344.790 384.800 C 344.137 384.800,343.200 385.844,343.200 386.571 C 343.200 386.917,342.930 387.200,342.600 387.200 C 342.270 387.200,342.000 387.393,342.000 387.629 C 342.000 388.368,340.897 389.200,339.917 389.200 C 339.400 389.200,338.717 389.560,338.400 390.000 C 338.083 390.440,337.670 390.800,337.483 390.800 C 337.001 390.800,336.000 391.861,336.000 392.371 C 336.000 392.607,335.820 392.800,335.600 392.800 C 335.380 392.800,335.200 393.083,335.200 393.429 C 335.200 394.237,334.237 395.200,333.429 395.200 C 333.083 395.200,332.800 395.380,332.800 395.600 C 332.800 395.820,332.530 396.000,332.200 396.000 C 331.870 396.000,331.600 396.180,331.600 396.400 C 331.600 396.620,331.240 396.800,330.800 396.800 C 330.360 396.800,330.000 396.988,330.000 397.218 C 330.000 397.726,328.377 399.394,327.577 399.709 C 327.260 399.834,343.425 399.951,363.500 399.968 L 400.000 400.000 400.000 368.400 C 400.000 351.020,399.910 336.800,399.800 336.800 C 399.690 336.800,399.600 336.988,399.600 337.218 M194.000 337.766 C 194.000 339.909,202.527 340.909,204.356 338.980 C 204.913 338.392,204.846 338.398,203.856 339.025 C 202.011 340.194,198.183 340.018,195.863 338.658 C 194.838 338.058,194.000 337.656,194.000 337.766 " stroke="none" fill="#145cdc" fill-rule="evenodd"></path><path id="path2" d="M305.600 91.167 C 305.600 92.017,306.120 92.854,306.383 92.428 C 306.737 91.855,349.589 134.891,392.139 178.554 C 393.865 180.325,395.080 181.840,394.839 181.920 C 394.597 182.001,394.400 182.322,394.400 182.633 C 394.400 182.945,394.040 183.200,393.600 183.200 C 393.160 183.200,392.800 183.380,392.800 183.600 C 392.800 183.820,392.614 184.000,392.387 184.000 C 391.728 184.000,389.200 186.709,389.200 187.415 C 389.200 188.375,388.191 189.200,387.015 189.200 C 385.979 189.200,383.200 191.521,383.200 192.387 C 383.200 192.614,383.008 192.800,382.774 192.800 C 382.540 192.800,381.471 193.700,380.400 194.800 C 379.304 195.925,378.091 196.800,377.626 196.800 C 377.158 196.800,376.800 197.060,376.800 197.400 C 376.800 197.730,376.517 198.000,376.171 198.000 C 375.444 198.000,374.400 198.937,374.400 199.590 C 374.400 200.154,372.576 202.000,372.018 202.000 C 371.788 202.000,371.600 202.270,371.600 202.600 C 371.600 202.930,371.280 203.200,370.888 203.200 C 370.497 203.200,369.917 203.560,369.600 204.000 C 369.283 204.440,368.690 204.800,368.283 204.800 C 367.378 204.800,366.400 205.720,366.400 206.571 C 366.400 206.933,366.061 207.200,365.600 207.200 C 365.160 207.200,364.800 207.388,364.800 207.618 C 364.800 208.058,363.006 210.000,362.600 210.000 C 362.194 210.000,360.400 211.942,360.400 212.382 C 360.400 212.612,360.080 212.800,359.688 212.800 C 359.297 212.800,358.717 213.160,358.400 213.600 C 358.083 214.040,357.677 214.400,357.498 214.400 C 357.025 214.400,354.400 217.100,354.400 217.587 C 354.400 217.814,354.040 218.000,353.600 218.000 C 353.160 218.000,352.800 218.180,352.800 218.400 C 352.800 218.620,352.606 218.800,352.369 218.800 C 352.131 218.800,351.246 219.520,350.400 220.400 C 349.554 221.280,348.489 222.000,348.031 222.000 C 347.574 222.000,347.200 222.184,347.200 222.409 C 347.200 223.436,342.808 227.200,341.609 227.200 C 340.944 227.200,340.400 227.386,340.400 227.613 C 340.400 228.151,337.751 230.800,337.213 230.800 C 336.986 230.800,336.800 230.980,336.800 231.200 C 336.800 231.420,336.440 231.600,336.000 231.600 C 335.461 231.600,335.200 231.867,335.200 232.418 C 335.200 233.474,333.474 235.200,332.418 235.200 C 331.968 235.200,331.600 235.380,331.600 235.600 C 331.600 235.820,331.317 236.000,330.971 236.000 C 330.348 236.000,329.200 236.907,329.200 237.400 C 329.200 237.815,328.095 238.800,327.629 238.800 C 327.393 238.800,327.200 239.263,327.200 239.829 C 327.200 240.986,326.373 242.000,325.429 242.000 C 325.083 242.000,324.800 242.270,324.800 242.600 C 324.800 242.933,324.444 243.200,324.000 243.200 C 323.560 243.200,323.200 243.380,323.200 243.600 C 323.200 243.820,323.002 244.000,322.760 244.000 C 322.519 244.000,321.817 244.540,321.200 245.200 C 320.583 245.860,319.868 246.400,319.611 246.400 C 319.025 246.400,318.000 247.400,318.000 247.971 C 318.000 248.207,317.802 248.400,317.560 248.400 C 317.319 248.400,316.617 248.940,316.000 249.600 C 315.311 250.338,314.479 250.800,313.840 250.800 C 312.997 250.800,312.800 250.990,312.800 251.800 C 312.800 252.350,312.606 252.800,312.369 252.800 C 312.131 252.800,311.246 253.520,310.400 254.400 C 309.554 255.280,308.566 256.000,308.203 256.000 C 307.563 256.000,306.400 256.894,306.400 257.385 C 306.400 257.910,303.588 260.400,302.995 260.400 C 302.401 260.400,300.400 262.092,300.400 262.595 C 300.400 263.001,297.644 265.600,297.213 265.600 C 296.986 265.600,296.800 265.780,296.800 266.000 C 296.800 266.220,296.517 266.400,296.171 266.400 C 295.453 266.400,294.400 267.334,294.400 267.971 C 294.400 268.207,294.220 268.400,294.000 268.400 C 293.276 268.400,293.581 267.612,294.800 266.337 C 295.460 265.646,295.996 264.793,295.991 264.441 C 295.985 263.968,295.770 264.062,295.175 264.800 C 293.927 266.346,291.600 269.974,291.600 270.374 C 291.600 270.572,291.456 270.793,291.280 270.867 C 291.104 270.940,289.902 272.620,288.611 274.600 C 287.319 276.580,285.123 279.296,283.731 280.636 C 282.339 281.976,281.200 283.310,281.200 283.600 C 281.200 283.891,279.535 285.807,277.500 287.860 C 275.465 289.913,272.944 292.556,271.899 293.734 C 270.853 294.912,269.188 296.292,268.199 296.801 C 267.209 297.309,266.400 297.947,266.400 298.216 C 266.400 298.654,265.781 299.260,261.993 302.531 C 261.440 303.009,260.540 303.693,259.993 304.050 C 259.447 304.408,258.174 305.488,257.165 306.450 C 256.156 307.413,254.381 308.920,253.220 309.800 C 252.060 310.680,250.874 311.625,250.584 311.900 C 250.294 312.175,249.949 312.400,249.816 312.400 C 249.373 312.400,243.043 316.972,242.014 318.035 C 241.456 318.611,240.280 319.395,239.400 319.777 C 236.815 320.899,235.465 321.657,234.400 322.584 C 232.649 324.108,228.678 326.400,227.788 326.400 C 227.465 326.400,227.200 326.580,227.200 326.800 C 227.200 327.020,226.855 327.200,226.433 327.200 C 226.012 327.200,225.607 327.342,225.533 327.515 C 225.460 327.688,224.185 328.536,222.700 329.398 C 221.215 330.261,220.000 331.109,220.000 331.283 C 220.000 331.457,219.730 331.600,219.400 331.600 C 219.070 331.600,218.800 331.780,218.800 332.000 C 218.800 332.220,218.603 332.400,218.362 332.400 C 218.121 332.400,217.446 332.730,216.862 333.134 C 216.278 333.538,215.080 334.173,214.200 334.545 C 212.523 335.255,213.696 335.286,215.900 334.591 C 216.466 334.412,216.800 334.473,216.800 334.753 C 216.800 334.999,216.522 335.200,216.182 335.200 C 215.588 335.200,213.600 336.902,213.600 337.410 C 213.600 337.727,212.533 338.800,212.218 338.800 C 211.805 338.800,208.400 342.358,208.400 342.789 C 208.400 343.015,207.847 343.200,207.171 343.200 C 205.935 343.200,204.800 343.961,204.800 344.790 C 204.800 345.354,202.976 347.200,202.418 347.200 C 202.188 347.200,202.000 347.470,202.000 347.800 C 202.000 348.130,201.712 348.400,201.360 348.400 C 201.009 348.400,200.217 348.940,199.600 349.600 C 198.983 350.260,198.101 350.800,197.640 350.800 C 197.011 350.800,196.800 351.051,196.800 351.800 C 196.800 352.450,196.576 352.800,196.160 352.800 C 195.809 352.800,195.017 353.340,194.400 354.000 C 193.783 354.660,192.917 355.200,192.474 355.200 C 191.716 355.200,188.400 351.902,188.400 351.149 C 188.400 350.962,187.725 350.380,186.900 349.854 C 185.540 348.988,182.696 346.314,179.961 343.333 C 179.389 342.710,177.939 341.390,176.737 340.400 C 175.535 339.410,174.084 337.850,173.512 336.932 C 172.939 336.015,171.738 334.845,170.843 334.332 C 169.947 333.820,168.446 332.525,167.507 331.456 C 166.568 330.387,164.930 328.677,163.867 327.656 C 162.804 326.635,160.966 324.810,159.781 323.600 C 156.611 320.362,156.046 319.816,153.288 317.324 C 151.906 316.076,150.421 314.482,149.988 313.781 C 149.555 313.080,148.473 312.025,147.584 311.437 C 145.636 310.147,142.620 307.200,143.249 307.200 C 143.956 307.200,142.850 306.061,140.400 304.266 C 139.190 303.379,137.909 302.326,137.553 301.926 C 137.197 301.527,136.671 301.200,136.383 301.200 C 135.640 301.200,137.272 302.851,139.555 304.409 C 140.597 305.120,141.669 306.197,141.937 306.802 C 142.204 307.407,143.413 308.779,144.622 309.851 C 147.842 312.706,149.588 314.449,151.523 316.739 C 152.471 317.860,153.987 319.278,154.893 319.889 C 155.798 320.500,157.107 321.810,157.801 322.800 C 158.495 323.790,159.858 325.188,160.831 325.907 C 163.797 328.097,164.771 328.971,165.001 329.647 C 165.348 330.669,168.439 333.765,170.254 334.910 C 171.164 335.483,172.604 336.998,173.454 338.276 C 174.397 339.694,175.823 341.150,177.111 342.011 C 178.273 342.787,179.713 344.145,180.311 345.028 C 182.010 347.535,183.650 349.193,185.513 350.286 C 186.456 350.839,187.473 351.766,187.773 352.346 C 188.074 352.926,189.553 354.525,191.060 355.899 C 193.998 358.579,194.173 358.749,198.386 363.000 C 199.912 364.540,201.704 366.340,202.370 367.000 C 203.035 367.660,204.734 369.370,206.145 370.800 C 207.556 372.230,209.406 374.059,210.255 374.865 C 211.105 375.670,212.430 377.094,213.200 378.028 C 213.970 378.962,215.410 380.226,216.400 380.837 C 217.390 381.448,218.544 382.530,218.963 383.243 C 220.144 385.246,222.193 387.353,224.184 388.612 C 225.181 389.242,226.107 390.108,226.243 390.537 C 226.634 391.767,229.600 394.775,231.828 396.200 C 233.062 396.990,234.067 397.995,234.382 398.756 L 234.901 400.010 281.369 399.905 L 327.836 399.800 328.918 398.718 C 329.513 398.123,330.000 397.448,330.000 397.218 C 330.000 396.988,330.360 396.800,330.800 396.800 C 331.240 396.800,331.600 396.620,331.600 396.400 C 331.600 396.180,331.870 396.000,332.200 396.000 C 332.530 396.000,332.800 395.820,332.800 395.600 C 332.800 395.380,333.083 395.200,333.429 395.200 C 334.237 395.200,335.200 394.237,335.200 393.429 C 335.200 393.083,335.380 392.800,335.600 392.800 C 335.820 392.800,336.000 392.607,336.000 392.371 C 336.000 391.861,337.001 390.800,337.483 390.800 C 337.670 390.800,338.083 390.440,338.400 390.000 C 338.717 389.560,339.400 389.200,339.917 389.200 C 340.897 389.200,342.000 388.368,342.000 387.629 C 342.000 387.393,342.270 387.200,342.600 387.200 C 342.930 387.200,343.200 386.917,343.200 386.571 C 343.200 385.844,344.137 384.800,344.790 384.800 C 345.354 384.800,347.200 382.976,347.200 382.418 C 347.200 382.188,347.470 382.000,347.800 382.000 C 348.130 382.000,348.400 381.820,348.400 381.600 C 348.400 381.380,348.688 381.200,349.040 381.200 C 349.391 381.200,350.183 380.660,350.800 380.000 C 351.417 379.340,352.042 378.800,352.189 378.800 C 352.526 378.800,353.600 377.742,353.600 377.410 C 353.600 376.902,355.588 375.200,356.182 375.200 C 356.522 375.200,356.800 375.020,356.800 374.800 C 356.800 374.580,357.250 374.400,357.800 374.400 C 358.533 374.400,358.800 374.187,358.800 373.600 C 358.800 373.160,358.980 372.800,359.200 372.800 C 359.420 372.800,359.600 372.607,359.600 372.371 C 359.600 371.734,360.653 370.800,361.371 370.800 C 361.717 370.800,362.000 370.620,362.000 370.400 C 362.000 370.180,362.188 370.000,362.418 370.000 C 362.858 370.000,364.800 368.206,364.800 367.800 C 364.800 367.294,366.798 365.600,367.395 365.600 C 367.988 365.600,370.800 363.110,370.800 362.585 C 370.800 362.182,371.914 361.200,372.371 361.200 C 372.607 361.200,372.800 361.020,372.800 360.800 C 372.800 360.580,373.160 360.400,373.600 360.400 C 374.133 360.400,374.400 360.133,374.400 359.600 C 374.400 359.139,374.667 358.800,375.029 358.800 C 375.747 358.800,376.800 357.866,376.800 357.229 C 376.800 356.993,377.070 356.800,377.400 356.800 C 377.730 356.800,378.000 356.620,378.000 356.400 C 378.000 356.180,378.278 356.000,378.618 356.000 C 379.418 356.000,381.200 354.218,381.200 353.418 C 381.200 353.078,381.380 352.800,381.600 352.800 C 381.820 352.800,382.000 352.530,382.000 352.200 C 382.000 351.870,382.270 351.600,382.600 351.600 C 382.930 351.600,383.200 351.420,383.200 351.200 C 383.200 350.980,383.668 350.800,384.240 350.800 C 384.879 350.800,385.711 350.338,386.400 349.600 C 387.017 348.940,387.719 348.400,387.960 348.400 C 388.202 348.400,388.400 348.215,388.400 347.989 C 388.400 347.455,391.855 344.000,392.389 344.000 C 392.615 344.000,392.800 343.820,392.800 343.600 C 392.800 343.380,393.160 343.200,393.600 343.200 C 394.040 343.200,394.400 343.007,394.400 342.771 C 394.400 342.134,395.453 341.200,396.171 341.200 C 396.533 341.200,396.800 340.861,396.800 340.400 C 396.800 339.960,396.988 339.600,397.218 339.600 C 397.448 339.600,398.123 339.113,398.718 338.518 L 399.800 337.436 399.903 261.175 L 400.006 184.914 380.204 164.957 C 321.082 105.374,305.600 90.061,305.600 91.167 M306.521 162.425 C 306.531 199.949,306.397 230.882,306.222 231.165 C 305.934 231.630,305.476 234.178,304.992 238.000 C 304.749 239.927,305.839 236.243,306.473 233.000 C 307.087 229.857,307.314 162.583,306.844 123.000 C 306.547 97.993,306.505 103.186,306.521 162.425 M303.244 246.031 C 302.963 246.784,302.568 247.713,302.367 248.095 C 301.905 248.969,301.905 249.200,302.368 249.200 C 302.571 249.200,302.862 248.615,303.014 247.900 C 303.167 247.185,303.469 246.381,303.684 246.113 C 303.899 245.846,304.003 245.410,303.915 245.145 C 303.826 244.879,303.524 245.278,303.244 246.031 M298.202 257.717 C 296.688 260.351,296.666 260.403,297.067 260.387 C 297.567 260.368,299.655 256.770,299.519 256.162 C 299.453 255.871,298.861 256.571,298.202 257.717 M296.212 262.517 C 296.041 262.912,296.013 263.347,296.151 263.484 C 296.557 263.890,296.884 263.320,296.697 262.531 C 296.532 261.833,296.510 261.832,296.212 262.517 M144.000 307.438 C 144.000 307.711,145.297 308.787,147.774 310.570 C 149.893 312.094,149.199 311.375,146.300 309.042 C 145.035 308.024,144.000 307.302,144.000 307.438 M151.132 312.901 C 151.664 313.559,154.400 315.321,154.400 315.006 C 154.400 314.914,153.545 314.255,152.500 313.541 C 151.455 312.828,150.839 312.540,151.132 312.901 M158.287 318.423 C 158.995 319.158,159.662 319.672,159.769 319.565 C 159.875 319.458,159.296 318.857,158.481 318.229 L 157.000 317.087 158.287 318.423 M164.602 322.002 C 165.002 322.444,165.411 322.722,165.512 322.621 C 165.728 322.405,164.588 321.200,164.167 321.200 C 164.007 321.200,164.203 321.561,164.602 322.002 M166.201 323.202 C 166.469 323.636,168.800 324.934,168.800 324.650 C 168.800 324.556,168.159 324.101,167.376 323.639 C 166.593 323.177,166.064 322.980,166.201 323.202 M174.432 327.513 C 174.414 327.794,174.715 328.139,175.100 328.278 C 175.485 328.417,176.305 328.881,176.923 329.309 C 177.541 329.737,178.133 330.000,178.240 329.893 C 178.453 329.680,175.764 328.000,175.210 328.000 C 175.021 328.000,174.776 327.775,174.665 327.500 C 174.507 327.108,174.456 327.111,174.432 327.513 M178.800 330.159 C 178.800 331.307,185.378 335.254,187.149 335.168 C 187.689 335.142,187.698 335.102,187.200 334.933 C 185.749 334.440,181.600 332.207,181.600 331.918 C 181.600 331.743,181.387 331.600,181.126 331.600 C 180.865 331.600,180.235 331.209,179.726 330.730 C 179.217 330.252,178.800 329.995,178.800 330.159 M208.361 336.926 C 206.469 337.846,204.623 338.848,204.258 339.151 C 203.894 339.454,203.011 339.841,202.298 340.010 L 201.000 340.318 202.500 340.359 C 203.325 340.382,204.003 340.265,204.007 340.100 C 204.010 339.935,205.135 339.260,206.507 338.600 C 207.878 337.940,209.060 337.265,209.133 337.100 C 209.207 336.935,209.486 336.800,209.754 336.800 C 210.463 336.800,212.393 335.851,212.397 335.500 C 212.402 335.015,211.978 335.164,208.361 336.926 M189.600 336.400 C 189.600 336.620,189.861 336.800,190.180 336.800 C 190.499 336.800,191.714 337.350,192.880 338.022 C 194.046 338.694,195.315 339.345,195.700 339.469 C 196.085 339.592,196.400 339.852,196.400 340.047 C 196.400 340.241,197.075 340.382,197.900 340.359 L 199.400 340.318 198.143 340.018 C 197.452 339.854,196.192 339.288,195.343 338.761 C 192.286 336.864,189.600 335.760,189.600 336.400 " stroke="none" fill="#1455c9" fill-rule="evenodd"></path><path id="path3" d="M306.611 94.816 C 306.754 96.457,306.900 127.680,306.936 164.200 C 307.001 231.358,306.994 231.709,305.596 236.800 C 305.324 237.790,304.951 239.590,304.767 240.800 C 304.221 244.376,303.918 245.776,303.596 246.200 C 303.429 246.420,303.167 247.185,303.014 247.900 C 302.862 248.615,302.571 249.200,302.368 249.200 C 302.166 249.200,302.000 249.560,302.000 250.000 C 302.000 250.440,301.820 250.800,301.600 250.800 C 301.380 250.800,301.200 251.250,301.200 251.800 C 301.200 252.350,301.020 252.800,300.800 252.800 C 300.580 252.800,300.400 253.340,300.400 254.000 C 300.400 254.660,300.220 255.200,300.000 255.200 C 299.780 255.200,299.600 255.564,299.600 256.009 C 299.600 256.791,297.709 260.063,297.100 260.333 C 296.935 260.407,296.800 261.172,296.800 262.033 C 296.800 262.895,296.620 263.600,296.400 263.600 C 296.180 263.600,296.000 263.933,296.000 264.341 C 296.000 264.748,295.460 265.646,294.800 266.337 C 293.581 267.612,293.276 268.400,294.000 268.400 C 294.220 268.400,294.400 268.207,294.400 267.971 C 294.400 267.334,295.453 266.400,296.171 266.400 C 296.517 266.400,296.800 266.220,296.800 266.000 C 296.800 265.780,296.986 265.600,297.213 265.600 C 297.644 265.600,300.400 263.001,300.400 262.595 C 300.400 262.092,302.401 260.400,302.995 260.400 C 303.588 260.400,306.400 257.910,306.400 257.385 C 306.400 256.894,307.563 256.000,308.203 256.000 C 308.566 256.000,309.554 255.280,310.400 254.400 C 311.246 253.520,312.131 252.800,312.369 252.800 C 312.606 252.800,312.800 252.350,312.800 251.800 C 312.800 250.990,312.997 250.800,313.840 250.800 C 314.479 250.800,315.311 250.338,316.000 249.600 C 316.617 248.940,317.319 248.400,317.560 248.400 C 317.802 248.400,318.000 248.207,318.000 247.971 C 318.000 247.400,319.025 246.400,319.611 246.400 C 319.868 246.400,320.583 245.860,321.200 245.200 C 321.817 244.540,322.519 244.000,322.760 244.000 C 323.002 244.000,323.200 243.820,323.200 243.600 C 323.200 243.380,323.560 243.200,324.000 243.200 C 324.444 243.200,324.800 242.933,324.800 242.600 C 324.800 242.270,325.083 242.000,325.429 242.000 C 326.373 242.000,327.200 240.986,327.200 239.829 C 327.200 239.263,327.393 238.800,327.629 238.800 C 328.095 238.800,329.200 237.815,329.200 237.400 C 329.200 236.907,330.348 236.000,330.971 236.000 C 331.317 236.000,331.600 235.820,331.600 235.600 C 331.600 235.380,331.968 235.200,332.418 235.200 C 333.474 235.200,335.200 233.474,335.200 232.418 C 335.200 231.867,335.461 231.600,336.000 231.600 C 336.440 231.600,336.800 231.420,336.800 231.200 C 336.800 230.980,336.986 230.800,337.213 230.800 C 337.751 230.800,340.400 228.151,340.400 227.613 C 340.400 227.386,340.944 227.200,341.609 227.200 C 342.808 227.200,347.200 223.436,347.200 222.409 C 347.200 222.184,347.574 222.000,348.031 222.000 C 348.489 222.000,349.554 221.280,350.400 220.400 C 351.246 219.520,352.131 218.800,352.369 218.800 C 352.606 218.800,352.800 218.620,352.800 218.400 C 352.800 218.180,353.160 218.000,353.600 218.000 C 354.040 218.000,354.400 217.814,354.400 217.587 C 354.400 217.100,357.025 214.400,357.498 214.400 C 357.677 214.400,358.083 214.040,358.400 213.600 C 358.717 213.160,359.297 212.800,359.688 212.800 C 360.080 212.800,360.400 212.612,360.400 212.382 C 360.400 211.942,362.194 210.000,362.600 210.000 C 363.006 210.000,364.800 208.058,364.800 207.618 C 364.800 207.388,365.160 207.200,365.600 207.200 C 366.061 207.200,366.400 206.933,366.400 206.571 C 366.400 205.720,367.378 204.800,368.283 204.800 C 368.690 204.800,369.283 204.440,369.600 204.000 C 369.917 203.560,370.497 203.200,370.888 203.200 C 371.280 203.200,371.600 202.930,371.600 202.600 C 371.600 202.270,371.788 202.000,372.018 202.000 C 372.576 202.000,374.400 200.154,374.400 199.590 C 374.400 198.937,375.444 198.000,376.171 198.000 C 376.517 198.000,376.800 197.730,376.800 197.400 C 376.800 197.060,377.158 196.800,377.626 196.800 C 378.091 196.800,379.304 195.925,380.400 194.800 C 381.471 193.700,382.540 192.800,382.774 192.800 C 383.008 192.800,383.200 192.614,383.200 192.387 C 383.200 191.521,385.979 189.200,387.015 189.200 C 388.191 189.200,389.200 188.375,389.200 187.415 C 389.200 186.709,391.728 184.000,392.387 184.000 C 392.614 184.000,392.800 183.820,392.800 183.600 C 392.800 183.380,393.160 183.200,393.600 183.200 C 394.040 183.200,394.400 182.945,394.400 182.633 C 394.400 182.322,394.597 182.001,394.839 181.920 C 395.080 181.840,393.865 180.325,392.139 178.554 C 366.971 152.729,315.330 100.452,308.676 94.063 L 306.351 91.832 306.611 94.816 M144.383 308.783 C 145.254 309.654,146.694 310.848,147.584 311.437 C 148.473 312.025,149.555 313.080,149.988 313.781 C 150.421 314.482,151.906 316.076,153.288 317.324 C 156.046 319.816,156.611 320.362,159.781 323.600 C 160.966 324.810,162.804 326.635,163.867 327.656 C 164.930 328.677,166.575 330.387,167.522 331.456 C 168.469 332.525,170.030 333.879,170.990 334.464 C 171.950 335.050,173.138 336.220,173.629 337.064 C 174.121 337.909,175.513 339.410,176.723 340.400 C 177.932 341.390,179.389 342.710,179.961 343.333 C 182.696 346.314,185.540 348.988,186.900 349.854 C 187.725 350.380,188.400 350.962,188.400 351.149 C 188.400 351.902,191.716 355.200,192.474 355.200 C 192.917 355.200,193.783 354.660,194.400 354.000 C 195.017 353.340,195.809 352.800,196.160 352.800 C 196.576 352.800,196.800 352.450,196.800 351.800 C 196.800 351.051,197.011 350.800,197.640 350.800 C 198.101 350.800,198.983 350.260,199.600 349.600 C 200.217 348.940,201.009 348.400,201.360 348.400 C 201.712 348.400,202.000 348.130,202.000 347.800 C 202.000 347.470,202.188 347.200,202.418 347.200 C 202.976 347.200,204.800 345.354,204.800 344.790 C 204.800 343.961,205.935 343.200,207.171 343.200 C 207.847 343.200,208.400 343.015,208.400 342.789 C 208.400 342.358,211.805 338.800,212.218 338.800 C 212.533 338.800,213.600 337.727,213.600 337.410 C 213.600 336.902,215.588 335.200,216.182 335.200 C 216.522 335.200,216.800 334.999,216.800 334.753 C 216.800 334.473,216.466 334.412,215.900 334.591 C 215.405 334.747,214.460 334.973,213.800 335.093 C 213.140 335.212,212.510 335.421,212.400 335.555 C 212.023 336.017,210.411 336.800,209.839 336.800 C 209.524 336.800,209.207 336.935,209.133 337.100 C 209.060 337.265,207.878 337.940,206.507 338.600 C 205.135 339.260,204.010 339.935,204.007 340.100 C 203.997 340.527,196.400 340.474,196.400 340.047 C 196.400 339.852,196.085 339.592,195.700 339.469 C 195.315 339.345,194.046 338.694,192.880 338.022 C 191.714 337.350,190.499 336.800,190.180 336.800 C 189.861 336.800,189.600 336.664,189.600 336.498 C 189.600 336.177,188.413 335.653,185.800 334.821 C 184.052 334.264,180.767 332.308,179.412 331.016 C 178.537 330.182,177.450 329.482,175.500 328.497 C 174.895 328.191,174.400 327.775,174.400 327.571 C 174.400 327.367,174.051 327.200,173.624 327.200 C 173.197 327.200,172.736 327.020,172.600 326.800 C 172.464 326.580,172.018 326.400,171.610 326.400 C 171.201 326.400,170.807 326.265,170.733 326.100 C 170.660 325.935,169.790 325.364,168.800 324.832 C 167.810 324.299,165.999 323.084,164.775 322.132 C 163.551 321.179,162.274 320.400,161.937 320.400 C 160.888 320.400,158.883 319.214,157.845 317.980 C 157.298 317.331,156.660 316.800,156.426 316.800 C 156.192 316.800,156.000 316.620,156.000 316.400 C 156.000 316.180,155.745 316.000,155.433 316.000 C 155.122 316.000,154.807 315.847,154.733 315.660 C 154.619 315.369,152.823 314.089,150.440 312.600 C 150.088 312.380,149.710 312.109,149.600 311.998 C 149.490 311.886,148.394 311.047,147.164 310.133 C 145.934 309.218,144.642 308.184,144.292 307.835 C 143.943 307.486,143.464 307.200,143.229 307.200 C 142.993 307.200,143.512 307.912,144.383 308.783 " stroke="none" fill="#1450bb" fill-rule="evenodd"></path><path id="path4" d="M101.997 84.372 C 97.973 85.603,95.676 87.871,94.220 92.052 C 93.352 94.545,93.322 223.897,94.188 230.200 C 95.672 241.000,96.271 244.308,96.864 244.980 C 97.049 245.189,97.200 245.763,97.200 246.256 C 97.200 246.749,97.380 247.264,97.600 247.400 C 97.820 247.536,98.000 247.924,98.000 248.262 C 98.000 248.805,100.173 253.832,101.212 255.695 C 101.426 256.077,101.600 256.579,101.600 256.811 C 101.600 257.043,101.960 257.620,102.400 258.092 C 102.840 258.564,103.200 259.234,103.200 259.581 C 103.200 260.621,104.717 264.442,105.484 265.335 C 106.361 266.355,106.086 265.957,110.089 271.985 C 111.910 274.727,114.579 278.182,116.020 279.663 C 117.461 281.143,118.891 282.823,119.198 283.396 C 120.120 285.119,122.363 287.536,124.236 288.825 C 125.206 289.492,126.000 290.293,126.000 290.605 C 126.000 291.344,130.583 295.795,132.102 296.531 C 132.749 296.844,133.576 297.547,133.939 298.093 C 134.524 298.971,137.274 301.409,141.057 304.405 C 141.749 304.952,144.065 306.840,146.204 308.600 C 148.343 310.360,150.384 311.980,150.739 312.200 C 152.884 313.528,156.817 316.347,158.104 317.480 C 158.931 318.209,160.735 319.337,162.114 319.989 C 163.492 320.640,165.014 321.540,165.495 321.988 C 166.545 322.966,169.462 324.720,173.800 326.982 C 177.473 328.896,179.068 329.858,180.200 330.844 C 181.328 331.825,185.896 334.208,187.800 334.808 C 188.680 335.085,191.290 336.301,193.600 337.511 C 198.933 340.303,201.464 340.532,204.648 338.511 C 206.679 337.222,207.654 336.769,213.019 334.626 C 214.789 333.919,217.399 332.546,218.819 331.575 C 222.172 329.282,225.607 327.200,226.036 327.200 C 226.223 327.200,227.056 326.819,227.888 326.354 C 231.754 324.193,233.073 323.354,234.000 322.469 C 234.550 321.944,236.271 320.924,237.824 320.202 C 239.377 319.480,241.513 318.141,242.570 317.226 C 243.628 316.310,245.867 314.638,247.546 313.509 C 251.050 311.153,255.560 307.668,257.600 305.740 C 258.370 305.013,260.370 303.351,262.045 302.047 C 263.720 300.744,265.487 299.121,265.971 298.440 C 266.456 297.760,267.611 296.759,268.538 296.215 C 270.357 295.149,273.084 292.398,274.209 290.492 C 274.594 289.841,275.399 289.019,275.999 288.664 C 277.671 287.676,279.932 285.205,281.081 283.108 C 281.652 282.068,282.438 281.115,282.828 280.991 C 283.449 280.794,288.000 275.563,288.000 275.046 C 288.000 274.938,289.175 273.084,290.612 270.925 C 293.436 266.681,293.399 266.734,294.679 265.081 C 295.155 264.465,295.932 262.712,296.405 261.185 C 296.877 259.657,297.426 258.307,297.625 258.185 C 297.944 257.988,300.400 253.016,300.400 252.568 C 300.400 252.357,301.910 248.894,302.433 247.905 C 302.635 247.523,302.800 246.884,302.800 246.485 C 302.800 246.086,302.947 245.589,303.127 245.380 C 303.562 244.874,304.270 241.733,304.835 237.800 C 305.088 236.040,305.483 233.700,305.714 232.600 C 306.349 229.576,306.590 95.132,305.965 93.000 C 304.710 88.724,303.351 86.949,299.929 85.123 L 298.200 84.200 200.600 84.133 C 146.920 84.096,102.549 84.203,101.997 84.372 M299.600 85.958 C 301.873 87.167,304.000 88.776,304.000 89.287 C 304.000 89.503,304.247 90.246,304.550 90.940 C 305.996 94.256,306.000 94.435,305.991 159.446 C 305.982 227.528,306.016 226.148,304.022 238.583 C 303.214 243.628,302.568 246.204,301.918 246.980 C 301.743 247.189,301.600 247.738,301.600 248.200 C 301.600 248.662,301.433 249.211,301.230 249.420 C 301.026 249.629,300.192 251.330,299.377 253.200 C 298.562 255.070,297.575 257.054,297.185 257.609 C 296.795 258.164,296.174 259.653,295.806 260.919 C 295.439 262.184,294.527 263.980,293.781 264.910 C 293.035 265.839,292.147 267.090,291.808 267.688 C 289.508 271.747,285.466 277.394,283.304 279.569 C 281.899 280.982,280.494 282.632,280.182 283.235 C 279.870 283.838,278.709 285.202,277.603 286.266 C 274.568 289.183,273.797 289.975,271.297 292.742 C 270.034 294.140,268.370 295.612,267.600 296.013 C 266.830 296.413,265.865 297.249,265.455 297.871 C 265.045 298.492,263.457 299.990,261.926 301.200 C 260.395 302.410,258.430 304.073,257.560 304.896 C 256.690 305.718,255.038 307.099,253.889 307.964 C 252.740 308.830,251.170 310.091,250.400 310.768 C 249.630 311.445,248.863 311.999,248.695 311.999 C 248.175 312.001,243.487 315.274,241.707 316.878 C 240.775 317.717,238.975 318.863,237.707 319.424 C 236.438 319.985,234.950 320.853,234.400 321.353 C 233.383 322.278,228.382 325.368,226.200 326.420 C 224.174 327.397,220.244 329.707,219.400 330.417 C 218.157 331.462,213.596 333.791,211.600 334.400 C 210.610 334.702,208.121 335.815,206.069 336.874 C 201.990 338.979,198.895 339.425,196.800 338.207 C 194.767 337.026,190.142 334.877,188.264 334.241 C 186.370 333.599,181.596 331.242,181.200 330.753 C 180.788 330.245,176.398 327.586,174.338 326.598 C 171.724 325.344,167.188 322.508,165.928 321.340 C 165.418 320.866,163.830 319.940,162.400 319.281 C 160.970 318.621,159.260 317.592,158.600 316.993 C 156.879 315.431,153.511 312.961,151.772 311.985 C 150.951 311.523,148.396 309.583,146.094 307.673 C 143.791 305.763,141.163 303.645,140.254 302.966 C 139.344 302.287,137.312 300.487,135.738 298.966 C 134.164 297.445,131.622 295.155,130.089 293.878 C 128.557 292.601,126.980 290.958,126.586 290.226 C 126.192 289.494,125.372 288.602,124.765 288.243 C 123.305 287.381,120.011 283.942,120.005 283.274 C 120.002 282.985,119.145 281.903,118.100 280.871 C 115.496 278.299,113.735 276.054,110.656 271.382 C 109.213 269.192,107.507 266.680,106.864 265.800 C 105.512 263.948,104.400 261.853,104.400 261.156 C 104.400 260.890,103.615 259.036,102.656 257.036 C 98.942 249.293,98.400 248.083,98.400 247.531 C 98.400 247.217,98.250 246.789,98.067 246.580 C 97.083 245.455,95.412 235.882,94.771 227.685 C 94.001 217.849,94.484 92.399,95.298 91.000 C 95.681 90.340,95.996 89.590,95.998 89.334 C 96.003 88.359,100.487 85.626,103.000 85.067 C 103.440 84.969,147.450 84.914,200.800 84.944 L 297.800 85.000 299.600 85.958 M200.269 111.865 C 199.769 112.364,199.951 309.600,200.452 309.600 C 200.700 309.600,202.254 308.680,203.905 307.554 C 205.556 306.429,207.850 305.092,209.003 304.582 C 211.753 303.365,219.712 298.389,220.219 297.569 C 220.359 297.343,221.422 296.738,222.581 296.225 C 223.740 295.713,225.672 294.403,226.874 293.315 C 229.209 291.200,232.517 288.800,233.097 288.800 C 233.291 288.800,233.799 288.485,234.226 288.100 C 234.654 287.715,236.353 286.342,238.002 285.049 C 239.651 283.756,241.271 282.406,241.601 282.049 C 241.932 281.692,243.192 280.655,244.401 279.744 C 248.058 276.991,259.250 265.733,263.258 260.776 C 266.456 256.820,272.405 247.462,273.231 245.087 C 273.707 243.719,274.412 241.880,274.797 241.000 C 275.681 238.984,277.395 233.288,277.988 230.400 C 278.315 228.808,278.407 212.107,278.320 170.000 L 278.200 111.800 239.369 111.698 C 218.011 111.642,200.416 111.717,200.269 111.865 M277.852 170.300 C 277.704 226.083,277.610 231.645,276.786 233.400 C 276.579 233.840,275.801 235.910,275.056 238.000 C 274.311 240.090,273.475 242.430,273.198 243.200 C 272.213 245.940,270.625 249.247,270.076 249.703 C 269.770 249.957,268.883 251.163,268.106 252.383 C 267.329 253.602,266.562 254.690,266.401 254.800 C 266.240 254.910,265.992 255.373,265.849 255.829 C 265.707 256.286,265.278 257.009,264.895 257.436 C 264.513 257.863,263.309 259.290,262.221 260.606 C 259.133 264.340,251.419 272.800,251.101 272.800 C 251.010 272.800,249.458 274.240,247.650 275.999 C 245.843 277.759,243.841 279.469,243.202 279.799 C 242.563 280.130,241.896 280.625,241.720 280.900 C 241.544 281.175,240.230 282.291,238.800 283.381 C 237.370 284.470,235.410 286.045,234.444 286.881 C 233.478 287.716,232.512 288.400,232.297 288.400 C 231.769 288.400,228.251 290.965,225.800 293.137 C 224.700 294.112,222.990 295.257,222.000 295.682 C 221.010 296.106,219.840 296.780,219.400 297.179 C 218.294 298.182,213.220 301.600,212.837 301.600 C 212.665 301.600,212.198 301.960,211.800 302.400 C 211.402 302.840,210.755 303.200,210.362 303.200 C 209.969 303.200,209.536 303.380,209.400 303.600 C 209.264 303.820,208.848 304.005,208.476 304.012 C 208.104 304.019,206.810 304.728,205.600 305.589 C 204.390 306.449,202.725 307.527,201.900 307.984 L 200.400 308.816 200.400 210.608 L 200.400 112.400 239.203 112.400 L 278.005 112.400 277.852 170.300 " stroke="none" fill="#658edb" fill-rule="evenodd"></path></g></svg>