<?xml version="1.0" standalone="no"?>
<!DOCTYPE svg PUBLIC "-//W3C//DTD SVG 20010904//EN"
 "http://www.w3.org/TR/2001/REC-SVG-20010904/DTD/svg10.dtd">
<svg version="1.0" xmlns="http://www.w3.org/2000/svg"
 width="150.000000pt" height="50.000000pt" viewBox="0 0 150.000000 50.000000"
 preserveAspectRatio="xMidYMid meet">

<g transform="translate(0.000000,50.000000) scale(0.100000,-0.100000)"
fill="#000000" stroke="none">
<path d="M245 440 c-4 -6 -23 -7 -46 -4 -37 6 -39 5 -39 -21 0 -26 2 -27 39
-22 37 5 39 3 45 -26 3 -17 2 -35 -4 -41 -5 -5 -10 -28 -10 -51 0 -22 -7 -50
-15 -61 -12 -18 -22 -20 -63 -16 -63 6 -92 -9 -92 -48 0 -38 12 -41 163 -44
105 -2 122 -5 125 -19 3 -12 14 -17 38 -17 31 0 34 3 34 30 0 30 -6 38 -64 83
-24 19 -29 33 -33 78 -3 33 -11 59 -21 67 -12 9 -13 15 -4 24 7 7 12 19 12 29
0 12 9 16 38 15 31 -1 37 2 37 19 0 16 -7 20 -37 20 -20 0 -40 3 -44 8 -11 10
-52 9 -59 -3z"/>
<path d="M480 360 l0 -70 49 0 c55 0 81 22 81 70 0 48 -26 70 -81 70 l-49 0 0
-70z m71 40 c36 -20 17 -90 -25 -90 -3 0 -6 23 -6 50 0 54 1 55 31 40z"/>
<path d="M630 360 c0 -54 3 -70 14 -70 10 0 16 13 18 38 l3 37 23 -37 c14 -23
31 -38 43 -38 17 0 19 8 19 70 0 63 -2 70 -20 70 -16 0 -20 -7 -20 -37 l0 -38
-22 38 c-13 21 -30 37 -40 37 -16 0 -18 -9 -18 -70z"/>
<path d="M770 415 c-19 -22 -2 -53 35 -65 38 -12 48 -40 15 -40 -11 0 -20 5
-20 10 0 6 -9 10 -21 10 -27 0 -20 -21 14 -40 34 -19 81 -4 85 28 4 27 -14 52
-37 52 -9 0 -23 5 -31 10 -12 7 -12 12 -2 22 9 9 15 9 24 0 7 -7 20 -12 30
-12 16 0 17 3 8 20 -13 24 -81 28 -100 5z"/>
<path d="M950 360 c0 -56 3 -70 15 -70 12 0 15 14 15 70 0 56 -3 70 -15 70
-12 0 -15 -14 -15 -70z"/>
<path d="M1220 360 c0 -69 11 -91 24 -47 l7 22 16 -22 c8 -13 22 -23 29 -23
12 0 12 5 -2 31 -11 23 -13 34 -5 42 28 28 -1 37 -31 10 -17 -15 -18 -14 -18
20 0 21 -4 37 -10 37 -6 0 -10 -30 -10 -70z"/>
<path d="M1010 380 c-22 -22 -25 -42 -10 -71 13 -23 62 -26 80 -4 11 13 8 15
-20 13 -19 -2 -35 2 -37 10 -3 8 7 12 31 12 40 0 47 17 20 44 -21 21 -40 20
-64 -4z m50 -21 c0 -5 -9 -9 -20 -9 -22 0 -27 16 -7 23 15 5 27 -1 27 -14z"/>
<path d="M1128 389 c-22 -12 -23 -29 -3 -29 8 0 15 5 15 10 0 6 7 10 16 10 24
0 11 -24 -17 -30 -17 -4 -25 -14 -27 -33 -3 -26 -1 -27 42 -27 l46 0 0 45 c0
34 -5 47 -19 55 -24 12 -31 12 -53 -1z m42 -64 c0 -8 -9 -15 -20 -15 -22 0
-27 15 -7 23 21 9 27 7 27 -8z"/>
<path d="M502 158 l3 -63 35 0 c32 0 35 3 38 33 2 18 -1 32 -7 32 -6 0 -11 -9
-11 -19 0 -25 -20 -38 -31 -20 -17 26 -5 54 26 60 l30 7 -28 1 c-15 0 -30 8
-33 16 -14 35 -25 11 -22 -47z"/>
<path d="M822 158 l3 -63 35 0 c32 0 35 3 38 33 2 18 -1 32 -7 32 -6 0 -11 -9
-11 -19 0 -25 -20 -38 -31 -20 -17 26 -5 54 26 60 l30 7 -28 1 c-15 0 -30 8
-33 16 -14 35 -25 11 -22 -47z"/>
<path d="M616 184 c-20 -19 -21 -68 -2 -83 19 -16 68 -10 74 8 3 10 -3 11 -27
6 -24 -5 -31 -3 -31 9 0 12 10 16 35 16 40 0 44 11 15 40 -24 24 -43 25 -64 4z
m54 -25 c0 -5 -9 -9 -20 -9 -19 0 -26 11 -14 23 8 8 34 -3 34 -14z"/>
<path d="M726 187 c-23 -17 -12 -43 25 -56 41 -14 36 -25 -8 -16 -33 6 -35 5
-23 -10 20 -25 74 -16 78 13 3 18 -3 25 -27 33 -17 6 -31 15 -31 20 0 13 24
11 38 -3 17 -17 28 -2 12 17 -15 18 -40 19 -64 2z"/>
<path d="M988 189 c-21 -12 -24 -69 -6 -87 17 -17 53 -15 68 3 16 19 5 34 -12
17 -28 -28 -57 2 -38 39 9 16 14 17 30 7 26 -16 40 0 16 18 -23 16 -35 17 -58
3z"/>
<path d="M1098 189 c-21 -12 -24 -69 -6 -87 15 -15 61 -15 76 0 17 17 15 64
-4 82 -18 18 -41 20 -66 5z m56 -35 c8 -22 -4 -44 -24 -44 -23 0 -36 36 -20
55 13 16 36 10 44 -11z"/>
<path d="M1223 193 c-20 -4 -23 -11 -23 -54 0 -27 5 -49 10 -49 6 0 10 15 10
34 0 33 20 62 33 49 4 -3 7 -24 7 -45 0 -56 28 -52 32 5 2 23 8 42 13 42 6 0
11 -19 13 -42 2 -29 8 -43 18 -43 19 0 19 69 0 96 -13 16 -18 17 -35 7 -13 -8
-22 -9 -26 -3 -6 10 -13 11 -52 3z"/>
<path d="M930 105 c0 -8 7 -15 15 -15 8 0 15 7 15 15 0 8 -7 15 -15 15 -8 0
-15 -7 -15 -15z"/>
</g>
</svg>
