<svg id="svg" version="1.1" xmlns="http://www.w3.org/2000/svg" xmlns:xlink="http://www.w3.org/1999/xlink" width="400" height="400" viewBox="0, 0, 400,400"><g id="svgg"><path id="path0" d="M177.800 91.435 C 147.419 92.506,112.675 95.898,95.600 99.459 C 77.743 103.183,71.759 108.808,67.656 125.726 C 67.399 126.785,67.074 129.530,66.934 131.826 L 66.678 136.000 78.912 136.000 C 90.218 136.000,91.162 135.947,91.354 135.300 C 91.469 134.915,91.845 133.357,92.190 131.839 C 94.602 121.219,98.707 119.464,129.200 116.020 C 169.251 111.496,224.480 111.165,263.500 115.216 C 303.315 119.349,305.971 120.499,308.985 134.900 L 309.215 136.000 321.408 136.000 L 333.600 136.000 333.598 133.700 C 333.590 120.394,327.047 107.818,317.843 103.415 C 309.909 99.620,291.669 96.479,263.400 94.040 C 254.735 93.293,250.617 92.987,235.600 91.974 C 229.719 91.577,185.465 91.164,177.800 91.435 M130.800 138.229 C 130.250 138.321,128.565 138.596,127.056 138.842 C 116.516 140.557,108.824 145.927,106.980 152.857 C 106.158 155.944,106.128 238.741,106.947 241.817 C 107.776 244.933,108.737 246.658,110.750 248.649 C 116.489 254.325,131.831 257.935,145.390 256.800 C 147.765 256.601,147.781 256.607,148.124 257.800 C 149.097 261.187,149.403 261.930,150.449 263.460 C 152.677 266.719,156.108 267.594,166.677 267.598 C 175.178 267.601,174.800 267.890,174.800 261.387 C 174.800 255.149,175.145 255.432,167.333 255.264 C 159.277 255.090,158.474 254.636,162.628 252.604 C 165.952 250.977,169.641 247.340,171.041 244.309 L 172.200 241.800 172.318 199.200 C 172.400 169.573,172.302 155.822,171.996 154.045 C 170.654 146.232,164.842 141.672,152.800 138.979 C 149.931 138.338,133.516 137.778,130.800 138.229 M67.149 143.861 C 66.348 144.827,66.350 165.976,67.152 166.942 C 67.959 167.914,89.201 167.941,90.171 166.971 C 91.116 166.027,91.116 144.773,90.171 143.829 C 89.199 142.856,67.958 142.886,67.149 143.861 M189.462 143.931 C 188.661 144.816,188.419 252.940,189.214 254.426 C 189.837 255.591,211.487 255.630,212.538 254.469 C 213.147 253.795,213.200 249.378,213.200 199.091 L 213.200 144.445 212.311 143.823 C 210.855 142.803,190.395 142.901,189.462 143.931 M225.062 143.931 C 224.174 144.912,224.175 144.915,225.966 149.869 C 228.113 155.808,234.840 174.581,237.264 181.400 C 238.358 184.480,239.602 187.945,240.027 189.100 C 240.452 190.255,241.160 192.190,241.600 193.400 C 242.040 194.610,242.748 196.545,243.173 197.700 C 243.598 198.855,245.128 203.139,246.573 207.221 L 249.200 214.642 249.200 234.441 C 249.200 249.307,249.320 254.360,249.680 254.720 C 250.517 255.557,272.146 255.388,272.851 254.539 C 273.297 254.002,273.422 250.108,273.515 233.839 C 273.641 211.709,273.386 214.161,276.411 206.000 C 277.104 204.130,277.818 202.150,277.996 201.600 C 278.175 201.050,279.393 197.630,280.704 194.000 C 282.015 190.370,284.561 183.260,286.361 178.200 C 288.161 173.140,289.978 168.100,290.399 167.000 C 290.820 165.900,292.151 162.210,293.357 158.800 C 294.563 155.390,296.101 151.087,296.775 149.238 C 299.057 142.975,299.480 143.200,285.436 143.200 C 272.501 143.200,274.027 142.484,271.787 149.605 C 270.993 152.132,269.832 155.820,269.208 157.800 C 268.584 159.780,266.883 165.450,265.429 170.400 C 263.975 175.350,262.609 179.953,262.393 180.628 C 262.177 181.304,262.000 182.148,262.000 182.505 C 262.000 183.126,261.306 183.839,261.000 183.533 C 260.919 183.452,260.412 181.769,259.873 179.793 C 256.018 165.650,249.129 144.056,248.304 143.532 C 247.121 142.781,225.771 143.148,225.062 143.931 M310.262 143.931 C 309.402 144.882,309.223 253.863,310.080 254.720 C 310.430 255.070,313.547 255.200,321.600 255.200 C 329.653 255.200,332.770 255.070,333.120 254.720 C 334.075 253.765,333.785 144.127,332.826 143.614 C 331.291 142.792,311.035 143.077,310.262 143.931 M145.106 152.152 C 147.702 153.494,147.557 150.895,147.624 197.124 C 147.682 237.338,147.653 239.225,146.942 240.655 C 144.976 244.614,135.693 245.089,132.452 241.398 C 130.727 239.434,130.745 239.947,130.879 195.600 L 131.000 155.400 131.928 154.099 C 133.938 151.281,141.314 150.191,145.106 152.152 M67.171 178.235 C 66.248 179.348,66.529 255.612,67.459 256.293 C 68.481 257.040,89.109 256.995,90.100 256.243 C 91.250 255.370,91.178 178.630,90.026 178.014 C 88.631 177.267,67.807 177.468,67.171 178.235 M66.937 267.894 C 67.908 282.562,74.132 293.247,84.000 297.188 C 95.801 301.902,120.452 305.176,166.000 308.079 C 176.504 308.749,223.923 308.756,234.400 308.090 C 278.750 305.270,302.535 302.176,315.908 297.487 C 325.770 294.029,332.561 282.589,333.474 267.894 L 333.717 263.988 321.363 264.094 L 309.010 264.200 308.744 266.000 C 307.205 276.410,302.304 279.898,286.010 282.181 C 279.461 283.099,276.929 283.401,267.200 284.424 C 227.065 288.644,171.470 288.642,133.200 284.418 C 131.330 284.211,128.090 283.858,126.000 283.633 C 99.195 280.746,93.933 278.181,91.869 266.996 L 91.353 264.200 79.016 264.094 L 66.679 263.988 66.937 267.894 " stroke="none" fill="#f6fbf6" fill-rule="evenodd"></path><path id="path1" d="M0.000 200.000 L 0.000 400.000 200.000 400.000 L 400.000 400.000 400.000 200.000 L 400.000 0.000 200.000 0.000 L 0.000 0.000 0.000 200.000 M226.200 90.803 C 231.260 91.018,239.270 91.461,244.000 91.789 C 248.730 92.117,255.480 92.581,259.000 92.821 C 280.954 94.316,310.825 98.868,315.800 101.477 C 316.240 101.707,317.482 102.324,318.560 102.848 C 319.638 103.372,320.988 104.048,321.560 104.351 C 328.222 107.880,334.959 123.603,334.339 134.173 C 334.158 137.256,334.579 137.162,320.825 137.187 C 308.911 137.208,308.006 137.059,307.995 135.077 C 307.992 134.595,307.627 133.030,307.183 131.600 C 304.131 121.757,298.574 119.644,268.200 116.776 C 265.560 116.527,263.284 116.251,263.142 116.164 C 262.813 115.961,251.839 115.087,248.400 114.989 C 246.970 114.949,243.280 114.675,240.200 114.381 C 230.928 113.495,168.709 113.588,158.000 114.504 C 153.490 114.890,147.280 115.392,144.200 115.619 C 137.098 116.144,128.649 117.019,123.000 117.814 C 120.580 118.154,115.512 118.862,111.737 119.387 C 102.029 120.737,97.172 122.996,95.253 127.055 C 94.747 128.125,94.010 129.630,93.615 130.400 C 93.221 131.170,92.770 132.736,92.614 133.880 C 92.176 137.096,92.643 136.984,79.020 137.121 C 64.166 137.270,65.245 137.769,66.008 131.108 C 68.299 111.128,76.039 102.381,94.600 98.796 C 95.480 98.626,97.730 98.191,99.600 97.829 C 103.912 96.994,108.756 96.264,115.600 95.419 C 118.570 95.052,122.980 94.494,125.400 94.179 C 127.820 93.864,132.365 93.425,135.500 93.203 C 159.556 91.502,170.675 90.786,174.800 90.672 C 185.396 90.377,218.127 90.461,226.200 90.803 M150.400 137.570 C 155.153 138.448,160.526 140.056,163.000 141.341 C 165.728 142.757,170.756 147.219,170.787 148.251 C 170.794 148.499,171.061 148.919,171.380 149.183 C 173.131 150.637,174.595 233.474,173.016 241.751 C 172.203 246.011,168.065 251.664,164.700 253.110 C 162.689 253.974,163.558 254.288,167.700 254.195 C 172.064 254.098,174.423 254.463,175.161 255.353 C 176.088 256.470,175.924 266.570,174.957 267.868 L 174.115 269.000 167.557 269.124 C 156.442 269.335,149.200 267.205,149.200 263.724 C 149.200 263.436,149.056 263.200,148.880 263.200 C 148.435 263.200,147.600 260.766,147.600 259.467 L 147.600 258.391 141.097 258.442 C 131.106 258.521,122.065 256.899,116.400 254.012 C 111.537 251.533,110.713 250.958,109.247 249.016 C 104.991 243.379,105.187 246.077,105.430 196.528 C 105.656 150.380,105.551 152.384,107.930 148.600 C 110.303 144.827,116.704 140.000,119.337 140.000 C 119.708 140.000,120.323 139.830,120.705 139.621 C 122.170 138.823,125.548 138.028,129.200 137.622 C 131.290 137.390,133.540 137.123,134.200 137.030 C 135.994 136.777,148.331 137.188,150.400 137.570 M90.987 143.424 C 92.035 144.555,92.590 165.350,91.621 167.161 C 90.859 168.584,89.055 168.800,77.950 168.800 L 67.218 168.800 66.509 167.718 C 65.872 166.746,65.800 165.478,65.800 155.283 L 65.800 143.930 66.744 143.165 C 67.624 142.452,68.456 142.400,78.863 142.400 L 90.038 142.400 90.987 143.424 M212.045 142.806 C 214.082 143.372,213.993 140.717,213.997 201.046 L 214.000 254.692 213.158 255.763 L 212.315 256.834 200.771 256.717 C 190.310 256.611,189.160 256.533,188.514 255.885 C 187.762 255.132,187.354 146.381,188.094 144.089 C 188.256 143.588,188.796 143.015,189.294 142.815 C 190.539 142.315,210.249 142.307,212.045 142.806 M249.450 143.400 C 249.772 143.840,250.308 145.190,250.642 146.400 C 250.976 147.610,251.396 148.960,251.575 149.400 C 251.754 149.840,252.125 150.740,252.399 151.400 C 252.673 152.060,253.127 153.500,253.408 154.600 C 253.688 155.700,254.369 158.040,254.920 159.800 C 257.029 166.530,259.349 174.308,260.031 176.937 C 260.738 179.664,261.028 180.305,261.391 179.942 C 261.643 179.691,263.469 173.652,264.217 170.600 C 264.541 169.280,265.057 167.570,265.365 166.800 C 265.673 166.030,266.225 164.320,266.591 163.000 C 266.957 161.680,267.505 159.970,267.808 159.200 C 268.110 158.430,268.473 157.036,268.614 156.102 C 268.755 155.168,269.022 154.310,269.209 154.195 C 269.395 154.079,269.832 152.954,270.179 151.693 C 272.993 141.473,271.448 142.400,285.668 142.400 C 300.486 142.400,300.967 142.830,296.759 152.311 C 296.342 153.252,296.000 154.304,296.000 154.649 C 296.000 154.994,295.745 155.754,295.434 156.338 C 295.123 156.922,294.463 158.570,293.967 160.000 C 293.471 161.430,292.885 163.050,292.664 163.600 C 292.443 164.150,292.044 165.320,291.777 166.200 C 291.509 167.080,290.801 169.060,290.203 170.600 C 289.605 172.140,288.410 175.536,287.547 178.147 C 286.684 180.758,285.766 183.278,285.508 183.747 C 285.250 184.216,284.016 187.570,282.766 191.200 C 281.516 194.830,279.379 200.950,278.017 204.800 C 276.655 208.650,275.274 212.610,274.950 213.600 C 274.458 215.100,274.372 218.629,274.435 234.800 C 274.516 255.380,274.458 256.076,272.651 256.561 C 271.201 256.950,250.911 256.822,249.846 256.418 C 247.918 255.684,247.800 254.337,247.800 233.000 C 247.800 215.642,247.723 213.194,247.129 211.600 C 246.760 210.610,245.804 208.090,245.004 206.000 C 244.203 203.910,243.029 200.609,242.394 198.665 C 241.759 196.721,241.037 194.886,240.790 194.588 C 240.542 194.289,240.095 193.180,239.796 192.123 C 238.964 189.176,237.213 183.960,236.539 182.419 C 236.207 181.659,235.424 179.499,234.799 177.619 C 233.391 173.380,232.778 171.629,232.341 170.600 C 231.705 169.104,227.143 156.221,225.368 150.911 C 222.387 141.995,221.862 142.364,237.333 142.499 C 248.342 142.595,248.892 142.636,249.450 143.400 M333.600 143.186 L 334.600 143.954 334.713 198.877 C 334.775 229.085,334.732 254.184,334.617 254.652 C 334.158 256.527,332.485 256.800,321.466 256.800 C 310.447 256.800,309.472 256.654,308.977 254.929 C 308.338 252.703,308.787 144.314,309.439 143.300 C 310.279 141.995,331.916 141.893,333.600 143.186 M134.775 153.029 C 131.451 154.790,131.474 154.434,131.792 200.168 C 132.095 243.908,131.827 240.799,135.400 242.060 C 138.214 243.054,142.530 243.032,144.175 242.016 C 146.913 240.323,146.842 241.421,147.073 197.186 C 147.290 155.602,147.310 156.138,145.478 153.852 C 144.386 152.488,136.883 151.911,134.775 153.029 M90.509 177.165 C 91.947 177.712,91.945 177.645,91.869 219.157 L 91.800 256.514 90.670 257.357 C 88.999 258.603,67.807 258.674,66.442 257.438 L 65.600 256.676 65.604 218.638 C 65.609 176.830,65.565 177.951,67.252 177.152 C 68.616 176.506,88.805 176.517,90.509 177.165 M91.740 263.849 C 92.323 264.390,92.800 265.232,92.800 265.719 C 92.800 270.942,97.563 277.082,102.863 278.692 C 106.681 279.852,110.797 280.800,112.026 280.801 C 112.562 280.802,115.070 281.142,117.600 281.558 C 120.130 281.974,123.730 282.432,125.600 282.577 C 127.470 282.721,130.620 283.089,132.600 283.394 C 134.580 283.699,140.610 284.234,146.000 284.583 C 151.390 284.932,158.140 285.405,161.000 285.633 C 183.158 287.399,255.685 285.857,266.118 283.397 C 267.483 283.075,269.770 282.810,271.200 282.807 C 272.630 282.804,275.330 282.547,277.200 282.235 C 279.070 281.924,282.490 281.468,284.800 281.221 C 292.100 280.442,298.713 278.859,300.226 277.527 C 300.680 277.127,301.236 276.800,301.462 276.800 C 303.346 276.800,307.600 269.136,307.600 265.742 C 307.600 265.402,307.957 264.623,308.393 264.010 L 309.185 262.897 321.114 262.831 C 335.561 262.750,334.666 262.394,334.471 268.139 C 334.402 270.153,334.101 272.970,333.800 274.400 C 333.500 275.830,333.139 277.720,332.997 278.600 C 332.292 282.980,326.537 293.122,324.365 293.811 C 324.015 293.922,323.489 294.460,323.196 295.007 C 322.904 295.553,322.439 296.000,322.163 296.000 C 321.887 296.000,321.127 296.450,320.473 297.000 C 319.819 297.550,319.006 298.000,318.666 298.000 C 318.326 298.000,317.943 298.169,317.816 298.374 C 317.688 298.580,316.283 299.131,314.692 299.597 C 313.101 300.064,310.965 300.716,309.945 301.047 C 308.925 301.378,307.035 301.818,305.745 302.026 C 304.455 302.234,302.500 302.597,301.400 302.834 C 300.300 303.070,298.500 303.359,297.400 303.476 C 296.300 303.592,295.310 303.826,295.200 303.994 C 295.090 304.163,293.830 304.409,292.400 304.540 C 289.547 304.803,284.160 305.424,279.800 305.993 C 276.101 306.475,266.440 307.408,256.855 308.207 C 249.504 308.820,245.380 309.070,227.200 310.002 C 222.910 310.222,211.120 310.405,201.000 310.407 C 178.658 310.414,165.391 309.910,143.600 308.227 C 139.530 307.912,135.243 307.646,134.072 307.634 C 132.902 307.623,131.766 307.502,131.547 307.367 C 131.328 307.232,129.495 306.959,127.474 306.760 C 119.505 305.977,109.616 304.722,105.800 304.009 C 104.700 303.803,102.360 303.436,100.600 303.192 C 95.472 302.481,84.953 299.616,81.970 298.118 C 78.149 296.200,73.599 291.879,71.862 288.519 C 71.498 287.816,70.932 287.090,70.604 286.906 C 69.925 286.526,67.200 278.464,67.200 276.834 C 67.200 276.243,67.039 275.589,66.842 275.380 C 66.645 275.171,66.380 273.830,66.252 272.400 C 66.124 270.970,65.865 268.720,65.676 267.400 C 65.373 265.289,65.429 264.867,66.147 263.892 L 66.963 262.783 78.821 262.825 L 90.679 262.866 91.740 263.849 " stroke="none" fill="#05cc04" fill-rule="evenodd"></path><path id="path2" d="M182.800 90.829 C 175.650 90.996,166.965 91.328,163.500 91.566 C 160.035 91.805,154.275 92.186,150.700 92.412 C 141.415 93.002,128.856 94.088,123.099 94.801 C 121.393 95.012,118.513 95.365,116.699 95.585 C 110.224 96.371,104.125 97.289,99.200 98.216 C 94.865 99.033,92.538 99.580,86.600 101.175 C 77.481 103.625,70.263 111.986,67.831 122.919 C 67.451 124.625,67.221 126.242,67.319 126.511 C 67.417 126.780,67.628 126.280,67.787 125.400 C 71.558 104.593,82.128 99.295,128.800 94.821 C 144.018 93.363,147.332 93.101,165.600 91.917 C 176.158 91.232,224.233 91.232,234.800 91.916 C 282.221 94.987,307.558 98.495,317.843 103.415 C 327.047 107.818,333.590 120.394,333.598 133.700 L 333.600 136.000 321.408 136.000 L 309.215 136.000 308.985 134.900 C 306.246 121.810,302.609 119.687,278.000 116.808 C 275.910 116.563,272.888 116.191,271.284 115.982 C 269.680 115.772,267.610 115.622,266.684 115.648 C 265.758 115.675,267.070 115.940,269.600 116.237 C 293.726 119.072,297.560 119.837,301.825 122.669 C 305.217 124.921,307.954 129.997,308.475 135.000 L 308.600 136.200 321.400 136.200 L 334.200 136.200 334.086 133.000 C 333.457 115.339,325.320 103.999,310.600 100.267 C 302.032 98.095,295.791 97.072,277.301 94.805 C 270.293 93.945,260.935 93.136,249.600 92.410 C 245.970 92.178,240.300 91.805,237.000 91.582 C 229.839 91.097,205.927 90.374,200.000 90.463 C 197.690 90.498,189.950 90.663,182.800 90.829 M174.600 112.830 C 164.037 113.140,153.041 113.737,145.800 114.394 C 134.929 115.380,131.637 115.717,129.800 116.031 C 127.233 116.471,130.417 116.271,139.800 115.405 C 174.026 112.245,225.904 112.158,258.400 115.205 C 262.968 115.634,265.036 115.703,264.750 115.417 C 264.532 115.199,257.674 114.605,246.200 113.810 C 226.887 112.474,199.503 112.099,174.600 112.830 M121.200 116.867 C 111.047 118.294,107.104 118.923,105.068 119.443 C 97.686 121.328,93.707 125.158,92.190 131.839 C 91.845 133.357,91.469 134.915,91.354 135.300 C 91.162 135.947,90.218 136.000,78.913 136.000 L 66.680 136.000 66.947 131.600 C 67.279 126.136,67.044 125.942,66.406 131.153 C 65.672 137.139,64.440 136.636,79.257 136.400 L 91.794 136.200 92.259 133.800 C 94.456 122.454,97.528 120.659,120.000 117.587 C 121.650 117.362,124.080 117.024,125.400 116.837 L 127.800 116.497 125.800 116.499 C 124.700 116.501,122.630 116.666,121.200 116.867 M129.800 137.826 C 118.381 139.326,110.176 143.920,107.338 150.400 C 107.097 150.950,106.697 151.903,106.450 152.519 C 105.820 154.085,105.810 240.094,106.440 242.040 C 107.250 244.546,108.096 246.188,109.422 247.831 C 110.825 249.567,115.040 252.694,115.439 252.294 C 115.570 252.163,114.985 251.701,114.139 251.267 C 110.702 249.506,108.075 246.054,106.947 241.817 C 106.128 238.741,106.158 155.944,106.980 152.857 C 109.610 142.974,120.261 138.191,139.600 138.209 C 156.922 138.225,166.646 141.797,170.599 149.597 C 172.407 153.166,172.442 154.185,172.318 199.286 C 172.253 222.763,172.322 241.663,172.472 241.286 C 173.086 239.736,172.835 154.974,172.209 152.570 C 171.155 148.525,168.973 145.634,164.872 142.849 C 158.266 138.363,142.688 136.132,129.800 137.826 M66.800 143.600 C 66.039 144.361,66.000 144.933,66.000 155.400 C 66.000 169.563,64.416 168.000,78.771 168.000 L 89.942 168.000 90.771 166.946 C 91.753 165.697,92.073 146.046,91.140 144.274 C 90.382 142.833,90.210 142.812,78.700 142.806 C 68.129 142.800,67.562 142.838,66.800 143.600 M188.797 143.895 L 187.936 144.989 188.209 199.595 C 188.371 232.018,188.634 254.484,188.855 254.900 C 189.511 256.131,212.107 255.954,212.977 254.711 C 214.022 253.220,213.916 144.410,212.869 143.462 C 212.224 142.879,210.795 142.800,200.898 142.800 L 189.658 142.800 188.797 143.895 M224.662 143.531 C 223.718 144.575,223.820 145.416,225.434 149.855 C 226.222 152.025,227.017 154.250,227.200 154.800 C 227.465 155.597,228.969 159.804,230.617 164.357 C 230.728 164.664,230.911 164.823,231.023 164.710 C 231.211 164.522,230.309 161.875,225.966 149.869 C 223.406 142.790,222.741 143.198,236.831 143.206 C 242.864 143.209,248.027 143.356,248.304 143.532 C 249.129 144.056,256.018 165.650,259.873 179.793 C 260.412 181.769,260.919 183.452,261.000 183.533 C 261.306 183.839,262.000 183.126,262.000 182.505 C 262.000 182.148,262.177 181.304,262.393 180.628 C 262.609 179.953,263.975 175.350,265.429 170.400 C 266.883 165.450,268.584 159.780,269.208 157.800 C 269.832 155.820,270.993 152.132,271.787 149.605 C 274.027 142.484,272.501 143.200,285.436 143.200 C 299.480 143.200,299.057 142.975,296.775 149.238 C 296.101 151.087,294.563 155.390,293.357 158.800 C 292.151 162.210,290.820 165.900,290.399 167.000 C 289.978 168.100,288.161 173.140,286.361 178.200 C 284.561 183.260,282.015 190.370,280.704 194.000 C 279.393 197.630,278.175 201.050,277.996 201.600 C 277.818 202.150,277.104 204.130,276.411 206.000 C 273.386 214.161,273.641 211.709,273.515 233.839 C 273.422 250.108,273.297 254.002,272.851 254.539 C 272.146 255.388,250.517 255.557,249.680 254.720 C 249.320 254.360,249.200 249.307,249.200 234.441 L 249.200 214.642 246.573 207.221 C 245.128 203.139,243.598 198.855,243.173 197.700 C 242.748 196.545,242.040 194.610,241.600 193.400 C 241.160 192.190,240.452 190.255,240.027 189.100 C 239.279 187.067,237.300 181.525,233.381 170.486 C 232.343 167.564,231.414 165.252,231.316 165.350 C 231.129 165.538,233.615 172.741,238.443 186.000 C 238.883 187.210,239.513 189.010,239.842 190.000 C 240.171 190.990,240.602 192.160,240.800 192.600 C 240.998 193.040,241.427 194.210,241.753 195.200 C 242.080 196.190,242.911 198.530,243.600 200.400 C 244.289 202.270,245.120 204.610,245.447 205.600 C 245.773 206.590,246.192 207.760,246.377 208.200 C 248.533 213.320,248.400 211.659,248.406 233.353 C 248.410 248.708,248.530 253.634,248.918 254.400 L 249.423 255.400 261.012 255.510 C 272.427 255.619,272.610 255.608,273.300 254.766 C 273.946 253.978,274.000 252.372,274.000 234.024 L 274.000 214.136 275.028 211.168 C 275.594 209.536,276.217 207.840,276.413 207.400 C 276.609 206.960,277.389 204.800,278.146 202.600 C 278.902 200.400,281.000 194.550,282.806 189.600 C 284.612 184.650,286.683 178.890,287.408 176.800 C 288.133 174.710,289.293 171.470,289.987 169.600 C 290.681 167.730,291.777 164.715,292.424 162.900 C 294.872 156.031,295.999 152.881,297.365 149.092 C 299.719 142.563,300.170 142.800,285.377 142.800 C 274.035 142.800,274.018 142.801,273.442 143.700 C 272.835 144.648,271.733 147.843,269.614 154.800 C 268.910 157.110,267.603 161.340,266.711 164.200 C 265.818 167.060,264.233 172.370,263.187 176.000 C 262.142 179.630,261.192 182.330,261.076 182.000 C 260.960 181.670,260.563 180.320,260.192 179.000 C 259.821 177.680,259.375 176.150,259.201 175.600 C 259.026 175.050,258.492 173.250,258.014 171.600 C 257.536 169.950,256.996 168.150,256.814 167.600 C 256.632 167.050,256.091 165.250,255.612 163.600 C 255.133 161.950,254.142 158.710,253.410 156.400 C 252.678 154.090,251.526 150.387,250.850 148.172 C 249.084 142.381,250.185 142.800,236.730 142.800 C 226.188 142.800,225.274 142.855,224.662 143.531 M309.900 143.357 C 309.006 144.035,308.789 254.229,309.680 255.120 C 310.705 256.145,333.039 255.766,333.777 254.711 C 334.881 253.136,334.708 144.708,333.600 143.600 C 332.583 142.583,311.208 142.364,309.900 143.357 M90.171 143.829 C 91.116 144.773,91.116 166.027,90.171 166.971 C 89.201 167.941,67.959 167.914,67.152 166.942 C 66.350 165.976,66.348 144.827,67.149 143.861 C 67.958 142.886,89.199 142.856,90.171 143.829 M212.311 143.823 L 213.200 144.445 213.200 199.091 C 213.200 249.378,213.147 253.795,212.538 254.469 C 211.487 255.630,189.837 255.591,189.214 254.426 C 188.419 252.940,188.661 144.816,189.462 143.931 C 190.395 142.901,210.855 142.803,212.311 143.823 M332.826 143.614 C 333.785 144.127,334.075 253.765,333.120 254.720 C 332.770 255.070,329.653 255.200,321.600 255.200 C 313.547 255.200,310.430 255.070,310.080 254.720 C 309.223 253.863,309.402 144.882,310.262 143.931 C 311.035 143.077,331.291 142.792,332.826 143.614 M138.100 151.491 C 138.925 151.578,140.275 151.578,141.100 151.491 C 141.925 151.405,141.250 151.334,139.600 151.334 C 137.950 151.334,137.275 151.405,138.100 151.491 M133.783 152.345 C 130.777 154.178,131.014 150.647,130.879 195.600 C 130.812 217.710,130.871 236.755,131.010 237.922 C 131.908 245.456,146.476 246.361,147.436 238.942 C 147.632 237.429,147.622 237.437,146.918 239.367 C 145.109 244.326,134.371 244.783,132.073 240.000 C 131.132 238.043,131.028 156.461,131.963 154.800 C 132.627 153.622,133.708 152.779,135.386 152.130 C 136.285 151.783,136.393 151.653,135.800 151.632 C 135.360 151.616,134.452 151.937,133.783 152.345 M143.800 152.082 C 145.542 152.691,146.686 153.880,147.129 155.542 C 147.407 156.585,147.529 156.738,147.559 156.080 C 147.653 153.987,145.325 151.544,143.320 151.632 C 142.886 151.651,143.077 151.830,143.800 152.082 M66.572 178.187 C 65.482 179.849,65.860 255.140,66.963 256.359 C 67.701 257.175,68.056 257.200,78.680 257.200 L 89.636 257.200 90.618 256.218 L 91.600 255.236 91.594 217.318 C 91.589 187.557,91.479 179.185,91.082 178.400 L 90.577 177.400 78.902 177.294 L 67.226 177.188 66.572 178.187 M90.026 178.014 C 91.178 178.630,91.250 255.370,90.100 256.243 C 89.109 256.995,68.481 257.040,67.459 256.293 C 66.529 255.612,66.248 179.348,67.171 178.235 C 67.807 177.468,88.631 177.267,90.026 178.014 M147.728 233.200 C 147.728 234.630,147.801 235.215,147.889 234.500 C 147.978 233.785,147.978 232.615,147.889 231.900 C 147.801 231.185,147.728 231.770,147.728 233.200 M170.850 244.628 C 169.681 247.304,165.834 251.035,162.628 252.604 C 158.474 254.636,159.277 255.090,167.333 255.264 C 175.145 255.432,174.800 255.149,174.800 261.387 C 174.800 264.843,174.656 266.028,174.147 266.755 L 173.493 267.688 165.047 267.500 C 153.833 267.250,151.651 266.427,149.292 261.559 C 148.823 260.591,148.431 260.095,148.420 260.455 C 148.389 261.477,150.854 264.881,152.353 265.885 C 154.725 267.474,156.303 267.720,165.254 267.896 L 173.908 268.066 174.554 267.144 C 175.064 266.416,175.197 265.207,175.187 261.411 C 175.170 254.713,175.535 255.032,167.684 254.874 C 160.356 254.726,159.907 254.523,163.120 252.810 C 167.516 250.468,172.388 245.053,171.928 243.021 C 171.858 242.709,171.373 243.432,170.850 244.628 M116.220 252.758 C 116.429 252.955,117.918 253.585,119.529 254.160 C 122.268 255.136,123.834 255.525,130.400 256.863 C 132.028 257.194,135.731 257.384,140.308 257.370 L 147.615 257.347 147.972 258.574 C 148.308 259.733,148.330 259.744,148.364 258.776 C 148.434 256.789,147.737 256.452,144.400 256.861 C 137.817 257.667,125.642 256.080,119.404 253.602 C 116.219 252.336,115.598 252.172,116.220 252.758 M318.005 263.600 C 308.990 263.792,308.606 263.832,308.500 264.600 C 307.606 271.113,305.392 275.181,301.455 277.544 C 297.421 279.966,294.048 280.751,280.600 282.402 C 274.716 283.124,272.663 283.499,274.282 283.555 C 276.302 283.626,290.640 281.632,294.399 280.758 C 303.224 278.706,307.518 274.288,308.744 266.000 L 309.010 264.200 321.363 264.094 L 333.717 263.988 333.474 267.894 C 332.402 285.146,325.163 295.183,311.033 299.006 C 309.511 299.418,308.469 299.823,308.718 299.906 C 309.381 300.127,315.867 298.079,318.197 296.913 C 327.499 292.258,332.579 282.629,334.218 266.545 C 334.573 263.059,335.501 263.228,318.005 263.600 M66.356 264.094 C 66.228 265.546,66.506 269.993,66.800 271.208 C 67.010 272.074,67.051 270.974,66.909 268.294 L 66.681 263.988 79.017 264.094 L 91.353 264.200 91.869 266.996 C 93.409 275.340,98.475 279.636,108.800 281.351 C 115.284 282.429,125.515 283.663,126.685 283.510 C 127.328 283.425,126.615 283.233,125.000 283.055 C 121.378 282.656,111.789 281.341,108.202 280.752 C 98.268 279.120,94.008 275.232,92.259 266.200 L 91.794 263.800 79.097 263.694 C 69.093 263.611,66.391 263.696,66.356 264.094 M67.280 273.600 C 67.280 274.150,67.424 275.050,67.600 275.600 L 67.920 276.600 67.920 275.600 C 67.920 275.050,67.776 274.150,67.600 273.600 L 67.280 272.600 67.280 273.600 M68.191 278.000 C 69.309 285.023,75.712 293.633,82.200 296.839 C 86.654 299.040,104.764 303.332,108.879 303.162 C 109.385 303.141,106.830 302.601,103.200 301.963 C 80.387 297.949,74.051 293.858,69.159 279.980 C 68.504 278.121,68.068 277.230,68.191 278.000 M128.000 283.707 C 128.195 283.919,132.628 284.425,141.200 285.214 C 175.089 288.332,226.158 288.335,259.200 285.220 C 269.502 284.248,272.177 283.956,272.349 283.784 C 272.646 283.488,270.421 283.571,266.990 283.984 C 247.822 286.293,212.976 287.490,184.000 286.835 C 161.499 286.327,153.769 285.880,130.600 283.746 C 129.060 283.604,127.890 283.587,128.000 283.707 M305.000 300.467 C 304.120 300.679,300.430 301.364,296.800 301.989 C 293.170 302.614,290.705 303.143,291.321 303.163 C 292.588 303.205,302.649 301.474,306.000 300.637 C 307.210 300.336,307.840 300.087,307.400 300.084 C 306.960 300.082,305.880 300.254,305.000 300.467 M111.400 303.600 C 112.060 303.768,113.230 303.906,114.000 303.907 L 115.400 303.908 113.800 303.577 C 111.645 303.131,109.634 303.151,111.400 303.600 M286.200 303.600 L 284.600 303.886 286.200 303.896 C 287.080 303.901,288.340 303.768,289.000 303.600 L 290.200 303.295 289.000 303.304 C 288.340 303.309,287.080 303.442,286.200 303.600 M118.000 304.399 C 118.990 304.570,121.870 304.920,124.400 305.177 C 126.930 305.434,130.530 305.804,132.400 306.000 C 134.270 306.195,138.320 306.546,141.400 306.779 C 144.480 307.012,149.191 307.382,151.869 307.601 C 154.547 307.821,158.147 307.968,159.869 307.928 C 161.883 307.882,162.287 307.814,161.000 307.739 C 150.071 307.100,139.703 306.256,127.014 304.971 C 117.390 303.996,114.651 303.823,118.000 304.399 M279.400 304.400 L 277.400 304.674 279.200 304.714 C 280.190 304.736,281.720 304.605,282.600 304.423 L 284.200 304.092 282.800 304.109 C 282.030 304.118,280.500 304.249,279.400 304.400 M269.400 305.394 C 266.760 305.672,261.810 306.115,258.400 306.378 C 254.990 306.641,250.220 307.023,247.800 307.227 C 245.380 307.431,242.140 307.629,240.600 307.669 C 238.396 307.725,238.183 307.776,239.600 307.911 C 242.575 308.193,276.592 305.542,277.149 304.984 C 277.438 304.696,274.624 304.844,269.400 305.394 M167.000 308.505 C 171.716 309.031,229.414 309.027,234.200 308.501 C 236.982 308.195,235.665 308.161,228.400 308.353 C 216.271 308.672,182.167 308.672,171.600 308.352 C 165.002 308.153,164.103 308.183,167.000 308.505 " stroke="none" fill="#5fcf5d" fill-rule="evenodd"></path><path id="path3" d="M182.478 90.698 C 184.831 90.769,188.791 90.769,191.278 90.699 C 193.765 90.629,191.840 90.571,187.000 90.570 C 182.160 90.570,180.125 90.628,182.478 90.698 M212.082 90.696 C 213.558 90.773,216.078 90.773,217.682 90.697 C 219.287 90.621,218.080 90.558,215.000 90.558 C 211.920 90.557,210.607 90.619,212.082 90.696 M169.700 91.097 C 171.185 91.174,173.615 91.174,175.100 91.097 C 176.585 91.020,175.370 90.957,172.400 90.957 C 169.430 90.957,168.215 91.020,169.700 91.097 M225.700 91.094 C 226.745 91.176,228.455 91.176,229.500 91.094 C 230.545 91.012,229.690 90.944,227.600 90.944 C 225.510 90.944,224.655 91.012,225.700 91.094 M158.800 91.600 L 155.800 91.856 158.400 91.885 C 159.830 91.900,162.080 91.779,163.400 91.615 L 165.800 91.318 163.800 91.331 C 162.700 91.338,160.450 91.459,158.800 91.600 M235.500 91.482 C 235.995 91.578,236.805 91.578,237.300 91.482 C 237.795 91.387,237.390 91.309,236.400 91.309 C 235.410 91.309,235.005 91.387,235.500 91.482 M239.891 91.889 C 240.601 91.977,241.861 91.979,242.691 91.892 C 243.521 91.805,242.940 91.733,241.400 91.731 C 239.860 91.729,239.181 91.800,239.891 91.889 M150.300 92.282 C 150.795 92.378,151.605 92.378,152.100 92.282 C 152.595 92.187,152.190 92.109,151.200 92.109 C 150.210 92.109,149.805 92.187,150.300 92.282 M144.500 92.691 C 145.325 92.778,146.675 92.778,147.500 92.691 C 148.325 92.605,147.650 92.534,146.000 92.534 C 144.350 92.534,143.675 92.605,144.500 92.691 M253.107 92.690 C 253.826 92.779,254.906 92.777,255.507 92.686 C 256.108 92.595,255.520 92.522,254.200 92.524 C 252.880 92.526,252.388 92.601,253.107 92.690 M259.300 93.076 C 259.685 93.176,260.315 93.176,260.700 93.076 C 261.085 92.975,260.770 92.893,260.000 92.893 C 259.230 92.893,258.915 92.975,259.300 93.076 M133.891 93.489 C 134.601 93.577,135.861 93.579,136.691 93.492 C 137.521 93.405,136.940 93.333,135.400 93.331 C 133.860 93.329,133.181 93.400,133.891 93.489 M263.907 93.490 C 264.626 93.579,265.706 93.577,266.307 93.486 C 266.908 93.395,266.320 93.322,265.000 93.324 C 263.680 93.326,263.188 93.401,263.907 93.490 M126.800 94.000 L 125.000 94.280 126.600 94.300 C 127.480 94.312,129.190 94.184,130.400 94.017 L 132.600 93.713 130.600 93.716 C 129.500 93.718,127.790 93.846,126.800 94.000 M272.100 94.276 C 272.485 94.376,273.115 94.376,273.500 94.276 C 273.885 94.175,273.570 94.093,272.800 94.093 C 272.030 94.093,271.715 94.175,272.100 94.276 M119.305 95.087 C 119.914 95.179,120.814 95.177,121.305 95.082 C 121.797 94.987,121.300 94.911,120.200 94.914 C 119.100 94.917,118.697 94.995,119.305 95.087 M279.305 95.087 C 279.914 95.179,280.814 95.177,281.305 95.082 C 281.797 94.987,281.300 94.911,280.200 94.914 C 279.100 94.917,278.697 94.995,279.305 95.087 M114.200 95.600 L 112.600 95.886 114.000 95.896 C 114.770 95.901,115.940 95.768,116.600 95.600 C 118.228 95.186,116.513 95.186,114.200 95.600 M283.800 95.580 C 285.034 95.915,287.864 96.118,287.567 95.850 C 287.475 95.768,286.320 95.600,285.000 95.477 C 283.422 95.330,283.011 95.365,283.800 95.580 M289.300 96.276 C 289.685 96.376,290.315 96.376,290.700 96.276 C 291.085 96.175,290.770 96.093,290.000 96.093 C 289.230 96.093,288.915 96.175,289.300 96.276 M106.900 96.676 C 107.285 96.776,107.915 96.776,108.300 96.676 C 108.685 96.575,108.370 96.493,107.600 96.493 C 106.830 96.493,106.515 96.575,106.900 96.676 M292.100 96.676 C 292.485 96.776,293.115 96.776,293.500 96.676 C 293.885 96.575,293.570 96.493,292.800 96.493 C 292.030 96.493,291.715 96.575,292.100 96.676 M102.800 97.220 C 102.126 97.449,102.451 97.484,103.800 97.328 C 104.900 97.201,105.875 97.031,105.967 96.949 C 106.282 96.668,103.799 96.880,102.800 97.220 M96.600 98.419 C 96.042 98.671,96.285 98.707,97.400 98.538 C 98.280 98.404,99.075 98.228,99.167 98.147 C 99.510 97.844,97.368 98.071,96.600 98.419 M302.200 98.400 C 303.892 98.831,305.344 98.831,304.000 98.400 C 303.450 98.224,302.550 98.083,302.000 98.087 C 301.102 98.094,301.122 98.126,302.200 98.400 M92.800 99.218 C 92.362 99.515,92.524 99.552,93.400 99.356 C 94.871 99.027,95.190 98.798,94.167 98.806 C 93.745 98.809,93.130 98.995,92.800 99.218 M308.986 99.816 C 310.079 100.116,311.040 100.293,311.124 100.210 C 311.324 100.010,308.369 99.195,307.600 99.238 C 307.270 99.256,307.894 99.517,308.986 99.816 M86.800 100.800 C 85.976 101.064,85.941 101.126,86.600 101.154 C 87.040 101.173,87.670 101.013,88.000 100.800 C 88.701 100.347,88.214 100.347,86.800 100.800 M312.400 100.683 C 314.689 101.523,315.957 101.854,315.779 101.566 C 315.665 101.381,314.903 101.044,314.086 100.817 C 312.550 100.391,311.340 100.295,312.400 100.683 M83.700 101.796 C 82.985 102.107,82.400 102.451,82.400 102.560 C 82.400 102.752,85.228 101.678,85.567 101.358 C 85.916 101.027,84.947 101.254,83.700 101.796 M316.833 102.132 C 317.526 102.683,320.769 104.274,320.582 103.971 C 320.335 103.571,317.440 102.000,316.949 102.000 C 316.794 102.000,316.742 102.060,316.833 102.132 M79.476 104.033 C 76.662 105.897,72.865 110.044,71.360 112.900 C 70.402 114.715,71.025 114.144,72.450 111.900 C 74.257 109.054,77.284 105.886,79.647 104.370 C 81.368 103.265,81.908 102.800,81.469 102.800 C 81.396 102.800,80.500 103.355,79.476 104.033 M323.998 107.115 C 325.491 108.608,327.451 110.993,328.353 112.415 C 330.025 115.051,330.524 115.386,329.345 113.080 C 328.986 112.376,328.059 111.080,327.286 110.200 C 324.497 107.024,321.929 104.400,321.609 104.400 C 321.430 104.400,322.505 105.622,323.998 107.115 M180.200 113.179 C 163.421 113.606,155.355 114.031,156.103 114.449 C 156.458 114.649,158.231 114.622,160.261 114.387 C 169.008 113.373,238.959 113.552,244.410 114.602 C 244.965 114.709,245.192 114.636,244.971 114.422 C 243.974 113.458,201.383 112.640,180.200 113.179 M69.786 115.627 C 69.437 116.302,69.215 117.046,69.294 117.281 C 69.372 117.516,69.728 116.964,70.086 116.054 C 70.850 114.109,70.689 113.881,69.786 115.627 M146.800 114.800 L 144.200 115.062 147.600 115.125 C 149.470 115.159,151.270 115.013,151.600 114.800 C 152.278 114.362,151.147 114.362,146.800 114.800 M249.200 114.794 C 251.492 115.134,256.257 115.313,255.967 115.047 C 255.875 114.964,253.820 114.799,251.400 114.681 C 248.339 114.533,247.670 114.567,249.200 114.794 M137.400 115.600 L 135.000 115.866 138.076 115.933 C 139.773 115.970,141.264 115.821,141.400 115.600 C 141.663 115.174,141.249 115.174,137.400 115.600 M258.812 115.322 C 259.279 115.841,264.524 116.436,264.942 116.018 C 265.233 115.727,264.817 115.599,263.580 115.596 C 262.601 115.593,261.080 115.478,260.200 115.339 C 259.320 115.200,258.695 115.192,258.812 115.322 M129.600 116.400 C 127.186 116.696,127.946 116.960,130.800 116.817 C 131.790 116.768,132.771 116.564,132.980 116.364 C 133.393 115.969,133.092 115.972,129.600 116.400 M267.400 116.302 C 267.986 116.898,272.400 117.364,272.400 116.829 C 272.400 116.593,271.793 116.400,271.050 116.400 C 270.308 116.400,269.093 116.286,268.350 116.147 C 267.436 115.976,267.129 116.026,267.400 116.302 M122.800 117.165 C 121.106 117.346,120.819 117.464,121.553 117.677 C 122.078 117.829,123.518 117.767,124.753 117.540 C 128.676 116.818,127.738 116.638,122.800 117.165 M274.456 117.169 C 275.199 117.646,278.665 117.869,279.068 117.465 C 279.214 117.319,278.808 117.198,278.167 117.196 C 277.525 117.193,276.280 117.091,275.400 116.969 C 274.190 116.802,273.960 116.850,274.456 117.169 M117.000 118.000 C 115.091 118.262,115.137 118.277,118.000 118.331 C 120.065 118.370,120.813 118.267,120.400 118.000 C 120.070 117.787,119.620 117.638,119.400 117.669 C 119.180 117.700,118.100 117.849,117.000 118.000 M280.200 117.978 C 280.954 118.323,285.524 118.572,285.167 118.249 C 285.075 118.166,283.740 117.989,282.200 117.855 C 280.376 117.697,279.679 117.739,280.200 117.978 M68.469 119.087 C 67.658 121.143,66.469 126.965,65.974 131.304 C 65.240 137.733,64.203 137.270,79.020 137.121 C 92.644 136.984,92.177 137.096,92.611 133.880 C 92.766 132.736,93.090 131.440,93.331 131.000 C 93.572 130.560,93.732 130.065,93.685 129.900 C 93.638 129.735,93.780 129.600,94.000 129.600 C 94.220 129.600,94.400 129.150,94.400 128.600 C 94.400 128.050,94.580 127.600,94.800 127.600 C 95.020 127.600,95.200 127.277,95.200 126.881 C 95.200 126.084,97.955 123.200,98.717 123.200 C 98.983 123.200,99.200 123.064,99.200 122.898 C 99.200 122.558,102.141 121.253,103.552 120.967 C 103.856 120.906,104.306 120.650,104.552 120.399 C 105.312 119.626,102.838 120.377,100.369 121.670 C 95.634 124.149,93.514 127.320,92.259 133.800 L 91.794 136.200 79.243 136.400 C 64.456 136.636,65.623 137.094,66.379 131.345 C 66.961 126.909,68.358 120.039,68.875 119.066 C 69.089 118.662,69.184 118.251,69.086 118.153 C 68.988 118.055,68.710 118.475,68.469 119.087 M111.200 118.800 L 109.400 119.080 111.400 119.134 C 112.500 119.163,113.670 119.013,114.000 118.800 C 114.703 118.346,114.123 118.346,111.200 118.800 M286.600 118.789 C 287.353 119.123,291.925 119.367,291.567 119.055 C 291.475 118.975,290.140 118.802,288.600 118.672 C 286.834 118.522,286.095 118.565,286.600 118.789 M331.612 118.905 C 331.605 119.073,331.960 120.509,332.400 122.097 C 332.840 123.685,333.221 125.438,333.246 125.992 C 333.280 126.723,333.345 126.799,333.482 126.269 C 333.678 125.509,332.545 120.253,331.959 119.200 C 331.775 118.870,331.619 118.737,331.612 118.905 M106.200 119.600 C 105.074 119.887,105.105 119.908,106.700 119.953 C 107.635 119.979,108.400 119.820,108.400 119.600 C 108.400 119.153,107.956 119.153,106.200 119.600 M291.981 119.620 C 291.582 119.873,292.014 119.990,293.367 119.994 C 295.524 120.001,295.655 119.839,293.781 119.484 C 293.111 119.357,292.301 119.418,291.981 119.620 M295.600 120.371 C 295.600 120.576,296.590 120.964,297.800 121.235 C 299.010 121.506,300.000 121.879,300.000 122.064 C 300.000 122.249,300.249 122.400,300.554 122.400 C 301.310 122.400,305.121 126.307,305.814 127.794 C 306.648 129.580,307.989 134.068,307.995 135.091 C 308.007 137.119,308.936 137.257,321.746 137.123 C 328.918 137.048,333.718 136.843,333.961 136.600 C 334.227 136.333,330.067 136.200,321.480 136.200 L 308.600 136.200 308.475 135.000 C 307.759 128.124,303.686 122.619,297.848 120.637 C 295.653 119.892,295.600 119.885,295.600 120.371 M334.114 131.400 C 334.117 132.500,334.195 132.903,334.287 132.295 C 334.379 131.686,334.377 130.786,334.282 130.295 C 334.187 129.803,334.111 130.300,334.114 131.400 M137.516 137.097 C 138.899 137.175,141.059 137.174,142.316 137.095 C 143.572 137.016,142.440 136.952,139.800 136.953 C 137.160 136.953,136.132 137.018,137.516 137.097 M131.505 137.483 C 132.002 137.579,132.722 137.575,133.105 137.475 C 133.487 137.375,133.080 137.296,132.200 137.301 C 131.320 137.305,131.007 137.387,131.505 137.483 M146.000 137.410 C 146.330 137.509,147.860 137.762,149.400 137.971 C 150.940 138.180,152.740 138.454,153.400 138.581 C 154.397 138.772,154.344 138.711,153.083 138.221 C 152.249 137.896,150.179 137.540,148.483 137.429 C 146.788 137.319,145.670 137.310,146.000 137.410 M128.100 137.876 C 128.485 137.976,129.115 137.976,129.500 137.876 C 129.885 137.775,129.570 137.693,128.800 137.693 C 128.030 137.693,127.715 137.775,128.100 137.876 M124.200 138.400 L 123.400 138.744 124.200 138.744 C 124.640 138.744,125.360 138.589,125.800 138.400 L 126.600 138.056 125.800 138.056 C 125.360 138.056,124.640 138.211,124.200 138.400 M121.800 139.085 C 121.360 139.191,120.832 139.437,120.627 139.632 C 120.422 139.827,120.851 139.815,121.581 139.605 C 123.643 139.014,123.817 138.600,121.800 139.085 M155.610 138.944 C 155.905 139.238,162.139 141.195,162.292 141.041 C 162.448 140.886,158.254 139.389,156.601 139.010 C 155.941 138.859,155.496 138.829,155.610 138.944 M116.000 141.277 C 113.385 142.555,108.920 146.578,108.011 148.476 C 107.746 149.029,108.016 148.841,108.684 148.007 C 111.474 144.525,115.740 141.417,119.142 140.389 C 119.957 140.142,120.016 140.062,119.400 140.038 C 118.960 140.021,117.430 140.579,116.000 141.277 M164.000 142.154 C 164.000 142.239,164.495 142.627,165.100 143.016 L 166.200 143.724 165.438 142.862 C 164.764 142.099,164.000 141.723,164.000 142.154 M66.889 143.023 C 66.400 143.365,66.000 143.815,66.000 144.023 C 66.000 144.230,66.360 144.040,66.800 143.600 C 67.562 142.838,68.129 142.800,78.700 142.806 C 90.797 142.813,90.603 142.779,91.409 145.040 C 91.883 146.371,91.967 146.447,91.982 145.558 C 91.992 144.986,91.559 144.041,91.019 143.458 L 90.038 142.400 78.908 142.400 C 69.482 142.400,67.642 142.495,66.889 143.023 M195.324 142.699 C 198.362 142.767,203.222 142.767,206.124 142.699 C 209.026 142.631,206.540 142.575,200.600 142.575 C 194.660 142.575,192.286 142.631,195.324 142.699 M231.124 142.699 C 234.273 142.767,239.313 142.767,242.324 142.699 C 245.336 142.631,242.760 142.576,236.600 142.576 C 230.440 142.576,227.976 142.632,231.124 142.699 M278.200 142.682 C 288.181 142.965,297.509 142.974,297.339 142.700 C 297.236 142.535,291.988 142.438,285.676 142.484 C 279.364 142.531,276.000 142.620,278.200 142.682 M309.600 143.000 C 309.043 143.671,309.607 143.833,310.252 143.188 C 310.521 142.919,314.567 142.814,321.895 142.888 C 328.071 142.949,333.041 142.865,332.939 142.700 C 332.544 142.062,310.139 142.350,309.600 143.000 M188.481 143.302 C 188.252 143.578,187.956 144.343,187.823 145.002 C 187.593 146.142,187.602 146.152,188.012 145.208 C 188.249 144.663,188.731 143.898,189.083 143.508 C 189.436 143.119,189.538 142.800,189.311 142.800 C 189.084 142.800,188.710 143.026,188.481 143.302 M248.934 143.527 C 249.295 143.926,249.850 144.961,250.167 145.827 C 250.484 146.692,250.752 147.130,250.763 146.800 C 250.795 145.822,249.279 142.800,248.758 142.800 C 248.447 142.800,248.509 143.058,248.934 143.527 M272.820 143.865 C 272.360 144.451,271.882 145.396,271.759 145.965 C 271.636 146.534,271.352 147.486,271.127 148.080 C 270.903 148.673,270.802 149.393,270.903 149.680 C 271.004 149.966,271.479 148.942,271.960 147.405 C 272.440 145.867,273.100 144.202,273.426 143.705 C 274.241 142.460,273.843 142.566,272.820 143.865 M224.080 143.680 C 223.816 143.944,223.625 144.619,223.654 145.180 L 223.709 146.200 223.893 145.200 C 223.994 144.650,224.261 143.975,224.487 143.700 C 225.011 143.062,224.713 143.047,224.080 143.680 M308.899 145.400 C 308.327 154.667,308.835 254.600,309.457 255.164 C 310.096 255.746,310.115 255.745,309.680 255.161 C 309.317 254.675,309.178 241.244,309.100 199.161 C 309.043 168.712,308.953 144.520,308.899 145.400 M169.243 146.734 C 169.985 147.618,170.657 148.277,170.735 148.198 C 170.962 147.971,169.477 146.125,168.647 145.602 C 168.232 145.340,168.500 145.850,169.243 146.734 M65.772 154.600 C 65.772 159.660,65.829 161.675,65.899 159.077 C 65.969 156.480,65.968 152.340,65.898 149.877 C 65.828 147.415,65.771 149.540,65.772 154.600 M297.705 148.109 C 297.240 149.479,296.396 151.859,295.830 153.398 C 294.620 156.685,294.630 156.627,295.400 155.857 C 295.730 155.527,296.000 154.979,296.000 154.639 C 296.000 154.299,296.342 153.252,296.759 152.311 C 297.649 150.305,298.932 145.999,298.707 145.774 C 298.621 145.688,298.170 146.739,297.705 148.109 M213.600 199.911 C 213.600 249.097,213.543 253.904,212.948 254.753 C 212.315 255.656,212.321 255.670,213.148 255.228 L 214.000 254.772 214.000 200.386 C 214.000 170.474,213.910 146.000,213.800 146.000 C 213.690 146.000,213.600 170.260,213.600 199.911 M334.499 199.811 C 334.411 247.943,334.332 253.919,333.777 254.711 C 333.078 255.709,333.355 255.902,334.230 255.027 C 334.723 254.535,334.788 246.837,334.700 200.127 L 334.597 145.800 334.499 199.811 M224.000 146.604 C 224.000 147.251,227.683 157.803,228.040 158.180 C 228.238 158.389,228.400 158.873,228.400 159.256 C 228.400 159.639,228.568 160.057,228.774 160.184 C 229.225 160.463,228.918 159.405,227.211 154.800 C 226.518 152.930,225.578 150.320,225.121 149.000 C 224.290 146.594,224.000 145.975,224.000 146.604 M91.600 156.546 C 91.600 165.396,91.556 165.948,90.771 166.946 L 89.942 168.000 78.771 168.000 C 68.133 168.000,67.562 167.962,66.800 167.200 C 65.817 166.217,65.728 166.782,66.700 167.839 C 67.714 168.941,89.864 168.639,91.188 167.504 C 91.958 166.844,92.550 147.200,91.800 147.200 C 91.690 147.200,91.600 151.406,91.600 156.546 M171.285 149.800 C 171.619 150.460,172.019 151.693,172.172 152.541 C 172.326 153.388,172.550 153.983,172.671 153.862 C 173.055 153.478,171.954 149.660,171.303 149.120 C 170.735 148.649,170.734 148.713,171.285 149.800 M251.399 150.000 C 251.563 150.550,252.378 153.160,253.211 155.800 C 254.737 160.636,255.547 163.294,257.170 168.800 C 257.657 170.450,258.201 172.250,258.381 172.800 C 258.560 173.350,258.927 174.610,259.196 175.600 C 259.465 176.590,259.846 177.760,260.043 178.200 C 260.634 179.517,260.043 176.512,259.179 173.800 C 258.759 172.480,257.882 169.600,257.230 167.400 C 256.578 165.200,255.566 161.870,254.981 160.000 C 254.396 158.130,253.677 155.700,253.383 154.600 C 252.693 152.016,251.834 149.697,251.424 149.307 C 251.246 149.138,251.235 149.450,251.399 150.000 M270.229 151.429 C 270.081 152.015,270.038 152.572,270.132 152.666 C 270.227 152.760,270.424 152.358,270.571 151.771 C 270.719 151.185,270.762 150.628,270.668 150.534 C 270.573 150.440,270.376 150.842,270.229 151.429 M135.386 152.130 C 133.043 153.036,131.040 155.207,131.999 155.799 C 132.220 155.936,132.400 155.759,132.400 155.406 C 132.400 153.488,134.704 152.401,139.600 152.010 L 143.000 151.738 139.800 151.699 C 138.040 151.678,136.054 151.872,135.386 152.130 M143.407 152.389 C 143.300 152.561,143.750 152.810,144.406 152.941 C 145.167 153.093,145.600 153.426,145.600 153.857 C 145.600 154.229,145.726 154.407,145.881 154.252 C 146.036 154.098,146.391 154.743,146.670 155.686 C 147.371 158.048,147.423 237.459,146.725 237.692 C 146.473 237.776,146.267 238.412,146.267 239.105 C 146.267 239.798,146.117 240.272,145.933 240.159 C 145.750 240.045,145.600 240.219,145.600 240.544 C 145.600 243.802,134.368 243.379,132.782 240.061 C 132.443 239.350,132.057 238.876,131.925 239.008 C 131.463 239.470,132.773 241.412,134.081 242.202 C 136.059 243.398,143.430 243.375,145.069 242.167 C 147.639 240.275,147.563 241.618,147.580 197.400 C 147.596 155.912,147.566 155.113,145.927 153.338 C 145.059 152.397,143.715 151.891,143.407 152.389 M269.292 154.001 C 269.030 154.421,268.719 155.538,268.602 156.483 C 268.394 158.155,268.410 158.138,269.216 155.855 C 270.078 153.410,270.108 152.695,269.292 154.001 M105.695 153.800 C 105.642 154.020,105.564 173.460,105.523 197.000 C 105.444 241.783,105.545 244.800,107.131 244.800 C 107.527 244.800,107.580 244.649,107.307 244.300 C 106.312 243.029,106.204 239.148,106.004 197.600 C 105.887 173.290,105.748 153.580,105.695 153.800 M172.693 197.839 C 172.610 228.316,172.441 241.850,172.130 242.897 C 171.886 243.721,171.846 244.295,172.043 244.174 C 172.239 244.052,172.400 243.639,172.400 243.256 C 172.400 242.873,172.609 242.351,172.865 242.095 C 173.317 241.643,173.438 154.905,172.988 154.455 C 172.890 154.357,172.758 173.880,172.693 197.839 M293.076 161.103 C 292.237 163.466,291.214 166.300,290.800 167.400 C 288.169 174.404,287.180 177.314,287.368 177.501 C 287.485 177.618,287.693 177.374,287.829 176.957 C 288.048 176.290,289.617 172.066,290.935 168.600 C 291.185 167.940,291.393 167.280,291.395 167.133 C 291.398 166.987,291.535 166.732,291.700 166.567 C 291.865 166.402,292.000 165.883,292.000 165.413 C 292.000 164.944,292.151 164.389,292.335 164.180 C 292.850 163.596,294.892 157.674,294.737 157.213 C 294.662 156.989,293.914 158.739,293.076 161.103 M131.200 197.600 C 131.200 219.453,131.316 237.217,131.457 237.076 C 131.753 236.780,131.692 158.359,131.396 158.062 C 131.288 157.955,131.200 175.747,131.200 197.600 M267.686 159.487 C 267.454 160.099,266.963 161.680,266.594 163.000 C 266.226 164.320,265.679 166.030,265.380 166.800 C 264.676 168.605,263.996 171.233,264.034 172.000 C 264.050 172.330,264.218 172.150,264.406 171.600 C 266.852 164.474,269.494 154.718,267.686 159.487 M229.228 161.476 C 229.213 161.958,229.380 162.464,229.600 162.600 C 230.073 162.892,230.073 162.501,229.600 161.400 C 229.269 160.629,229.255 160.631,229.228 161.476 M230.009 163.876 C 230.004 164.358,230.160 164.851,230.355 164.972 C 230.550 165.093,230.826 165.778,230.969 166.496 C 231.208 167.695,233.124 172.098,233.177 171.568 C 233.211 171.226,231.222 165.592,230.575 164.200 C 230.097 163.170,230.017 163.124,230.009 163.876 M187.766 177.600 C 187.766 181.670,187.825 183.335,187.898 181.300 C 187.971 179.265,187.971 175.935,187.898 173.900 C 187.825 171.865,187.766 173.530,187.766 177.600 M233.228 172.676 C 233.213 173.158,233.380 173.664,233.600 173.800 C 234.073 174.092,234.073 173.701,233.600 172.600 C 233.269 171.829,233.255 171.831,233.228 172.676 M262.857 175.342 C 262.386 176.850,261.997 178.290,261.994 178.542 C 261.980 179.594,261.231 180.244,260.776 179.600 C 260.460 179.154,260.421 179.358,260.623 180.400 C 261.101 182.869,261.307 182.622,262.654 177.968 C 264.090 173.011,264.255 170.867,262.857 175.342 M234.002 174.700 C 234.009 175.569,234.887 178.000,235.195 178.000 C 235.391 178.000,235.275 177.190,234.938 176.200 C 234.377 174.552,233.997 173.943,234.002 174.700 M67.861 176.894 C 67.608 177.056,72.515 177.191,78.767 177.194 C 85.018 177.197,90.042 177.108,89.930 176.996 C 89.602 176.669,68.369 176.570,67.861 176.894 M90.938 178.187 C 91.192 178.730,91.462 178.994,91.538 178.774 C 91.734 178.205,91.295 177.200,90.850 177.200 C 90.641 177.200,90.679 177.635,90.938 178.187 M286.683 178.804 C 286.569 179.242,286.619 179.600,286.795 179.600 C 287.265 179.600,287.622 178.461,287.228 178.217 C 287.043 178.103,286.797 178.367,286.683 178.804 M235.625 179.580 C 235.608 180.527,235.729 180.831,236.012 180.548 C 236.285 180.275,236.294 179.809,236.038 179.168 C 235.674 178.258,235.649 178.283,235.625 179.580 M285.439 182.268 C 284.772 184.224,284.837 185.025,285.554 183.687 C 285.784 183.257,285.858 182.792,285.719 182.653 C 285.580 182.514,285.656 182.400,285.887 182.400 C 286.118 182.400,286.393 181.950,286.498 181.400 C 286.821 179.711,286.112 180.292,285.439 182.268 M236.548 182.300 C 237.124 183.415,238.035 186.433,237.907 186.800 C 237.868 186.910,238.121 187.540,238.470 188.200 C 238.818 188.860,239.335 189.895,239.619 190.499 C 239.902 191.104,240.186 191.547,240.250 191.484 C 240.371 191.362,240.010 190.285,238.025 184.838 C 237.351 182.990,236.800 181.415,236.800 181.338 C 236.800 181.262,236.615 181.200,236.390 181.200 C 236.148 181.200,236.213 181.651,236.548 182.300 M91.792 219.200 C 91.792 238.890,91.840 246.945,91.900 237.100 C 91.959 227.255,91.959 211.145,91.900 201.300 C 91.840 191.455,91.792 199.510,91.792 219.200 M65.742 187.800 C 65.741 189.780,65.808 190.640,65.892 189.712 C 65.976 188.784,65.977 187.164,65.895 186.112 C 65.812 185.060,65.743 185.820,65.742 187.800 M283.869 186.578 C 283.528 187.580,283.389 188.400,283.561 188.400 C 283.922 188.400,284.946 185.213,284.673 184.939 C 284.572 184.839,284.211 185.576,283.869 186.578 M281.876 192.090 C 281.306 193.690,280.975 195.135,281.140 195.300 C 281.305 195.465,281.844 194.228,282.337 192.550 C 283.494 188.617,283.214 188.337,281.876 192.090 M187.600 205.311 C 187.600 226.982,188.100 254.800,188.489 254.800 C 188.686 254.800,188.741 254.628,188.611 254.418 C 188.481 254.208,188.373 240.173,188.370 223.231 C 188.367 204.078,188.220 192.336,187.982 192.189 C 187.742 192.041,187.600 196.918,187.600 205.311 M240.000 192.738 C 240.000 193.238,240.159 193.549,240.354 193.428 C 240.549 193.308,240.798 193.612,240.908 194.105 C 241.018 194.597,241.579 196.259,242.154 197.798 C 242.729 199.337,243.200 200.912,243.200 201.298 C 243.200 201.684,243.380 202.000,243.600 202.000 C 243.820 202.000,244.000 202.349,244.000 202.776 C 244.000 203.203,244.180 203.664,244.400 203.800 C 244.620 203.936,244.800 204.399,244.800 204.829 C 244.800 205.259,244.969 205.923,245.176 206.305 C 245.383 206.687,245.645 207.450,245.758 208.000 C 245.872 208.550,246.244 209.360,246.584 209.800 L 247.202 210.600 246.965 209.800 C 246.834 209.360,246.573 208.640,246.384 208.200 C 246.195 207.760,245.773 206.590,245.447 205.600 C 245.120 204.610,244.287 202.270,243.596 200.400 C 242.904 198.530,242.053 196.100,241.704 195.000 C 240.933 192.568,240.000 191.330,240.000 192.738 M65.701 197.000 C 65.705 197.880,65.787 198.193,65.883 197.695 C 65.979 197.198,65.975 196.478,65.875 196.095 C 65.775 195.713,65.696 196.120,65.701 197.000 M280.291 196.375 C 280.151 196.911,280.257 197.076,280.645 196.927 C 281.275 196.686,281.372 196.154,280.845 195.828 C 280.650 195.708,280.401 195.954,280.291 196.375 M279.039 199.868 C 278.182 202.382,278.449 202.455,279.490 199.991 C 279.953 198.896,280.184 198.000,280.003 198.000 C 279.823 198.000,279.389 198.841,279.039 199.868 M277.410 204.700 C 276.994 205.965,276.462 207.254,276.227 207.565 C 275.899 207.999,275.940 208.084,276.400 207.934 C 276.730 207.826,277.057 207.257,277.127 206.669 C 277.196 206.081,277.400 205.600,277.580 205.600 C 277.760 205.600,277.995 205.195,278.102 204.700 C 278.209 204.205,278.430 203.485,278.591 203.100 C 278.753 202.715,278.724 202.400,278.526 202.400 C 278.328 202.400,277.825 203.435,277.410 204.700 M275.912 209.020 C 274.104 211.948,274.000 213.305,274.000 233.997 C 274.000 251.293,273.921 253.935,273.377 254.711 C 273.035 255.200,272.923 255.600,273.129 255.600 C 274.347 255.600,274.506 253.068,274.553 233.010 C 274.589 217.460,274.715 212.726,275.100 212.340 C 275.375 212.065,275.600 211.441,275.600 210.953 C 275.600 210.466,275.807 209.998,276.060 209.913 C 276.313 209.829,276.436 209.508,276.333 209.200 C 276.231 208.892,276.041 208.811,275.912 209.020 M248.081 213.800 C 247.841 216.816,248.048 253.356,248.307 253.821 C 248.468 254.109,248.554 247.472,248.498 239.072 C 248.383 221.793,248.222 212.029,248.081 213.800 M66.140 245.200 C 66.140 247.070,66.209 247.835,66.293 246.900 C 66.377 245.965,66.377 244.435,66.293 243.500 C 66.209 242.565,66.140 243.330,66.140 245.200 M107.600 245.781 C 107.600 246.384,110.388 249.539,111.711 250.432 C 112.698 251.099,112.600 250.939,111.295 249.751 C 110.357 248.898,109.142 247.580,108.595 246.822 C 108.048 246.065,107.600 245.596,107.600 245.781 M66.114 250.600 C 66.117 251.700,66.195 252.103,66.287 251.495 C 66.379 250.886,66.377 249.986,66.282 249.495 C 66.187 249.003,66.111 249.500,66.114 250.600 M163.400 254.404 C 161.681 254.571,162.841 254.688,167.484 254.818 C 175.563 255.045,175.170 254.708,175.187 261.411 C 175.197 265.226,175.065 266.415,174.548 267.153 C 173.915 268.056,173.921 268.070,174.748 267.628 C 176.427 266.729,175.885 255.313,174.131 254.621 C 173.174 254.244,166.457 254.108,163.400 254.404 M65.950 255.224 C 65.785 256.028,65.949 256.346,66.719 256.709 C 67.626 257.137,67.653 257.121,67.090 256.485 C 66.756 256.108,66.410 255.440,66.321 255.000 C 66.183 254.314,66.130 254.346,65.950 255.224 M90.514 256.280 C 90.027 256.786,89.774 257.200,89.952 257.200 C 90.342 257.200,91.798 255.645,91.564 255.477 C 91.474 255.413,91.001 255.774,90.514 256.280 M195.100 255.899 C 197.795 255.968,202.205 255.968,204.900 255.899 C 207.595 255.830,205.390 255.773,200.000 255.773 C 194.610 255.773,192.405 255.830,195.100 255.899 M256.500 255.899 C 259.305 255.968,263.895 255.968,266.700 255.899 C 269.505 255.830,267.210 255.774,261.600 255.774 C 255.990 255.774,253.695 255.830,256.500 255.899 M316.100 255.899 C 319.125 255.967,324.075 255.967,327.100 255.899 C 330.125 255.831,327.650 255.775,321.600 255.775 C 315.550 255.775,313.075 255.831,316.100 255.899 M134.100 257.476 C 134.485 257.576,135.115 257.576,135.500 257.476 C 135.885 257.375,135.570 257.293,134.800 257.293 C 134.030 257.293,133.715 257.375,134.100 257.476 M138.291 257.889 C 139.001 257.977,140.261 257.979,141.091 257.892 C 141.921 257.805,141.340 257.733,139.800 257.731 C 138.260 257.729,137.581 257.800,138.291 257.889 M148.018 260.222 C 147.998 261.159,149.891 264.303,151.016 265.200 C 151.430 265.530,151.176 265.054,150.452 264.143 C 149.728 263.232,148.888 261.792,148.585 260.943 C 148.246 259.993,148.028 259.716,148.018 260.222 M66.605 263.192 C 66.436 263.466,70.432 263.600,78.800 263.600 C 86.246 263.600,91.156 263.453,91.020 263.233 C 90.697 262.710,66.928 262.669,66.605 263.192 M308.709 263.525 C 308.429 263.871,308.394 264.038,308.630 263.896 C 308.867 263.755,314.578 263.607,321.321 263.567 C 328.609 263.524,333.491 263.347,333.356 263.129 C 332.920 262.423,309.294 262.803,308.709 263.525 M92.201 265.800 C 93.074 272.575,96.738 277.390,102.514 279.350 C 104.766 280.115,104.800 280.118,104.800 279.600 C 104.800 279.380,104.386 279.200,103.880 279.200 C 103.374 279.200,102.776 279.016,102.551 278.791 C 102.325 278.565,101.723 278.301,101.213 278.202 C 100.007 277.970,97.602 276.321,97.860 275.903 C 97.970 275.725,97.911 275.630,97.730 275.690 C 96.915 275.962,94.400 272.416,94.400 270.996 C 94.400 270.611,94.214 270.468,93.937 270.639 C 93.621 270.834,93.544 270.657,93.695 270.081 C 93.816 269.617,93.670 268.914,93.370 268.519 C 93.071 268.123,92.817 267.170,92.807 266.400 C 92.796 265.630,92.598 264.730,92.365 264.400 C 92.058 263.963,92.013 264.342,92.201 265.800 M308.060 265.420 C 308.027 266.091,307.800 266.840,307.555 267.085 C 307.310 267.330,307.199 267.771,307.307 268.065 C 307.612 268.892,308.463 266.405,308.279 265.223 C 308.136 264.303,308.114 264.322,308.060 265.420 M66.040 267.633 C 66.062 269.045,66.217 270.650,66.384 271.200 C 66.551 271.750,66.599 270.670,66.490 268.800 C 66.254 264.734,65.984 264.036,66.040 267.633 M334.101 267.800 C 334.105 268.680,334.187 268.993,334.283 268.495 C 334.379 267.998,334.375 267.278,334.275 266.895 C 334.175 266.513,334.096 266.920,334.101 267.800 M163.900 268.298 C 165.715 268.372,168.685 268.372,170.500 268.298 C 172.315 268.223,170.830 268.163,167.200 268.163 C 163.570 268.163,162.085 268.223,163.900 268.298 M306.848 269.726 C 306.601 270.345,306.400 271.020,306.400 271.226 C 306.400 271.432,306.256 271.600,306.080 271.600 C 305.905 271.600,305.532 272.233,305.252 273.006 C 304.973 273.780,304.576 274.309,304.372 274.183 C 304.167 274.056,304.000 274.353,304.000 274.843 C 304.000 275.333,303.891 275.624,303.757 275.491 C 303.624 275.357,303.140 275.597,302.682 276.024 C 302.224 276.451,301.602 276.800,301.301 276.800 C 300.999 276.800,300.840 276.942,300.948 277.115 C 301.055 277.288,300.570 277.660,299.871 277.941 C 299.172 278.222,298.287 278.621,297.905 278.826 C 297.523 279.032,296.848 279.200,296.405 279.200 C 295.962 279.200,295.600 279.383,295.600 279.608 C 295.600 280.760,301.794 277.797,303.995 275.592 C 305.508 274.076,307.762 269.851,307.473 269.074 C 307.375 268.814,307.094 269.107,306.848 269.726 M333.474 272.165 C 333.322 273.246,333.267 274.200,333.352 274.286 C 333.708 274.641,334.241 272.121,334.006 271.200 C 333.796 270.379,333.700 270.552,333.474 272.165 M66.800 273.910 C 66.800 274.813,66.984 275.667,67.209 275.806 C 67.479 275.973,67.528 275.469,67.354 274.329 C 67.003 272.044,66.800 271.890,66.800 273.910 M332.846 275.667 C 332.821 276.034,332.696 276.664,332.570 277.067 C 332.352 277.762,332.363 277.763,332.797 277.087 C 333.048 276.696,333.173 276.066,333.073 275.687 C 332.911 275.068,332.888 275.066,332.846 275.667 M67.600 277.376 C 67.600 277.913,67.747 278.444,67.928 278.555 C 68.108 278.667,68.177 278.227,68.082 277.579 C 67.872 276.149,67.600 276.035,67.600 277.376 M106.200 280.400 C 107.975 280.852,108.879 280.852,108.600 280.400 C 108.464 280.180,107.598 280.021,106.676 280.047 C 105.093 280.092,105.067 280.112,106.200 280.400 M292.000 280.375 C 292.000 280.582,292.669 280.646,293.500 280.518 C 295.577 280.198,295.641 280.000,293.667 280.000 C 292.750 280.000,292.000 280.169,292.000 280.375 M109.233 280.945 C 109.325 281.025,110.660 281.198,112.200 281.328 C 113.966 281.478,114.705 281.435,114.200 281.211 C 113.447 280.877,108.875 280.633,109.233 280.945 M286.400 281.218 C 285.982 281.500,286.590 281.543,288.400 281.359 C 289.830 281.213,291.075 281.028,291.167 280.947 C 291.570 280.591,286.938 280.854,286.400 281.218 M115.200 281.600 C 115.200 281.820,115.695 282.002,116.300 282.004 C 116.905 282.007,118.120 282.091,119.000 282.191 C 120.496 282.361,120.470 282.337,118.600 281.825 C 116.118 281.145,115.200 281.084,115.200 281.600 M279.780 281.978 C 279.571 282.186,276.833 282.483,273.695 282.638 C 269.853 282.828,267.762 283.098,267.295 283.466 C 266.542 284.057,268.663 283.979,274.400 283.205 C 275.830 283.011,278.710 282.647,280.800 282.395 C 286.017 281.766,286.211 281.700,282.980 281.646 C 281.429 281.621,279.989 281.770,279.780 281.978 M123.200 282.778 C 130.662 283.727,133.329 284.004,133.485 283.848 C 133.720 283.614,131.403 283.126,129.422 282.993 C 122.124 282.503,120.633 282.451,123.200 282.778 M329.878 284.605 C 329.512 285.372,329.295 286.000,329.396 286.000 C 329.670 286.000,330.884 283.551,330.701 283.368 C 330.614 283.281,330.244 283.838,329.878 284.605 M135.233 284.144 C 135.325 284.224,136.930 284.385,138.800 284.502 C 140.714 284.622,141.763 284.576,141.200 284.397 C 140.220 284.086,134.906 283.861,135.233 284.144 M259.600 284.409 C 258.794 284.583,259.644 284.623,261.600 284.501 C 263.470 284.385,265.075 284.225,265.167 284.145 C 265.464 283.887,261.042 284.096,259.600 284.409 M144.833 284.952 C 144.925 285.036,146.800 285.205,149.000 285.327 C 151.365 285.459,152.510 285.416,151.800 285.223 C 150.609 284.897,144.514 284.661,144.833 284.952 M249.200 285.200 L 247.400 285.480 249.000 285.497 C 249.880 285.506,251.680 285.379,253.000 285.215 L 255.400 284.918 253.200 284.919 C 251.990 284.920,250.190 285.046,249.200 285.200 M156.600 285.553 C 152.435 286.246,195.520 287.394,212.000 287.028 C 228.596 286.659,244.126 285.965,244.800 285.561 C 245.180 285.333,244.593 285.277,243.200 285.408 C 230.452 286.605,167.399 286.648,159.400 285.464 C 158.740 285.366,157.480 285.406,156.600 285.553 M71.549 287.000 C 71.765 287.440,72.234 288.160,72.593 288.600 L 73.244 289.400 72.851 288.600 C 72.635 288.160,72.166 287.440,71.807 287.000 L 71.156 286.200 71.549 287.000 M74.400 291.000 C 75.146 291.770,75.847 292.400,75.957 292.400 C 76.067 292.400,75.546 291.770,74.800 291.000 C 74.054 290.230,73.353 289.600,73.243 289.600 C 73.133 289.600,73.654 290.230,74.400 291.000 M124.100 305.476 C 124.485 305.576,125.115 305.576,125.500 305.476 C 125.885 305.375,125.570 305.293,124.800 305.293 C 124.030 305.293,123.715 305.375,124.100 305.476 M270.500 305.876 C 270.885 305.976,271.515 305.976,271.900 305.876 C 272.285 305.775,271.970 305.693,271.200 305.693 C 270.430 305.693,270.115 305.775,270.500 305.876 M132.100 306.276 C 132.485 306.376,133.115 306.376,133.500 306.276 C 133.885 306.175,133.570 306.093,132.800 306.093 C 132.030 306.093,131.715 306.175,132.100 306.276 M141.700 307.076 C 142.085 307.176,142.715 307.176,143.100 307.076 C 143.485 306.975,143.170 306.893,142.400 306.893 C 141.630 306.893,141.315 306.975,141.700 307.076 M257.300 307.076 C 257.685 307.176,258.315 307.176,258.700 307.076 C 259.085 306.975,258.770 306.893,258.000 306.893 C 257.230 306.893,256.915 306.975,257.300 307.076 M152.705 307.883 C 153.202 307.979,153.922 307.975,154.305 307.875 C 154.687 307.775,154.280 307.696,153.400 307.701 C 152.520 307.705,152.207 307.787,152.705 307.883 M246.300 307.882 C 246.795 307.978,247.605 307.978,248.100 307.882 C 248.595 307.787,248.190 307.709,247.200 307.709 C 246.210 307.709,245.805 307.787,246.300 307.882 M161.700 308.276 C 162.085 308.376,162.715 308.376,163.100 308.276 C 163.485 308.175,163.170 308.093,162.400 308.093 C 161.630 308.093,161.315 308.175,161.700 308.276 M165.700 308.687 C 166.305 308.778,167.295 308.778,167.900 308.687 C 168.505 308.595,168.010 308.520,166.800 308.520 C 165.590 308.520,165.095 308.595,165.700 308.687 M233.300 308.687 C 233.905 308.778,234.895 308.778,235.500 308.687 C 236.105 308.595,235.610 308.520,234.400 308.520 C 233.190 308.520,232.695 308.595,233.300 308.687 M178.105 309.087 C 178.714 309.179,179.614 309.177,180.105 309.082 C 180.597 308.987,180.100 308.911,179.000 308.914 C 177.900 308.917,177.497 308.995,178.105 309.087 M220.505 309.087 C 221.114 309.179,222.014 309.177,222.505 309.082 C 222.997 308.987,222.500 308.911,221.400 308.914 C 220.300 308.917,219.897 308.995,220.505 309.087 M195.074 309.499 C 198.855 309.565,205.155 309.565,209.074 309.499 C 212.993 309.434,209.900 309.380,202.200 309.380 C 194.500 309.380,191.293 309.434,195.074 309.499 " stroke="none" fill="#32bb30" fill-rule="evenodd"></path><path id="path4" d="M151.600 114.800 C 151.132 115.102,151.243 115.189,152.100 115.194 C 152.705 115.197,153.200 115.020,153.200 114.800 C 153.200 114.294,152.383 114.294,151.600 114.800 M154.500 114.676 C 154.885 114.776,155.515 114.776,155.900 114.676 C 156.285 114.575,155.970 114.493,155.200 114.493 C 154.430 114.493,154.115 114.575,154.500 114.676 M245.800 114.800 C 246.240 114.989,247.140 115.138,247.800 115.132 C 248.970 115.121,248.975 115.112,248.000 114.800 C 246.533 114.330,244.706 114.330,245.800 114.800 M141.442 115.531 C 141.330 115.714,142.264 115.790,143.519 115.701 C 146.755 115.472,147.017 115.268,144.124 115.232 C 142.762 115.214,141.555 115.349,141.442 115.531 M255.100 115.489 C 255.815 115.578,256.985 115.578,257.700 115.489 C 258.415 115.401,257.830 115.328,256.400 115.328 C 254.970 115.328,254.385 115.401,255.100 115.489 M134.105 116.287 C 134.714 116.379,135.614 116.377,136.105 116.282 C 136.597 116.187,136.100 116.111,135.000 116.114 C 133.900 116.117,133.497 116.195,134.105 116.287 M115.105 118.683 C 115.602 118.779,116.322 118.775,116.705 118.675 C 117.087 118.575,116.680 118.496,115.800 118.501 C 114.920 118.505,114.607 118.587,115.105 118.683 M283.905 118.683 C 284.402 118.779,285.122 118.775,285.505 118.675 C 285.887 118.575,285.480 118.496,284.600 118.501 C 283.720 118.505,283.407 118.587,283.905 118.683 M109.105 119.483 C 109.602 119.579,110.322 119.575,110.705 119.475 C 111.087 119.375,110.680 119.296,109.800 119.301 C 108.920 119.305,108.607 119.387,109.105 119.483 M290.305 119.483 C 290.802 119.579,291.522 119.575,291.905 119.475 C 292.287 119.375,291.880 119.296,291.000 119.301 C 290.120 119.305,289.807 119.387,290.305 119.483 M136.262 152.300 C 136.047 152.648,143.152 152.581,143.501 152.233 C 143.629 152.105,142.094 152.000,140.090 152.000 C 138.087 152.000,136.364 152.135,136.262 152.300 M131.724 157.800 C 131.726 159.120,131.801 159.612,131.890 158.893 C 131.979 158.174,131.977 157.094,131.886 156.493 C 131.795 155.892,131.722 156.480,131.724 157.800 M72.900 168.699 C 75.925 168.767,80.875 168.767,83.900 168.699 C 86.925 168.631,84.450 168.575,78.400 168.575 C 72.350 168.575,69.875 168.631,72.900 168.699 M65.701 183.000 C 65.705 183.880,65.787 184.193,65.883 183.695 C 65.979 183.198,65.975 182.478,65.875 182.095 C 65.775 181.713,65.696 182.120,65.701 183.000 M65.724 193.400 C 65.726 194.720,65.801 195.212,65.890 194.493 C 65.979 193.774,65.977 192.694,65.886 192.093 C 65.795 191.492,65.722 192.080,65.724 193.400 M65.790 227.200 C 65.790 243.150,65.839 249.675,65.900 241.700 C 65.960 233.725,65.960 220.675,65.900 212.700 C 65.839 204.725,65.790 211.250,65.790 227.200 M146.920 200.800 C 146.920 202.010,146.995 202.505,147.087 201.900 C 147.178 201.295,147.178 200.305,147.087 199.700 C 146.995 199.095,146.920 199.590,146.920 200.800 M105.309 211.600 C 105.309 212.590,105.387 212.995,105.482 212.500 C 105.578 212.005,105.578 211.195,105.482 210.700 C 105.387 210.205,105.309 210.610,105.309 211.600 M247.463 213.280 C 247.800 215.049,248.000 215.201,248.000 213.690 C 248.000 213.007,247.823 212.338,247.606 212.204 C 247.360 212.052,247.306 212.455,247.463 213.280 M131.720 214.800 C 131.720 216.010,131.795 216.505,131.887 215.900 C 131.978 215.295,131.978 214.305,131.887 213.700 C 131.795 213.095,131.720 213.590,131.720 214.800 M146.971 228.800 C 146.971 233.750,147.028 235.775,147.099 233.300 C 147.169 230.825,147.169 226.775,147.099 224.300 C 147.028 221.825,146.971 223.850,146.971 228.800 M131.773 229.800 C 131.773 235.080,131.830 237.185,131.899 234.477 C 131.968 231.769,131.968 227.449,131.899 224.877 C 131.829 222.305,131.772 224.520,131.773 229.800 M105.357 226.000 C 105.357 228.970,105.420 230.185,105.497 228.700 C 105.574 227.215,105.574 224.785,105.497 223.300 C 105.420 221.815,105.357 223.030,105.357 226.000 M173.344 231.200 C 173.344 233.290,173.412 234.145,173.494 233.100 C 173.576 232.055,173.576 230.345,173.494 229.300 C 173.412 228.255,173.344 229.110,173.344 231.200 M187.777 242.400 C 187.777 248.890,187.832 251.545,187.899 248.300 C 187.966 245.055,187.966 239.745,187.899 236.500 C 187.832 233.255,187.777 235.910,187.777 242.400 M247.714 236.600 C 247.717 237.700,247.795 238.103,247.887 237.495 C 247.979 236.886,247.977 235.986,247.882 235.495 C 247.787 235.003,247.711 235.500,247.714 236.600 M308.544 238.400 C 308.544 240.490,308.612 241.345,308.694 240.300 C 308.776 239.255,308.776 237.545,308.694 236.500 C 308.612 235.455,308.544 236.310,308.544 238.400 M105.301 238.200 C 105.305 239.080,105.387 239.393,105.483 238.895 C 105.579 238.398,105.575 237.678,105.475 237.295 C 105.375 236.913,105.296 237.320,105.301 238.200 M247.759 247.200 C 247.759 250.390,247.821 251.695,247.897 250.100 C 247.973 248.505,247.973 245.895,247.897 244.300 C 247.821 242.705,247.759 244.010,247.759 247.200 M172.446 243.076 C 172.421 243.558,172.220 244.064,172.000 244.200 C 171.780 244.336,171.600 244.782,171.600 245.190 C 171.600 245.599,171.458 245.993,171.283 246.067 C 171.109 246.140,170.448 246.888,169.813 247.730 C 168.607 249.330,164.672 252.334,162.102 253.618 L 160.600 254.368 162.100 254.384 C 162.925 254.393,163.600 254.216,163.600 253.991 C 163.600 253.767,164.095 253.370,164.700 253.110 C 167.602 251.863,173.160 244.712,172.668 242.859 C 172.546 242.400,172.479 242.466,172.446 243.076 M106.800 245.026 C 106.800 246.004,110.712 251.200,111.448 251.200 C 111.752 251.200,112.001 251.335,112.003 251.500 C 112.005 251.665,112.410 251.987,112.903 252.217 C 113.396 252.446,114.520 253.013,115.400 253.477 C 119.271 255.518,125.017 257.209,130.800 258.009 C 134.202 258.480,146.548 258.603,147.244 258.173 C 148.001 257.705,147.085 257.170,145.865 257.368 C 142.000 257.995,138.598 258.011,134.000 257.422 C 126.306 256.438,122.763 255.658,118.478 254.006 C 113.042 251.910,107.600 247.634,107.600 245.459 C 107.600 245.096,107.420 244.800,107.200 244.800 C 106.980 244.800,106.800 244.902,106.800 245.026 M308.548 249.200 C 308.548 251.510,308.614 252.455,308.695 251.300 C 308.776 250.145,308.776 248.255,308.695 247.100 C 308.614 245.945,308.548 246.890,308.548 249.200 M273.823 254.727 C 273.442 255.927,272.635 255.999,260.667 255.896 C 250.169 255.805,249.502 255.756,248.967 255.024 C 248.655 254.596,248.400 254.427,248.400 254.647 C 248.400 256.494,248.968 256.594,260.267 256.722 C 272.595 256.863,273.293 256.793,273.954 255.342 C 274.216 254.767,274.350 254.216,274.251 254.118 C 274.153 254.020,273.961 254.294,273.823 254.727 M188.098 255.300 C 188.700 257.123,211.485 257.701,213.038 255.932 C 213.790 255.076,213.789 255.069,213.000 255.432 C 211.699 256.030,189.102 255.906,188.900 255.300 C 188.808 255.025,188.553 254.800,188.333 254.800 C 188.113 254.800,188.008 255.025,188.098 255.300 M91.000 256.271 L 90.200 257.205 78.841 257.223 C 71.403 257.235,67.336 257.096,67.061 256.821 C 66.829 256.589,66.366 256.400,66.031 256.400 C 65.570 256.400,65.639 256.617,66.313 257.291 C 67.324 258.302,86.712 258.881,89.452 257.981 C 90.794 257.540,92.172 256.273,91.941 255.691 C 91.863 255.496,91.440 255.757,91.000 256.271 M309.200 255.631 C 309.200 256.809,332.011 257.351,333.161 256.200 C 333.428 255.933,329.886 255.841,322.537 255.924 C 315.825 255.999,311.060 255.890,310.356 255.645 C 309.616 255.387,309.200 255.382,309.200 255.631 M147.641 259.772 C 147.588 260.771,148.466 263.200,148.880 263.200 C 149.056 263.200,149.200 263.436,149.200 263.724 C 149.200 264.426,151.470 266.712,152.903 267.453 C 156.599 269.364,173.144 270.033,174.638 268.332 C 175.390 267.476,175.389 267.469,174.600 267.827 C 172.382 268.831,156.810 268.273,154.058 267.090 C 151.225 265.872,148.623 262.946,147.982 260.257 C 147.815 259.560,147.664 259.344,147.641 259.772 M175.709 264.400 C 175.709 265.390,175.787 265.795,175.882 265.300 C 175.978 264.805,175.978 263.995,175.882 263.500 C 175.787 263.005,175.709 263.410,175.709 264.400 M65.486 264.700 C 65.397 264.865,65.451 265.990,65.606 267.200 L 65.887 269.400 65.944 266.900 C 65.996 264.564,65.874 263.978,65.486 264.700 M334.101 270.600 C 334.105 271.480,334.187 271.793,334.283 271.295 C 334.379 270.798,334.375 270.078,334.275 269.695 C 334.175 269.313,334.096 269.720,334.101 270.600 M66.509 273.600 C 66.509 274.590,66.587 274.995,66.682 274.500 C 66.778 274.005,66.778 273.195,66.682 272.700 C 66.587 272.205,66.509 272.610,66.509 273.600 M333.449 274.215 C 333.312 274.573,333.215 275.166,333.234 275.533 C 333.253 275.900,333.427 275.669,333.621 275.020 C 333.998 273.758,333.865 273.133,333.449 274.215 M67.446 277.929 C 67.622 280.001,68.368 281.627,68.388 279.980 C 68.395 279.419,68.234 278.789,68.031 278.580 C 67.828 278.371,67.580 277.750,67.481 277.200 C 67.381 276.650,67.366 276.978,67.446 277.929 M332.636 277.800 C 332.476 278.460,332.177 279.413,331.972 279.919 C 331.768 280.424,331.600 281.189,331.600 281.619 C 331.600 282.048,331.443 282.400,331.250 282.400 C 331.058 282.400,330.798 282.895,330.673 283.500 C 329.917 287.168,323.309 294.520,318.600 296.932 C 315.477 298.532,312.856 299.324,303.900 301.372 C 299.958 302.273,293.201 303.306,284.000 304.414 C 282.130 304.639,279.250 304.999,277.600 305.214 C 271.636 305.988,250.047 307.775,241.800 308.176 C 240.040 308.262,233.920 308.572,228.200 308.866 C 203.491 310.135,166.357 309.158,134.800 306.410 C 132.270 306.190,128.850 305.903,127.200 305.773 C 125.550 305.642,123.570 305.371,122.800 305.170 C 122.030 304.969,120.559 304.803,119.531 304.802 C 118.502 304.801,116.792 304.628,115.731 304.418 C 114.669 304.208,112.180 303.829,110.200 303.575 C 100.327 302.312,91.885 300.589,85.600 298.554 C 83.587 297.902,82.729 297.504,79.959 295.938 C 76.152 293.785,70.645 286.679,69.033 281.843 C 68.895 281.426,68.679 281.188,68.554 281.313 C 68.306 281.561,69.169 284.368,69.682 284.980 C 69.857 285.189,70.000 285.665,70.000 286.037 C 70.000 286.410,70.261 286.814,70.579 286.937 C 70.898 287.059,71.465 287.753,71.841 288.479 C 73.599 291.879,78.128 296.190,81.970 298.118 C 84.953 299.616,95.472 302.481,100.600 303.192 C 102.360 303.436,104.700 303.803,105.800 304.009 C 109.616 304.722,119.505 305.977,127.474 306.760 C 129.495 306.959,131.328 307.232,131.547 307.367 C 131.766 307.502,132.902 307.623,134.072 307.634 C 135.243 307.646,139.530 307.912,143.600 308.227 C 155.318 309.132,161.215 309.485,173.400 310.014 C 185.221 310.526,217.112 310.520,227.200 310.002 C 245.399 309.069,249.505 308.820,256.855 308.205 C 266.331 307.411,276.052 306.473,279.800 305.989 C 284.325 305.405,289.608 304.798,292.400 304.540 C 293.830 304.409,295.090 304.163,295.200 303.994 C 295.310 303.826,296.300 303.592,297.400 303.476 C 298.500 303.359,300.300 303.070,301.400 302.834 C 302.500 302.597,304.455 302.234,305.745 302.026 C 307.035 301.818,308.925 301.378,309.945 301.047 C 310.965 300.716,313.101 300.064,314.692 299.597 C 316.283 299.131,317.688 298.580,317.816 298.374 C 317.943 298.169,318.326 298.000,318.666 298.000 C 319.006 298.000,319.819 297.550,320.473 297.000 C 321.127 296.450,321.887 296.000,322.163 296.000 C 322.439 296.000,322.904 295.553,323.196 295.007 C 323.489 294.460,324.015 293.922,324.365 293.811 C 326.886 293.011,333.741 280.047,333.094 277.303 C 332.977 276.808,332.842 276.955,332.636 277.800 M105.300 279.876 C 105.685 279.976,106.315 279.976,106.700 279.876 C 107.085 279.775,106.770 279.693,106.000 279.693 C 105.230 279.693,104.915 279.775,105.300 279.876 M290.800 280.400 L 289.800 280.720 290.900 280.760 C 291.505 280.782,292.000 280.620,292.000 280.400 C 292.000 280.180,291.955 280.018,291.900 280.040 C 291.845 280.062,291.350 280.224,290.800 280.400 M278.200 282.000 L 277.000 282.305 278.276 282.353 C 278.978 282.379,279.664 282.220,279.800 282.000 C 280.074 281.557,279.940 281.557,278.200 282.000 M265.200 283.600 C 264.245 283.906,264.257 283.922,265.476 283.960 C 266.178 283.982,266.864 283.820,267.000 283.600 C 267.284 283.140,266.636 283.140,265.200 283.600 M142.905 284.687 C 143.514 284.779,144.414 284.777,144.905 284.682 C 145.397 284.587,144.900 284.511,143.800 284.514 C 142.700 284.517,142.297 284.595,142.905 284.687 M255.107 284.690 C 255.826 284.779,256.906 284.777,257.507 284.686 C 258.108 284.595,257.520 284.522,256.200 284.524 C 254.880 284.526,254.388 284.601,255.107 284.690 M153.891 285.489 C 154.601 285.577,155.861 285.579,156.691 285.492 C 157.521 285.405,156.940 285.333,155.400 285.331 C 153.860 285.329,153.181 285.400,153.891 285.489 M245.700 285.476 C 246.085 285.576,246.715 285.576,247.100 285.476 C 247.485 285.375,247.170 285.293,246.400 285.293 C 245.630 285.293,245.315 285.375,245.700 285.476 " stroke="none" fill="#169f14" fill-rule="evenodd"></path></g></svg>