<?xml version="1.0" encoding="utf-8"?>
<!-- Generator: Adobe Illustrator 25.2.1, SVG Export Plug-In . SVG Version: 6.00 Build 0)  -->
<svg version="1.1" id="Layer_1" xmlns="http://www.w3.org/2000/svg" xmlns:xlink="http://www.w3.org/1999/xlink" x="0px" y="0px"
	 viewBox="0 0 923.3 923.1" style="enable-background:new 0 0 923.3 923.1;" xml:space="preserve">
<style type="text/css">
	.st0{fill:#000083;}
	.st1{fill:url(#SVGID_1_);}
	.st2{fill:url(#path69_1_);}
	.st3{fill:url(#path77_1_);}
	.st4{fill:url(#path968_1_);}
	.st5{fill:#FFFFFF;}
</style>
<g id="g1006" transform="matrix(0.26296827,0,0,0.26296827,-799.54693,61.582129)">
	<g id="g35" transform="matrix(12.509277,0,0,12.509277,438.06846,8.29825)">
		<path id="path33" class="st0" d="M208,198.3h10.8V250h18.5v10.2h-29.2L208,198.3"/>
	</g>
	<g id="g41" transform="matrix(12.509277,0,0,12.509277,438.06846,8.29825)">
		<path id="path39" class="st0" d="M262.2,213.8c5.7-0.1,11.1,2.5,14.6,7v-6.1h10v45.6h-10v-6.1c-3.5,4.5-8.9,7.1-14.6,7
			c-12.5,0-22-10.7-22-23.7C240.2,224.4,249.7,213.8,262.2,213.8 M264,222.9c-8.1,0-13.5,6.4-13.5,14.6c0,8.2,5.5,14.6,13.5,14.6
			c8,0,13.5-6.4,13.5-14.6C277.5,229.3,272.2,222.9,264,222.9"/>
	</g>
	<g id="g47" transform="matrix(12.509277,0,0,12.509277,438.06846,8.29825)">
		<path id="path45" class="st0" d="M294.7,252.4l23.9-28.6H295v-9.1h36.5v8l-23.8,28.5h24.4v9.1h-37.4L294.7,252.4"/>
	</g>
	<g id="g53" transform="matrix(12.509277,0,0,12.509277,438.06846,8.29825)">
		<path id="path51" class="st0" d="M357.6,213.8c5.7-0.1,11.1,2.5,14.6,7v-6.1h10v45.6h-10v-6.1c-3.5,4.5-8.9,7.1-14.6,7
			c-12.5,0-22-10.7-22-23.7C335.6,224.4,345.1,213.8,357.6,213.8 M359.4,222.9c-8.1,0-13.5,6.4-13.5,14.6c0,8.2,5.5,14.6,13.5,14.6
			c8,0,13.5-6.4,13.5-14.6C372.9,229.3,367.5,222.9,359.4,222.9"/>
	</g>
	<g id="g59" transform="matrix(12.509277,0,0,12.509277,438.06846,8.29825)">
		<path id="path57" class="st0" d="M410.9,213.8c5.7-0.1,11.1,2.5,14.6,7v-26.2h10v65.7h-10v-6.1c-3.5,4.5-8.9,7.1-14.6,7
			c-12.5,0-22-10.7-22-23.7C388.9,224.4,398.4,213.8,410.9,213.8 M412.7,222.9c-8.1,0-13.5,6.4-13.5,14.6c0,8.2,5.5,14.6,13.5,14.6
			c8,0,13.5-6.4,13.5-14.6C426.2,229.3,420.8,222.9,412.7,222.9"/>
	</g>
	<g id="g65" transform="matrix(12.509277,0,0,12.509277,438.06846,8.29825)">
		<path id="path63" class="st0" d="M464.1,213.8c5.7-0.1,11.1,2.5,14.6,7v-6.1h10v45.6h-10v-6.1c-3.5,4.5-8.9,7.1-14.6,7
			c-12.5,0-22-10.7-22-23.7C442.1,224.4,451.6,213.8,464.1,213.8 M466,222.9c-8.1,0-13.5,6.4-13.5,14.6c0,8.2,5.5,14.6,13.5,14.6
			c8,0,13.5-6.4,13.5-14.6C479.5,229.3,474.1,222.9,466,222.9"/>
	</g>
</g>
<g>
	
		<linearGradient id="SVGID_1_" gradientUnits="userSpaceOnUse" x1="429.1126" y1="1453.5476" x2="437.1791" y2="364.5722" gradientTransform="matrix(1 0 0 -1 0 919.89)">
		<stop  offset="0.3379" style="stop-color:#5B8BEB"/>
		<stop  offset="0.7794" style="stop-color:#2742A2"/>
		<stop  offset="1" style="stop-color:#112283"/>
	</linearGradient>
	<rect x="123.2" y="0" class="st1" width="624.3" height="624.3"/>
	<g id="g942" transform="matrix(1.3719271,0,0,1.3719271,169.4857,-38.493576)">
		<g id="g71" transform="matrix(3.3097462,0,0,3.3097462,-688.02908,65.088537)">
			
				<linearGradient id="path69_1_" gradientUnits="userSpaceOnUse" x1="246.0623" y1="139.3062" x2="335.6978" y2="138.6118" gradientTransform="matrix(25.2905 0 0 25.2905 -6011.5132 -3462.1619)">
				<stop  offset="9.999999e-08" style="stop-color:#FFB900"/>
				<stop  offset="0.3376" style="stop-color:#F38000"/>
				<stop  offset="0.5673" style="stop-color:#F83C72"/>
				<stop  offset="0.78" style="stop-color:#FC1CBE"/>
				<stop  offset="0.93" style="stop-color:#FE08ED"/>
				<stop  offset="1" style="stop-color:#FF00FF"/>
			</linearGradient>
			<path id="path69" class="st2" d="M266.7,105.7c-0.8,0-1.6-0.2-2.2-0.6c-5.9-3.4-49.4-30.7-51-31.5c-1.2-0.6-2.1-1.8-2.2-3.2V32.2
				c0-1.4,0.7-2.8,1.9-3.6l0.3-0.2c4.2-2.6,18.3-11.2,20.5-12.4c0.5-0.3,1.1-0.5,1.7-0.5c0.6,0,1.1,0.2,1.6,0.4
				c0,0,19.7,12.8,22.7,14c2.1,1,4.4,1.5,6.8,1.4c2.6,0.1,5.2-0.6,7.6-1.8c3-1.6,21.8-13.5,22-13.5c0.5-0.3,1-0.4,1.6-0.4
				c0.6,0,1.2,0.2,1.7,0.5c2.6,1.4,20,12.1,20.8,12.6c1.2,0.7,2,2.1,2,3.5v38.2c-0.1,1.4-1,2.6-2.2,3.2c-1.6,0.9-45,28.2-51,31.5
				C268.3,105.5,267.5,105.7,266.7,105.7"/>
		</g>
		<g id="g79" transform="matrix(3.3097462,0,0,3.3097462,-688.02908,65.088537)">
			
				<linearGradient id="path77_1_" gradientUnits="userSpaceOnUse" x1="247.2839" y1="140.7288" x2="338.6712" y2="90.1284" gradientTransform="matrix(25.2905 0 0 25.2905 -6011.5132 -3462.1619)">
				<stop  offset="0" style="stop-color:#EE0A3F"/>
				<stop  offset="1" style="stop-color:#EE0A3F;stop-opacity:0"/>
			</linearGradient>
			<path id="path77" class="st3" d="M266.5,105.7h0.2c0.8,0,1.6-0.2,2.2-0.6c5.9-3.4,49.3-30.7,51-31.5c1.3-0.6,2.1-1.8,2.2-3.2
				V32.2c0-0.7-0.1-1.3-0.4-1.9l-55.3,30.4L266.5,105.7"/>
		</g>
		<g id="g970" transform="matrix(-3.2744849,0,0,3.2744849,-467.18522,65.934126)">
			
				<linearGradient id="path968_1_" gradientUnits="userSpaceOnUse" x1="-96.1666" y1="140.2698" x2="-51.53" y2="104.3126" gradientTransform="matrix(24.7547 0 0 24.7547 2202.4409 -3407.1892)">
				<stop  offset="0" style="stop-color:#ED6600"/>
				<stop  offset="1" style="stop-color:#F98200"/>
			</linearGradient>
			<path id="path968" class="st4" d="M-201.8,106h0.2c0.8,0,1.6-0.2,2.2-0.6c5.9-3.4,49.3-30.7,51-31.5c1.3-0.6,2.1-1.8,2.2-3.2
				V32.6c0-0.7-0.1-1.3-0.4-1.9l-55.3,30.4V106"/>
		</g>
	</g>
	<g>
		<g id="g35_1_" transform="matrix(12.509277,0,0,12.509277,438.06846,8.29825)">
			<path id="path33_1_" class="st5" d="M-9.9,19.6h1.8v8.8h3.2v1.7h-5L-9.9,19.6"/>
		</g>
		<g id="g41_1_" transform="matrix(12.509277,0,0,12.509277,438.06846,8.29825)">
			<path id="path39_1_" class="st5" d="M-0.7,22.3c1,0,1.9,0.4,2.5,1.2v-1h1.7v7.8H1.8v-1c-0.6,0.8-1.5,1.2-2.5,1.2
				c-2.1,0-3.7-1.8-3.7-4C-4.4,24.1-2.8,22.3-0.7,22.3 M-0.4,23.8c-1.4,0-2.3,1.1-2.3,2.5s0.9,2.5,2.3,2.5s2.3-1.1,2.3-2.5
				S1,23.8-0.4,23.8"/>
		</g>
		<g id="g47_1_" transform="matrix(12.509277,0,0,12.509277,438.06846,8.29825)">
			<path id="path45_1_" class="st5" d="M4.8,28.9L8.9,24h-4v-1.5h6.2v1.4l-4,4.8h4.1v1.5H4.8L4.8,28.9"/>
		</g>
	</g>
</g>
</svg>
