<?xml version="1.0" standalone="no"?>
<!DOCTYPE svg PUBLIC "-//W3C//DTD SVG 20010904//EN"
 "http://www.w3.org/TR/2001/REC-SVG-20010904/DTD/svg10.dtd">
<svg version="1.0" xmlns="http://www.w3.org/2000/svg"
 width="460.000000pt" height="460.000000pt" viewBox="0 0 460.000000 460.000000"
 preserveAspectRatio="xMidYMid meet">

<g transform="translate(0.000000,460.000000) scale(0.100000,-0.100000)"
fill="#000000" stroke="none">
<path d="M1960 4009 c-26 -11 -60 -38 -60 -49 0 -3 15 -4 33 -2 108 13 259
-88 462 -309 51 -55 175 -219 242 -319 20 -30 61 -105 91 -167 62 -130 82
-222 65 -298 -6 -25 -7 -45 -4 -45 4 0 23 17 43 38 67 69 85 203 49 372 -18
86 -83 243 -130 314 -14 21 -36 54 -48 74 -29 48 -185 207 -233 237 -21 13
-41 29 -45 35 -9 15 -180 99 -234 116 -53 16 -194 18 -231 3z"/>
<path d="M2797 3943 c-15 -4 -10 -9 20 -24 87 -43 211 -310 238 -514 4 -27 14
-88 23 -135 12 -62 16 -144 17 -305 0 -199 -2 -227 -22 -294 -24 -80 -58 -138
-85 -147 -32 -10 -20 -26 13 -19 112 25 187 103 250 261 46 116 59 192 59 345
0 180 -11 241 -85 446 -85 239 -288 422 -428 386z"/>
<path d="M1405 3730 c-22 -4 -60 -16 -85 -25 -25 -9 -60 -21 -78 -27 -37 -13
-132 -108 -132 -133 0 -13 9 -11 48 12 45 27 52 28 167 26 94 -1 139 -7 210
-27 155 -43 259 -76 295 -92 19 -9 55 -25 80 -36 50 -22 144 -69 218 -108 111
-59 234 -156 284 -224 12 -16 27 -52 34 -80 l12 -51 12 30 c28 66 25 119 -11
205 -68 162 -212 300 -427 409 -94 48 -125 59 -292 103 -84 22 -272 32 -335
18z"/>
<path d="M3543 3469 c9 -13 22 -35 29 -49 17 -37 22 -158 9 -250 -11 -80 -87
-346 -117 -412 -9 -18 -25 -53 -36 -78 -22 -48 -43 -90 -92 -185 -99 -191
-247 -344 -333 -345 -35 0 -27 -17 13 -30 82 -28 223 17 329 105 57 47 155
145 155 155 0 4 14 24 30 45 26 33 45 65 117 207 8 15 23 60 34 100 12 40 27
96 35 123 8 28 18 105 21 173 6 134 -7 215 -52 315 -25 56 -95 130 -135 142
-24 8 -24 7 -7 -16z"/>
<path d="M1285 3295 c-105 -20 -277 -79 -353 -121 -181 -101 -282 -228 -282
-353 0 -29 20 -46 20 -18 1 38 125 127 230 165 193 69 204 72 435 109 159 25
463 25 565 -1 94 -23 135 -43 166 -79 l24 -29 0 28 c0 60 -50 131 -138 193
-54 38 -202 93 -296 110 -80 15 -285 12 -371 -4z"/>
<path d="M1380 2875 c-77 -13 -225 -74 -309 -126 -25 -16 -59 -37 -75 -47 -58
-34 -213 -183 -245 -235 -12 -21 -26 -37 -31 -37 -12 0 -115 -207 -130 -262
-19 -71 -10 -210 16 -244 30 -41 40 -39 36 4 -9 98 73 230 253 405 40 39 161
142 210 179 63 47 107 78 126 88 13 7 54 32 90 56 37 24 72 44 79 44 6 0 30
11 53 24 98 57 260 85 320 55 12 -6 -1 12 -28 39 -45 44 -58 50 -116 61 -81
14 -152 13 -249 -4z"/>
<path d="M3958 2670 c9 -95 -58 -210 -218 -371 -74 -74 -253 -229 -266 -229
-3 0 -29 -18 -56 -40 -28 -22 -55 -40 -61 -40 -6 0 -20 -9 -31 -19 -31 -29
-228 -128 -291 -147 -36 -10 -83 -14 -134 -12 -87 3 -90 -1 -38 -50 53 -50
217 -67 368 -38 93 18 238 82 344 151 85 56 245 208 307 293 21 27 59 96 85
153 43 94 48 112 51 192 4 96 -14 169 -47 186 -14 8 -16 4 -13 -29z"/>
<path d="M1460 2483 c-8 -3 -38 -17 -67 -29 -28 -13 -56 -24 -60 -24 -20 0
-223 -184 -223 -202 0 -3 -16 -27 -35 -52 -48 -63 -133 -229 -152 -296 -8 -30
-24 -86 -35 -125 -25 -92 -35 -293 -18 -366 18 -77 61 -181 86 -207 31 -33 86
-72 101 -72 9 0 4 14 -14 42 -27 40 -28 45 -27 172 1 108 6 147 27 221 53 185
76 252 110 325 19 41 38 86 42 99 4 13 20 45 36 70 16 25 36 61 45 80 26 58
114 183 163 234 59 61 95 83 150 92 l45 7 -28 15 c-31 16 -122 26 -146 16z"/>
<path d="M1535 2071 c-90 -41 -179 -186 -224 -362 -26 -103 -29 -328 -6 -438
22 -105 82 -279 116 -334 16 -27 29 -52 29 -57 0 -17 113 -140 160 -174 50
-36 144 -62 181 -51 20 7 19 8 -11 23 -17 8 -39 27 -48 41 -9 14 -22 31 -28
36 -16 14 -60 101 -79 155 -47 133 -64 191 -73 245 -6 33 -19 105 -29 160 -25
139 -26 516 -1 590 9 28 19 62 22 77 4 15 23 46 45 68 38 40 38 40 12 40 -14
0 -44 -9 -66 -19z"/>
<path d="M3926 1787 c-3 -14 -25 -41 -49 -60 -49 -40 -152 -97 -176 -97 -10 0
-21 -4 -26 -9 -15 -14 -205 -69 -260 -76 -27 -4 -86 -13 -130 -21 -127 -22
-327 -33 -447 -23 -147 12 -242 41 -290 89 -35 35 -38 36 -38 15 0 -98 102
-195 275 -262 109 -43 175 -53 335 -53 159 0 300 23 370 59 8 5 40 15 70 24
30 9 77 30 103 47 26 16 52 30 57 30 18 0 138 110 173 159 40 55 66 156 49
186 -8 15 -10 14 -16 -8z"/>
<path d="M1776 1743 c-30 -28 -42 -49 -53 -92 -24 -104 -12 -268 27 -376 36
-100 124 -265 140 -265 4 0 10 -10 14 -22 5 -24 208 -238 224 -238 4 0 23 -13
40 -29 39 -34 205 -116 267 -132 24 -6 81 -10 127 -8 67 3 89 8 116 27 42 30
41 38 -6 34 -95 -9 -215 62 -382 228 -67 67 -220 245 -220 256 0 3 -18 29 -40
56 -22 28 -40 55 -40 60 0 5 -11 24 -24 41 -33 43 -120 219 -141 284 -12 37
-16 76 -13 133 2 44 3 80 3 80 0 0 -18 -17 -39 -37z"/>
<path d="M2126 1588 c-25 -58 -20 -108 20 -199 50 -114 112 -186 266 -310 18
-15 80 -51 138 -82 95 -50 140 -67 305 -114 73 -21 284 -29 353 -13 77 17 183
60 210 86 33 31 72 86 72 101 0 9 -14 4 -42 -14 -34 -23 -55 -29 -119 -32
-109 -4 -227 13 -354 54 -59 19 -113 35 -119 35 -11 0 -204 82 -251 107 -16 9
-61 32 -100 52 -99 51 -179 107 -253 176 -69 64 -87 92 -101 152 l-8 38 -17
-37z"/>
</g>
</svg>
