<svg id="svg" version="1.1" xmlns="http://www.w3.org/2000/svg" xmlns:xlink="http://www.w3.org/1999/xlink" width="400" height="400" viewBox="0, 0, 400,400"><g id="svgg"><path id="path0" d="M0.000 200.000 L 0.000 400.000 200.000 400.000 L 400.000 400.000 400.000 200.000 L 400.000 0.000 200.000 0.000 L 0.000 0.000 0.000 200.000 M246.771 101.454 L 247.600 102.508 247.600 168.854 C 247.600 237.309,247.520 241.052,246.018 243.000 C 245.848 243.220,245.587 244.210,245.438 245.200 C 245.161 247.032,243.828 250.212,243.165 250.621 C 242.964 250.746,242.800 251.120,242.800 251.454 C 242.800 253.641,233.736 262.199,230.604 262.969 C 229.946 263.131,229.316 263.384,229.204 263.532 C 228.783 264.086,225.928 265.202,224.294 265.451 C 223.363 265.593,222.403 265.863,222.163 266.052 C 221.922 266.240,220.572 266.583,219.163 266.813 C 217.753 267.044,215.700 267.392,214.600 267.587 C 212.008 268.047,173.525 268.064,169.600 267.608 C 165.239 267.100,161.982 266.481,161.458 266.060 C 161.206 265.858,160.383 265.560,159.629 265.399 C 158.875 265.237,157.415 264.587,156.385 263.953 C 155.354 263.319,154.322 262.800,154.090 262.800 C 153.373 262.800,147.880 257.108,146.362 254.793 C 141.589 247.514,141.654 248.154,141.632 208.000 C 141.609 168.242,141.942 164.645,146.213 158.436 C 146.915 157.416,147.609 156.202,147.756 155.738 C 148.075 154.735,155.348 147.600,156.053 147.600 C 156.322 147.600,157.455 146.982,158.571 146.228 C 165.330 141.657,169.714 141.200,206.771 141.200 C 239.062 141.200,239.054 141.200,239.752 139.382 C 239.888 139.026,240.002 130.874,240.005 121.267 C 240.012 101.450,239.934 102.173,242.159 101.163 C 244.479 100.109,245.778 100.191,246.771 101.454 M31.345 141.260 C 32.859 141.647,36.800 145.233,36.800 146.223 C 36.800 146.457,37.305 147.177,37.922 147.824 C 38.539 148.471,39.917 150.170,40.984 151.600 C 42.051 153.030,43.135 154.380,43.393 154.600 C 43.651 154.820,44.552 155.990,45.394 157.200 C 46.237 158.410,47.056 159.490,47.214 159.600 C 47.764 159.981,50.400 163.608,50.400 163.984 C 50.400 164.191,50.634 164.504,50.919 164.680 C 51.205 164.856,52.318 166.170,53.393 167.600 C 54.468 169.030,55.945 170.876,56.674 171.701 C 57.403 172.527,58.008 173.427,58.017 173.701 C 58.026 173.976,58.566 174.642,59.217 175.181 C 59.868 175.721,60.400 176.396,60.400 176.681 C 60.400 176.967,60.565 177.200,60.767 177.200 C 60.969 177.200,61.527 177.835,62.007 178.611 C 62.486 179.386,63.088 180.241,63.345 180.511 C 63.602 180.780,64.439 181.807,65.206 182.793 C 65.973 183.779,66.915 184.904,67.300 185.293 C 67.685 185.682,68.000 186.174,68.000 186.386 C 68.000 186.599,68.495 187.292,69.100 187.927 C 69.705 188.563,70.470 189.499,70.800 190.007 C 71.130 190.516,71.715 191.262,72.100 191.666 C 72.485 192.070,72.800 192.521,72.800 192.669 C 72.800 193.352,76.501 196.400,77.331 196.400 C 78.527 196.400,79.034 195.951,81.625 192.600 C 82.816 191.060,83.972 189.593,84.195 189.339 C 84.418 189.085,85.320 187.843,86.200 186.579 C 87.080 185.315,88.745 183.151,89.900 181.770 C 91.055 180.389,92.000 179.139,92.000 178.991 C 92.000 178.844,92.816 177.706,93.813 176.462 C 96.924 172.581,99.759 168.895,100.800 167.377 C 101.350 166.575,102.070 165.612,102.400 165.237 C 102.730 164.862,103.621 163.665,104.379 162.578 C 105.138 161.490,106.587 159.610,107.600 158.400 C 108.613 157.190,109.969 155.390,110.614 154.400 C 113.464 150.026,118.659 143.726,120.560 142.339 C 122.148 141.180,126.417 140.657,126.972 141.554 C 127.253 142.010,126.427 144.400,125.988 144.400 C 125.804 144.400,125.530 144.791,125.378 145.269 C 125.103 146.134,124.771 146.621,123.570 147.919 C 123.223 148.294,122.534 149.275,122.037 150.100 C 121.541 150.925,120.969 151.600,120.767 151.600 C 120.565 151.600,120.400 151.870,120.400 152.200 C 120.400 152.530,120.258 152.800,120.085 152.800 C 119.680 152.800,116.800 156.648,116.800 157.190 C 116.800 157.415,116.646 157.600,116.458 157.600 C 116.132 157.600,112.800 161.817,112.800 162.230 C 112.800 162.338,112.260 162.955,111.600 163.600 C 110.940 164.245,110.400 164.867,110.400 164.982 C 110.400 165.233,106.805 170.031,106.190 170.600 C 105.953 170.820,105.278 171.720,104.692 172.600 C 104.105 173.480,103.125 174.767,102.513 175.460 C 101.901 176.153,100.950 177.317,100.400 178.047 C 99.850 178.776,99.085 179.694,98.700 180.086 C 98.315 180.479,98.000 180.960,98.000 181.156 C 98.000 181.352,97.374 182.207,96.609 183.056 C 95.844 183.905,95.214 184.749,95.209 184.931 C 95.204 185.113,94.660 185.802,94.000 186.462 C 93.340 187.122,92.800 187.834,92.800 188.044 C 92.800 188.255,92.260 188.955,91.600 189.600 C 90.940 190.245,90.400 190.965,90.400 191.199 C 90.400 191.433,90.130 191.729,89.800 191.855 C 89.470 191.982,89.200 192.258,89.200 192.468 C 89.200 192.989,83.518 200.400,83.118 200.400 C 82.943 200.400,82.800 200.648,82.800 200.951 C 82.800 201.254,82.530 201.726,82.200 202.000 C 81.870 202.274,81.600 202.754,81.600 203.067 C 81.600 203.681,84.134 207.239,87.706 211.641 C 88.528 212.654,89.200 213.599,89.200 213.741 C 89.200 213.884,89.515 214.329,89.900 214.731 C 91.067 215.951,92.487 217.661,94.746 220.569 C 95.929 222.091,97.250 223.711,97.682 224.169 C 98.114 224.626,98.727 225.495,99.044 226.100 C 99.361 226.705,99.796 227.200,100.010 227.200 C 100.225 227.200,100.400 227.470,100.400 227.800 C 100.400 228.130,100.556 228.400,100.746 228.400 C 100.936 228.400,101.611 229.153,102.246 230.073 C 103.412 231.764,104.226 232.790,105.942 234.733 C 106.460 235.320,107.498 236.723,108.248 237.851 C 108.999 238.979,110.330 240.716,111.206 241.712 C 112.083 242.708,112.800 243.680,112.800 243.872 C 112.800 244.065,113.115 244.499,113.500 244.837 C 114.209 245.460,119.297 251.780,120.400 253.407 C 121.295 254.728,124.792 259.082,126.500 261.003 C 127.325 261.930,128.000 262.812,128.000 262.962 C 128.000 263.112,128.456 263.722,129.012 264.317 C 131.321 266.787,129.825 267.923,124.194 267.977 C 120.325 268.014,119.718 267.550,113.864 260.075 C 112.949 258.906,111.615 257.264,110.900 256.426 C 110.185 255.588,109.600 254.796,109.600 254.665 C 109.600 254.535,109.105 253.898,108.500 253.252 C 107.895 252.605,106.500 250.876,105.400 249.409 C 104.300 247.943,102.894 246.081,102.276 245.271 C 101.657 244.462,100.847 243.381,100.476 242.869 C 100.104 242.357,99.215 241.309,98.500 240.540 C 97.785 239.772,97.200 238.886,97.200 238.572 C 97.200 238.257,97.063 238.000,96.896 238.000 C 96.729 238.000,95.630 236.739,94.455 235.199 C 93.280 233.658,91.711 231.723,90.969 230.899 C 90.226 230.074,89.609 229.220,89.598 229.000 C 89.587 228.780,89.043 228.075,88.389 227.433 C 87.735 226.792,87.200 226.046,87.200 225.776 C 87.200 225.506,86.948 225.189,86.640 225.071 C 86.332 224.952,85.443 223.898,84.664 222.728 C 83.160 220.466,80.441 217.051,78.423 214.889 C 77.751 214.167,77.200 213.492,77.200 213.389 C 77.200 211.859,74.819 211.355,73.800 212.668 C 73.360 213.235,72.415 214.373,71.700 215.198 C 70.985 216.022,70.400 216.891,70.400 217.129 C 70.400 217.366,70.162 217.704,69.870 217.880 C 69.579 218.056,68.904 218.830,68.370 219.600 C 67.837 220.370,67.310 221.090,67.200 221.200 C 66.159 222.241,62.798 226.411,62.793 226.668 C 62.789 226.851,61.979 227.860,60.993 228.912 C 60.007 229.963,59.200 230.979,59.200 231.169 C 59.200 231.359,58.930 231.618,58.600 231.745 C 58.270 231.871,58.000 232.223,58.000 232.526 C 58.000 232.829,57.370 233.726,56.600 234.519 C 55.830 235.312,55.200 236.120,55.200 236.314 C 55.200 236.509,54.660 237.149,54.000 237.737 C 53.340 238.325,52.800 238.991,52.800 239.217 C 52.800 239.442,52.260 240.155,51.600 240.800 C 50.940 241.445,50.400 242.165,50.400 242.399 C 50.400 242.633,50.130 242.929,49.800 243.055 C 49.470 243.182,49.200 243.457,49.200 243.666 C 49.200 244.071,46.786 247.315,46.330 247.523 C 46.181 247.591,45.208 248.806,44.168 250.223 C 43.127 251.641,42.124 252.800,41.938 252.800 C 41.752 252.800,41.600 253.061,41.600 253.380 C 41.600 253.699,41.366 254.104,41.081 254.280 C 40.795 254.456,39.682 255.770,38.608 257.200 C 37.534 258.630,36.417 260.070,36.126 260.400 C 35.835 260.730,34.976 261.810,34.217 262.800 C 33.457 263.790,32.558 264.915,32.218 265.300 C 31.878 265.685,31.600 266.141,31.600 266.314 C 31.600 267.372,29.191 268.016,26.718 267.618 C 23.519 267.103,22.732 266.256,24.195 264.900 C 24.748 264.387,25.205 263.750,25.212 263.484 C 25.218 263.218,26.473 261.650,28.000 260.000 C 29.527 258.350,30.782 256.867,30.788 256.705 C 30.795 256.543,31.790 255.244,33.000 253.817 C 34.210 252.391,35.200 251.118,35.200 250.988 C 35.200 250.859,36.422 249.278,37.916 247.476 C 39.410 245.674,41.160 243.480,41.806 242.600 C 42.451 241.720,44.698 238.930,46.799 236.400 C 48.900 233.870,50.930 231.310,51.311 230.711 C 51.692 230.113,52.768 228.726,53.702 227.631 C 54.636 226.535,56.120 224.794,57.000 223.763 C 57.880 222.731,59.050 221.224,59.600 220.414 C 60.684 218.816,63.375 215.467,64.500 214.316 C 64.885 213.922,65.207 213.465,65.215 213.300 C 65.224 213.135,66.214 211.923,67.415 210.607 C 70.269 207.482,70.407 203.822,67.762 201.401 C 67.521 201.180,66.896 200.370,66.373 199.600 C 65.204 197.880,64.936 197.542,63.300 195.729 C 62.585 194.936,62.000 194.043,62.000 193.744 C 62.000 193.445,61.858 193.200,61.685 193.200 C 61.512 193.200,60.666 192.255,59.805 191.100 C 57.895 188.537,58.158 188.876,55.109 185.064 C 53.729 183.340,52.420 181.634,52.200 181.274 C 51.980 180.913,51.601 180.434,51.358 180.209 C 51.115 179.984,49.776 178.281,48.383 176.425 C 46.989 174.568,45.610 172.768,45.318 172.425 C 43.274 170.023,42.400 168.837,42.400 168.467 C 42.400 168.232,42.169 167.896,41.886 167.720 C 41.098 167.230,38.400 163.777,38.400 163.259 C 38.400 163.006,38.244 162.800,38.054 162.800 C 37.864 162.800,37.189 162.039,36.554 161.108 C 35.325 159.305,34.379 158.113,32.851 156.439 C 32.330 155.868,31.611 154.950,31.255 154.400 C 30.464 153.181,30.331 153.011,28.588 151.000 C 27.825 150.120,27.200 149.297,27.200 149.172 C 27.200 149.047,26.660 148.339,26.000 147.600 C 25.340 146.861,24.800 146.040,24.800 145.777 C 24.800 145.513,24.530 145.074,24.200 144.800 C 21.385 142.464,26.377 139.991,31.345 141.260 M351.600 142.122 C 355.640 142.994,357.765 143.688,360.915 145.160 C 362.374 145.842,363.677 146.400,363.812 146.400 C 365.091 146.400,370.756 152.747,372.111 155.700 C 375.073 162.153,375.146 162.442,375.792 170.324 C 376.528 179.314,376.441 233.978,375.680 240.200 C 375.215 243.998,374.181 247.775,373.317 248.831 C 373.033 249.179,372.800 249.827,372.800 250.271 C 372.800 250.716,372.260 251.825,371.600 252.737 C 370.940 253.648,370.400 254.504,370.400 254.639 C 370.400 254.974,368.044 257.970,366.807 259.207 C 364.166 261.847,357.982 265.600,356.271 265.600 C 355.952 265.600,355.176 265.869,354.546 266.198 C 353.916 266.526,352.851 266.796,352.180 266.798 C 351.509 266.799,350.735 267.025,350.460 267.300 C 349.759 268.001,298.593 268.030,297.161 267.331 C 296.632 267.073,295.394 266.769,294.409 266.656 C 293.423 266.544,292.553 266.260,292.475 266.026 C 292.397 265.792,291.978 265.600,291.545 265.600 C 290.517 265.600,287.452 264.207,285.280 262.752 C 284.334 262.118,283.429 261.600,283.268 261.600 C 282.404 261.600,274.800 253.111,274.800 252.146 C 274.800 251.973,274.271 250.745,273.625 249.416 C 270.549 243.089,270.831 207.954,273.991 203.800 C 274.159 203.580,274.508 202.741,274.767 201.935 C 276.243 197.350,283.041 190.128,288.277 187.581 C 290.215 186.639,292.134 185.704,292.542 185.504 C 295.932 183.843,301.129 183.605,334.120 183.603 C 362.171 183.600,366.185 183.525,367.239 182.980 L 368.439 182.359 368.259 176.280 C 368.069 169.817,367.743 166.838,367.159 166.220 C 366.962 166.011,366.800 165.437,366.800 164.944 C 366.800 164.451,366.634 163.945,366.432 163.819 C 366.229 163.694,365.743 162.739,365.352 161.696 C 364.114 158.397,360.252 153.661,357.587 152.174 C 356.824 151.748,356.056 151.175,355.880 150.900 C 355.704 150.625,355.042 150.400,354.409 150.400 C 353.775 150.400,352.987 150.130,352.657 149.800 C 352.327 149.470,351.454 149.200,350.718 149.200 C 349.981 149.200,348.996 148.933,348.530 148.606 C 347.797 148.093,342.566 147.998,310.061 147.906 C 282.240 147.828,272.319 147.679,271.977 147.337 C 271.026 146.386,271.928 142.833,273.342 141.960 C 275.107 140.870,346.487 141.017,351.600 142.122 M172.962 148.398 C 172.744 148.616,171.403 148.913,169.982 149.057 C 168.562 149.201,167.045 149.562,166.611 149.859 C 166.177 150.157,165.241 150.400,164.531 150.400 C 163.821 150.400,163.096 150.639,162.920 150.930 C 162.744 151.222,162.330 151.589,162.000 151.746 C 160.528 152.446,159.546 153.141,158.627 154.133 C 158.083 154.720,157.475 155.200,157.275 155.200 C 157.075 155.200,156.572 155.674,156.156 156.254 C 155.740 156.833,154.908 157.827,154.306 158.462 C 153.704 159.097,153.101 160.055,152.966 160.592 C 152.832 161.128,152.469 161.777,152.161 162.033 C 151.852 162.289,151.600 162.827,151.600 163.229 C 151.600 163.631,151.357 164.104,151.060 164.280 C 150.763 164.456,150.408 165.576,150.271 166.769 C 150.133 167.963,149.836 169.124,149.611 169.349 C 149.029 169.931,149.041 237.681,149.623 238.263 C 149.856 238.496,150.147 239.747,150.270 241.043 C 150.393 242.339,150.743 243.799,151.047 244.286 C 151.351 244.773,151.600 245.609,151.600 246.143 C 151.600 246.677,151.870 247.218,152.200 247.345 C 152.530 247.471,152.800 247.903,152.800 248.304 C 152.800 250.846,161.244 257.262,166.800 258.942 C 173.480 260.962,209.814 261.909,216.184 260.229 C 217.495 259.883,218.935 259.594,219.384 259.587 C 221.013 259.561,224.759 257.992,230.000 255.141 C 231.099 254.543,234.800 251.037,234.800 250.593 C 234.800 250.440,235.354 249.616,236.031 248.761 C 236.708 247.907,237.819 245.631,238.500 243.704 L 239.739 240.200 239.893 197.272 C 240.042 155.538,240.025 154.308,239.279 153.044 C 238.858 152.330,238.386 150.902,238.232 149.873 L 237.951 148.000 205.655 148.000 C 184.793 148.000,173.219 148.141,172.962 148.398 M297.424 191.013 C 296.996 191.336,296.186 191.606,295.624 191.613 C 295.061 191.620,294.251 191.890,293.824 192.213 C 293.396 192.536,292.652 192.800,292.170 192.800 C 290.259 192.800,283.774 197.866,282.770 200.142 C 282.562 200.614,281.961 201.720,281.435 202.600 C 280.909 203.480,280.365 205.048,280.227 206.084 C 280.090 207.120,279.802 208.075,279.588 208.207 C 278.886 208.641,279.084 239.686,279.798 241.054 C 280.126 241.684,280.396 242.766,280.398 243.457 C 280.399 244.204,280.644 244.808,281.000 244.945 C 281.330 245.071,281.600 245.611,281.600 246.145 C 281.600 246.678,281.870 247.218,282.200 247.345 C 282.530 247.471,282.800 247.824,282.800 248.128 C 282.800 248.590,284.202 250.401,285.589 251.732 C 290.668 256.605,294.473 258.690,300.750 260.041 C 301.767 260.260,303.320 260.599,304.200 260.795 C 306.897 261.394,347.257 261.214,351.000 260.586 C 354.518 259.996,358.465 258.568,360.492 257.152 C 362.273 255.908,365.200 252.942,365.200 252.381 C 365.200 252.129,365.565 251.411,366.010 250.786 C 368.240 247.655,368.401 245.521,368.386 219.436 C 368.374 199.353,368.278 195.236,367.800 194.400 C 367.486 193.850,367.222 192.725,367.214 191.900 L 367.200 190.400 332.700 190.413 C 302.998 190.424,298.092 190.507,297.424 191.013 " stroke="none" fill="#4c3c2b" fill-rule="evenodd"></path><path id="path1" d="M243.050 103.407 C 242.471 103.987,242.399 105.909,242.390 121.129 C 242.380 139.251,242.242 140.882,240.599 142.300 L 239.555 143.200 208.754 143.200 C 178.253 143.200,176.087 143.278,169.397 144.609 C 159.003 146.678,150.985 152.883,147.003 161.940 C 143.690 169.473,143.520 171.989,143.693 210.800 L 143.839 243.400 144.858 246.800 C 147.827 256.702,153.837 262.846,163.000 265.346 C 166.369 266.265,210.052 266.833,215.904 266.034 C 222.863 265.084,229.055 263.121,231.871 260.973 C 232.573 260.438,233.300 260.000,233.487 260.000 C 234.965 260.000,242.400 251.573,242.400 249.899 C 242.400 249.612,242.637 249.023,242.927 248.589 C 246.093 243.850,246.044 245.134,245.915 170.200 L 245.800 103.000 244.750 102.878 C 244.170 102.811,243.410 103.047,243.050 103.407 M26.880 143.680 C 26.101 144.459,26.357 145.270,28.127 147.638 C 29.047 148.868,30.430 150.742,31.200 151.802 C 31.970 152.861,33.184 154.374,33.898 155.164 C 34.612 155.954,35.197 156.726,35.198 156.879 C 35.199 157.033,35.605 157.597,36.100 158.133 C 36.930 159.032,38.075 160.470,41.499 164.914 C 42.213 165.841,43.038 166.870,43.332 167.200 C 43.627 167.530,44.416 168.610,45.087 169.600 C 45.758 170.590,46.688 171.743,47.153 172.162 C 47.619 172.581,48.000 173.082,48.000 173.274 C 48.000 173.467,48.945 174.774,50.100 176.180 C 51.255 177.585,53.429 180.325,54.931 182.268 C 58.347 186.685,62.976 192.619,64.241 194.200 C 73.216 205.421,73.636 206.542,70.338 210.466 C 69.382 211.604,68.240 213.028,67.800 213.631 C 66.178 215.855,61.796 221.471,59.827 223.848 C 58.712 225.195,56.990 227.347,56.000 228.631 C 55.010 229.916,52.847 232.594,51.193 234.583 C 49.540 236.572,47.920 238.583,47.593 239.051 C 46.602 240.474,38.297 250.841,36.760 252.575 C 35.968 253.469,34.767 254.972,34.091 255.916 C 33.416 256.860,32.301 258.300,31.614 259.116 C 30.926 259.932,29.464 261.726,28.365 263.103 L 26.365 265.607 27.409 266.003 C 29.472 266.788,30.220 266.284,33.600 261.833 C 34.370 260.819,35.630 259.204,36.400 258.244 C 37.170 257.284,38.196 255.982,38.681 255.349 C 39.165 254.717,40.335 253.224,41.281 252.031 C 42.226 250.837,44.062 248.497,45.360 246.831 C 46.659 245.164,47.850 243.710,48.008 243.600 C 48.166 243.490,48.813 242.659,49.447 241.754 C 50.081 240.849,51.825 238.599,53.322 236.754 C 54.819 234.909,56.473 232.860,56.996 232.200 C 57.520 231.540,58.818 229.920,59.880 228.600 C 60.943 227.280,62.080 225.814,62.406 225.342 C 62.733 224.869,64.566 222.529,66.480 220.142 C 68.395 217.754,70.993 214.495,72.254 212.900 C 73.516 211.305,74.779 210.000,75.061 210.000 C 75.692 210.000,81.388 215.718,82.307 217.273 C 82.673 217.893,83.089 218.400,83.232 218.400 C 83.374 218.400,84.011 219.159,84.646 220.087 C 85.281 221.014,86.070 222.069,86.400 222.432 C 86.730 222.794,88.350 224.849,90.000 226.998 C 92.818 230.670,94.530 232.850,96.440 235.200 C 98.581 237.834,102.289 242.638,103.047 243.760 C 103.513 244.450,104.188 245.258,104.547 245.556 C 104.906 245.854,105.200 246.346,105.200 246.649 C 105.200 246.952,105.357 247.200,105.548 247.200 C 105.739 247.200,107.404 249.220,109.248 251.690 C 111.092 254.159,113.230 256.943,114.000 257.877 C 114.770 258.810,116.120 260.500,117.000 261.632 C 120.669 266.352,120.403 266.165,123.658 266.320 C 128.436 266.548,128.613 266.101,125.312 262.141 C 123.820 260.352,121.340 257.228,119.800 255.198 C 118.260 253.168,116.097 250.403,114.993 249.054 C 113.889 247.704,112.191 245.520,111.220 244.200 C 110.248 242.880,109.306 241.699,109.125 241.575 C 108.944 241.452,108.349 240.732,107.801 239.975 C 106.132 237.668,105.459 236.806,103.967 235.069 C 103.179 234.151,101.981 232.590,101.305 231.600 C 100.629 230.610,99.429 229.080,98.638 228.200 C 97.848 227.320,97.200 226.444,97.200 226.254 C 97.200 226.064,96.730 225.434,96.155 224.854 C 95.339 224.031,91.660 219.435,88.906 215.796 C 88.738 215.574,87.904 214.527,87.052 213.470 C 84.760 210.624,82.851 207.920,82.404 206.885 C 82.186 206.382,81.566 205.320,81.026 204.525 L 80.044 203.080 81.290 201.240 C 81.976 200.228,83.091 198.737,83.768 197.927 C 84.446 197.118,85.540 195.718,86.200 194.817 C 86.860 193.915,87.592 192.958,87.826 192.689 C 88.060 192.420,90.098 189.770,92.353 186.800 C 94.609 183.830,96.892 180.907,97.427 180.303 C 97.962 179.700,98.400 179.101,98.400 178.971 C 98.400 178.767,101.021 175.361,101.610 174.800 C 101.725 174.690,102.579 173.610,103.506 172.400 C 104.434 171.190,105.337 170.020,105.514 169.800 C 105.691 169.580,106.278 168.779,106.818 168.021 C 107.358 167.262,108.194 166.182,108.675 165.621 C 109.155 165.059,109.965 164.013,110.475 163.295 C 111.465 161.898,123.715 145.725,124.394 144.917 C 125.032 144.157,124.871 143.600,124.014 143.600 C 122.727 143.600,120.627 144.787,119.891 145.932 C 119.019 147.286,117.589 149.159,114.767 152.643 C 113.539 154.159,111.779 156.480,110.855 157.800 C 109.932 159.120,107.830 161.910,106.185 164.000 C 104.541 166.090,102.224 169.150,101.039 170.800 C 99.853 172.450,98.009 174.922,96.941 176.293 C 94.384 179.577,92.245 182.363,89.800 185.594 C 88.700 187.048,87.393 188.769,86.897 189.418 C 86.400 190.068,84.813 192.171,83.371 194.091 C 78.877 200.075,77.620 200.498,74.391 197.113 C 73.296 195.964,72.400 194.899,72.400 194.746 C 72.400 194.592,71.455 193.300,70.300 191.875 C 69.145 190.449,66.769 187.420,65.020 185.142 C 63.271 182.864,61.381 180.435,60.820 179.744 C 60.259 179.053,59.477 178.063,59.082 177.544 C 58.049 176.186,54.428 171.507,53.864 170.800 C 53.077 169.814,47.974 163.179,46.019 160.600 C 45.019 159.280,44.078 158.108,43.929 157.995 C 43.781 157.882,42.744 156.532,41.626 154.995 C 40.508 153.458,39.144 151.660,38.594 151.000 C 38.044 150.340,36.976 148.990,36.221 148.000 C 32.981 143.754,28.759 141.801,26.880 143.680 M276.150 143.476 C 275.682 143.568,274.899 144.069,274.409 144.590 L 273.519 145.538 274.740 146.169 C 275.821 146.728,279.586 146.801,307.680 146.812 C 340.367 146.825,347.297 147.044,351.407 148.193 C 360.060 150.612,367.221 157.904,369.877 167.000 C 370.710 169.855,371.037 182.639,370.312 184.000 C 369.274 185.948,369.182 185.953,334.173 185.977 C 312.534 185.992,300.538 186.147,298.973 186.431 C 285.959 188.796,277.429 196.942,274.712 209.600 C 273.350 215.946,273.349 239.326,274.710 245.400 C 275.606 249.400,277.322 253.318,279.001 255.200 C 279.491 255.750,280.059 256.514,280.261 256.898 C 281.602 259.439,288.554 263.761,293.800 265.315 C 297.055 266.279,342.890 266.876,349.153 266.036 C 354.247 265.353,358.984 263.706,361.854 261.620 C 362.323 261.279,363.107 260.730,363.595 260.400 C 365.431 259.159,369.005 255.159,369.849 253.400 C 370.166 252.740,370.763 251.660,371.175 251.000 C 371.884 249.866,372.642 247.720,374.286 242.200 C 374.948 239.973,375.000 237.201,375.000 203.800 C 375.000 164.670,375.163 168.020,372.914 161.000 C 369.700 150.964,360.771 145.355,345.200 143.591 C 341.961 143.224,277.976 143.117,276.150 143.476 M238.720 147.680 C 238.984 147.944,239.200 148.384,239.200 148.658 C 239.200 148.931,239.811 149.822,240.557 150.637 C 241.347 151.499,242.014 152.722,242.153 153.559 C 242.604 156.287,242.427 234.468,241.961 238.036 C 240.132 252.055,231.040 260.472,215.400 262.624 C 206.515 263.847,175.033 263.280,168.200 261.774 C 159.264 259.805,151.958 252.776,149.724 244.000 C 149.416 242.790,149.000 241.170,148.800 240.400 C 147.410 235.058,147.122 174.794,148.458 168.796 C 149.537 163.954,152.842 158.013,156.400 154.519 C 158.031 152.918,162.242 150.001,162.928 149.998 C 163.188 149.996,163.929 149.719,164.575 149.382 C 168.195 147.495,171.256 147.344,207.620 147.266 C 230.976 147.216,238.354 147.314,238.720 147.680 M367.753 190.428 C 367.960 191.265,368.454 192.010,368.946 192.228 C 370.775 193.038,370.788 193.227,370.785 218.600 C 370.783 240.896,370.727 242.850,370.005 246.119 C 368.182 254.363,363.453 259.373,354.785 262.241 C 352.071 263.140,308.071 263.633,303.000 262.822 C 288.488 260.500,279.589 251.486,278.032 237.532 C 276.954 227.876,277.793 207.623,279.397 204.546 C 279.726 203.916,279.996 203.178,279.998 202.906 C 280.009 200.581,287.731 192.400,289.914 192.400 C 290.037 192.400,291.321 191.926,292.769 191.347 C 298.693 188.975,300.628 188.866,335.600 188.936 L 367.400 189.000 367.753 190.428 " stroke="none" fill="#cc7205" fill-rule="evenodd"></path><path id="path2" d="M242.159 101.163 C 239.934 102.173,240.012 101.450,240.005 121.267 C 240.002 130.874,239.888 139.026,239.752 139.382 C 239.054 141.200,239.062 141.200,206.771 141.200 C 169.714 141.200,165.330 141.657,158.571 146.228 C 157.455 146.982,156.322 147.600,156.053 147.600 C 155.348 147.600,148.075 154.735,147.756 155.738 C 147.609 156.202,146.915 157.416,146.213 158.436 C 141.855 164.771,141.531 168.445,141.688 209.800 C 141.822 245.195,141.785 244.405,143.455 247.662 C 143.755 248.246,144.000 249.102,144.000 249.565 C 144.000 250.028,144.540 251.152,145.200 252.063 C 145.860 252.975,146.400 253.862,146.400 254.035 C 146.400 254.209,146.956 254.947,147.636 255.675 C 148.656 256.768,148.554 256.502,147.050 254.151 C 146.047 252.584,145.053 250.604,144.841 249.751 C 144.629 248.898,144.159 247.392,143.797 246.405 C 142.201 242.054,141.773 177.747,143.291 170.400 C 145.390 160.239,150.411 152.335,157.200 148.503 C 158.190 147.945,159.630 147.092,160.400 146.608 C 161.170 146.124,163.060 145.318,164.600 144.816 C 171.399 142.600,169.753 142.696,205.689 142.439 L 239.178 142.200 240.089 141.289 L 241.000 140.379 241.200 121.954 L 241.400 103.530 242.522 102.565 C 243.767 101.495,244.448 101.383,245.687 102.047 C 246.401 102.429,246.484 102.395,246.261 101.814 C 246.117 101.440,246.000 100.969,246.000 100.767 C 246.000 100.155,243.901 100.372,242.159 101.163 M246.501 104.200 C 246.505 105.080,246.587 105.393,246.683 104.895 C 246.779 104.398,246.775 103.678,246.675 103.295 C 246.575 102.913,246.496 103.320,246.501 104.200 M25.100 141.420 C 23.588 142.252,24.869 146.890,26.787 147.529 C 27.082 147.627,26.845 147.081,26.261 146.316 C 25.031 144.703,24.857 142.947,25.900 142.664 C 29.497 141.689,31.887 142.153,34.102 144.255 C 35.524 145.605,35.624 145.648,34.891 144.600 C 32.483 141.154,28.145 139.745,25.100 141.420 M120.560 142.339 C 118.659 143.726,113.464 150.026,110.614 154.400 C 109.969 155.390,108.613 157.190,107.600 158.400 C 106.587 159.610,105.138 161.490,104.379 162.578 C 103.621 163.665,102.730 164.862,102.400 165.237 C 102.070 165.612,101.350 166.575,100.800 167.377 C 99.759 168.895,96.924 172.581,93.813 176.462 C 92.816 177.706,92.000 178.844,92.000 178.991 C 92.000 179.139,91.055 180.389,89.900 181.770 C 88.745 183.151,87.080 185.315,86.200 186.579 C 85.320 187.843,84.418 189.085,84.195 189.339 C 83.972 189.593,82.816 191.060,81.625 192.600 C 78.879 196.152,78.562 196.400,76.770 196.400 C 75.319 196.400,72.899 194.424,72.307 192.757 C 72.198 192.450,71.994 192.305,71.854 192.434 C 71.438 192.815,75.299 197.088,76.555 197.637 C 78.522 198.498,79.799 197.297,86.095 188.662 C 87.033 187.376,88.790 185.083,90.000 183.566 C 91.210 182.049,93.910 178.526,96.000 175.735 C 98.090 172.945,100.914 169.263,102.274 167.553 C 103.635 165.842,104.967 164.028,105.233 163.521 C 105.500 163.015,106.558 161.610,107.586 160.400 C 108.613 159.190,110.251 157.030,111.227 155.600 C 112.202 154.170,113.202 152.820,113.448 152.600 C 113.695 152.380,115.042 150.679,116.442 148.819 C 119.848 144.297,121.319 142.889,122.959 142.581 C 124.855 142.226,126.204 142.672,125.564 143.443 C 125.301 143.760,125.179 144.113,125.293 144.227 C 125.407 144.341,125.868 143.812,126.317 143.051 C 127.334 141.327,127.201 141.200,124.393 141.200 C 122.527 141.200,121.841 141.404,120.560 142.339 M273.359 141.950 C 272.018 142.778,271.244 145.289,272.036 146.244 C 272.570 146.886,274.800 147.664,274.800 147.207 C 274.800 147.014,274.395 146.798,273.900 146.728 C 272.617 146.546,272.443 144.447,273.623 143.380 C 274.464 142.619,275.369 142.600,311.542 142.600 L 348.600 142.600 353.000 143.745 C 360.005 145.569,365.815 148.657,368.640 152.058 C 370.468 154.258,370.603 154.383,370.087 153.388 C 367.576 148.547,360.017 143.940,351.600 142.122 C 346.527 141.026,275.109 140.869,273.359 141.950 M237.854 147.870 C 238.103 148.051,238.407 148.560,238.528 149.000 C 238.701 149.631,238.732 149.595,238.674 148.831 C 238.633 148.299,238.330 147.790,238.000 147.701 C 237.604 147.594,237.554 147.651,237.854 147.870 M37.917 149.036 C 38.868 150.426,40.007 151.478,39.987 150.949 C 39.980 150.757,39.321 149.970,38.523 149.200 C 37.077 147.805,37.075 147.805,37.917 149.036 M29.355 150.919 C 30.203 151.953,30.980 152.800,31.082 152.800 C 31.355 152.800,28.821 149.660,28.277 149.324 C 28.022 149.166,28.507 149.884,29.355 150.919 M238.800 150.703 C 238.800 151.187,239.080 152.285,239.423 153.141 C 239.977 154.526,240.029 159.441,239.893 197.449 L 239.739 240.200 238.500 243.704 C 237.819 245.631,236.708 247.907,236.031 248.761 C 235.354 249.616,234.800 250.440,234.800 250.593 C 234.800 251.037,231.099 254.543,230.000 255.141 C 224.759 257.992,221.013 259.561,219.384 259.587 C 218.935 259.594,217.495 259.883,216.184 260.229 C 213.236 261.006,179.185 261.153,173.557 260.412 C 168.229 259.711,163.558 258.116,158.733 255.350 C 158.302 255.103,157.465 254.468,156.874 253.939 C 154.184 251.530,154.063 251.729,156.653 254.302 C 160.592 258.215,164.828 260.243,171.487 261.404 C 175.208 262.053,211.670 262.386,215.000 261.802 C 230.099 259.152,238.658 251.855,240.582 239.991 C 241.106 236.758,241.197 230.177,241.198 195.287 C 241.200 151.915,241.257 153.329,239.417 150.703 L 238.800 149.822 238.800 150.703 M42.389 154.700 C 43.735 156.515,44.912 158.000,45.004 158.000 C 45.300 158.000,42.881 154.659,41.384 153.000 C 40.591 152.120,41.043 152.885,42.389 154.700 M33.541 156.300 C 34.271 157.235,34.954 158.000,35.061 158.000 C 35.373 158.000,33.703 155.781,32.926 155.164 C 32.535 154.854,32.812 155.365,33.541 156.300 M153.775 158.100 L 152.600 159.400 153.900 158.225 C 155.112 157.130,155.384 156.800,155.075 156.800 C 155.006 156.800,154.421 157.385,153.775 158.100 M45.604 159.000 C 46.661 160.456,48.171 161.901,47.696 161.000 C 47.463 160.560,46.767 159.750,46.149 159.200 C 45.348 158.488,45.191 158.430,45.604 159.000 M365.213 160.046 C 365.220 160.351,365.490 160.949,365.813 161.376 C 366.136 161.804,366.400 162.406,366.400 162.716 C 366.400 163.026,366.658 163.846,366.974 164.540 C 367.876 166.522,368.400 171.084,368.400 176.966 L 368.400 182.379 367.220 182.990 C 366.191 183.522,361.946 183.600,334.120 183.603 C 301.129 183.605,295.932 183.843,292.542 185.504 C 292.134 185.704,290.215 186.639,288.277 187.581 C 283.160 190.070,276.960 196.534,274.975 201.450 C 274.631 202.303,274.009 203.744,273.594 204.654 C 272.056 208.023,271.807 211.135,271.803 227.000 C 271.800 243.280,271.976 245.122,273.887 248.721 C 274.389 249.668,274.800 250.647,274.800 250.896 C 274.800 251.500,276.511 253.994,276.927 253.997 C 277.107 253.999,276.870 253.460,276.400 252.800 C 272.240 246.958,270.709 218.850,273.970 208.200 C 274.374 206.880,274.902 205.080,275.142 204.200 C 277.167 196.775,284.587 189.898,294.200 186.538 L 298.600 185.000 332.800 184.899 C 351.610 184.844,367.417 184.702,367.926 184.585 C 370.606 183.968,370.800 173.312,368.271 165.735 C 367.056 162.098,365.180 158.606,365.213 160.046 M37.517 161.410 C 37.745 161.856,38.685 163.026,39.606 164.010 L 41.279 165.800 39.565 163.600 C 37.411 160.835,36.995 160.390,37.517 161.410 M50.793 165.600 C 52.632 168.053,53.057 168.451,52.157 166.876 C 51.741 166.148,50.960 165.158,50.422 164.676 C 49.702 164.031,49.800 164.275,50.793 165.600 M42.749 168.300 C 42.957 168.685,43.625 169.450,44.233 170.000 C 45.205 170.878,45.177 170.792,44.003 169.300 C 42.595 167.510,42.118 167.130,42.749 168.300 M52.800 168.525 C 52.800 168.594,53.385 169.179,54.100 169.825 L 55.400 171.000 54.225 169.700 C 53.130 168.488,52.800 168.216,52.800 168.525 M57.119 173.800 C 58.273 175.484,60.526 177.968,60.022 177.000 C 59.793 176.560,58.861 175.390,57.951 174.400 C 56.996 173.361,56.645 173.107,57.119 173.800 M48.800 176.000 C 49.497 176.880,50.157 177.600,50.267 177.600 C 50.377 177.600,49.897 176.880,49.200 176.000 C 48.503 175.120,47.843 174.400,47.733 174.400 C 47.623 174.400,48.103 175.120,48.800 176.000 M375.365 181.800 C 375.366 185.760,375.426 187.326,375.498 185.280 C 375.571 183.234,375.571 179.994,375.498 178.080 C 375.424 176.166,375.365 177.840,375.365 181.800 M148.189 203.200 C 148.189 218.710,148.239 225.055,148.300 217.300 C 148.361 209.545,148.361 196.855,148.300 189.100 C 148.239 181.345,148.189 187.690,148.189 203.200 M61.191 179.188 C 61.657 179.841,62.242 180.502,62.491 180.656 C 62.741 180.811,62.441 180.276,61.825 179.468 C 60.488 177.715,59.984 177.492,61.191 179.188 M51.164 179.133 C 51.380 179.536,51.871 180.121,52.255 180.433 C 52.687 180.784,52.590 180.504,52.001 179.700 C 50.951 178.265,50.557 177.998,51.164 179.133 M53.800 182.472 C 54.460 183.281,56.068 185.306,57.374 186.972 C 58.680 188.637,59.827 190.000,59.923 190.000 C 60.019 190.000,59.920 189.775,59.703 189.500 C 59.485 189.225,58.124 187.456,56.677 185.568 C 55.231 183.681,53.721 181.881,53.323 181.568 C 52.926 181.256,53.140 181.662,53.800 182.472 M63.861 182.538 C 64.487 183.274,65.066 183.822,65.147 183.758 C 65.369 183.579,63.450 181.248,63.061 181.222 C 62.874 181.210,63.234 181.802,63.861 182.538 M66.774 186.300 C 67.737 187.455,68.602 188.400,68.696 188.400 C 68.968 188.400,66.504 185.382,65.726 184.762 C 65.339 184.453,65.810 185.145,66.774 186.300 M93.775 185.700 L 92.600 187.000 93.900 185.825 C 95.112 184.730,95.384 184.400,95.075 184.400 C 95.006 184.400,94.421 184.985,93.775 185.700 M319.700 189.500 C 328.445 189.560,342.755 189.560,351.500 189.500 C 360.245 189.440,353.090 189.391,335.600 189.391 C 318.110 189.391,310.955 189.440,319.700 189.500 M375.387 213.200 C 375.387 226.070,375.438 231.335,375.500 224.900 C 375.562 218.465,375.562 207.935,375.500 201.500 C 375.438 195.065,375.387 200.330,375.387 213.200 M61.200 192.000 C 61.897 192.880,62.557 193.600,62.667 193.600 C 62.777 193.600,62.297 192.880,61.600 192.000 C 60.903 191.120,60.243 190.400,60.133 190.400 C 60.023 190.400,60.503 191.120,61.200 192.000 M367.825 193.200 C 368.015 193.750,368.228 205.255,368.297 218.766 C 368.435 245.497,368.286 247.590,366.015 250.779 C 365.567 251.409,365.200 252.129,365.200 252.381 C 365.200 252.942,362.273 255.908,360.492 257.152 C 358.465 258.568,354.518 259.996,351.000 260.586 C 347.257 261.214,306.897 261.394,304.200 260.795 C 303.320 260.599,301.753 260.257,300.718 260.035 C 297.719 259.391,294.339 258.191,292.030 256.949 C 290.854 256.317,289.422 255.556,288.846 255.258 C 288.271 254.960,286.559 253.430,285.042 251.858 C 283.526 250.286,282.476 249.360,282.710 249.800 C 283.727 251.717,289.266 256.772,292.041 258.318 C 298.445 261.884,302.774 262.399,326.200 262.380 C 351.454 262.360,353.516 262.158,359.965 259.063 C 363.362 257.433,366.656 253.106,368.470 247.889 L 369.753 244.200 369.902 220.230 C 370.063 194.349,370.094 194.964,368.536 193.317 L 367.479 192.200 367.825 193.200 M65.200 197.325 C 65.200 197.394,65.785 197.979,66.500 198.625 L 67.800 199.800 66.625 198.500 C 65.530 197.288,65.200 197.016,65.200 197.325 M68.900 202.101 C 70.487 204.528,69.900 207.886,67.415 210.607 C 66.214 211.923,65.224 213.135,65.215 213.300 C 65.207 213.465,64.885 213.922,64.500 214.316 C 63.375 215.467,60.684 218.816,59.600 220.414 C 59.050 221.224,57.880 222.731,57.000 223.763 C 56.120 224.794,54.636 226.535,53.702 227.631 C 52.768 228.726,51.692 230.113,51.311 230.711 C 50.930 231.310,48.900 233.870,46.799 236.400 C 44.698 238.930,42.451 241.720,41.806 242.600 C 41.160 243.480,39.410 245.674,37.916 247.476 C 36.422 249.278,35.200 250.859,35.200 250.988 C 35.200 251.118,34.210 252.391,33.000 253.817 C 31.790 255.244,30.795 256.543,30.788 256.705 C 30.782 256.867,29.527 258.350,28.000 260.000 C 26.473 261.650,25.218 263.218,25.212 263.484 C 25.205 263.750,24.736 264.398,24.169 264.923 L 23.139 265.879 24.981 266.395 C 25.994 266.678,26.938 266.796,27.078 266.655 C 27.218 266.515,26.954 266.400,26.490 266.400 C 24.850 266.400,25.178 265.545,28.272 261.756 C 29.992 259.650,31.670 257.531,32.000 257.048 C 32.330 256.565,33.680 254.857,35.000 253.253 C 36.320 251.648,38.120 249.379,39.000 248.209 C 41.225 245.251,42.677 243.396,45.000 240.544 C 46.826 238.302,47.899 236.966,51.400 232.576 C 52.060 231.748,53.230 230.320,54.000 229.403 C 54.770 228.485,56.480 226.330,57.800 224.613 C 59.891 221.892,63.782 217.071,68.108 211.837 C 69.910 209.658,71.196 207.525,71.198 206.711 C 71.201 205.716,69.386 201.762,68.745 201.367 C 68.390 201.148,68.444 201.404,68.900 202.101 M85.987 210.900 C 86.416 211.395,87.058 212.160,87.414 212.600 C 88.256 213.643,87.684 212.520,86.650 211.100 C 86.210 210.495,85.705 210.000,85.527 210.000 C 85.350 210.000,85.557 210.405,85.987 210.900 M90.089 216.000 C 91.067 217.210,92.032 218.489,92.233 218.842 C 92.682 219.626,94.994 222.485,96.538 224.163 C 97.164 224.843,96.804 224.266,95.738 222.881 C 94.672 221.495,93.314 219.695,92.721 218.881 C 92.127 218.066,90.893 216.590,89.977 215.600 L 88.312 213.800 90.089 216.000 M278.175 224.400 C 278.175 230.230,278.231 232.615,278.299 229.700 C 278.367 226.785,278.367 222.015,278.299 219.100 C 278.231 216.185,278.175 218.570,278.175 224.400 M82.400 218.956 C 82.400 219.042,83.051 219.807,83.847 220.656 L 85.294 222.200 84.013 220.500 C 82.849 218.955,82.400 218.525,82.400 218.956 M98.328 226.636 C 99.122 227.811,100.400 229.098,100.400 228.722 C 100.400 228.625,99.746 227.838,98.947 226.973 C 97.776 225.706,97.656 225.640,98.328 226.636 M102.213 231.600 C 102.706 232.445,107.279 238.000,107.481 238.000 C 107.733 238.000,103.985 233.138,102.855 232.000 C 102.309 231.450,102.020 231.270,102.213 231.600 M93.564 233.133 C 93.780 233.536,94.271 234.121,94.655 234.433 C 95.087 234.784,94.990 234.504,94.401 233.700 C 93.351 232.265,92.957 231.998,93.564 233.133 M246.493 235.600 C 246.493 236.370,246.575 236.685,246.676 236.300 C 246.776 235.915,246.776 235.285,246.676 234.900 C 246.575 234.515,246.493 234.830,246.493 235.600 M96.174 236.500 C 96.790 237.325,97.370 238.000,97.462 238.000 C 97.814 238.000,96.831 236.554,95.963 235.796 C 95.217 235.144,95.255 235.272,96.174 236.500 M97.600 238.525 C 97.600 238.594,98.185 239.179,98.900 239.825 L 100.200 241.000 99.025 239.700 C 97.930 238.488,97.600 238.216,97.600 238.525 M107.909 239.004 C 108.411 239.973,110.005 241.473,109.989 240.962 C 109.983 240.763,109.418 240.060,108.735 239.400 C 107.888 238.583,107.625 238.456,107.909 239.004 M100.000 241.406 C 100.000 241.662,104.857 247.600,105.065 247.600 C 105.148 247.600,104.118 246.160,102.776 244.400 C 100.506 241.424,100.000 240.878,100.000 241.406 M112.000 243.861 C 112.000 244.064,112.560 244.853,113.244 245.615 C 114.536 247.053,114.377 246.639,112.872 244.646 C 112.392 244.011,112.000 243.658,112.000 243.861 M105.943 249.088 C 106.985 250.589,107.905 251.317,107.277 250.144 C 107.055 249.730,106.463 249.033,105.961 248.596 L 105.049 247.800 105.943 249.088 M115.962 249.000 C 116.186 249.440,117.019 250.520,117.813 251.400 C 118.608 252.280,119.117 252.731,118.945 252.402 C 118.773 252.073,118.216 251.337,117.707 250.766 C 117.198 250.195,116.506 249.384,116.169 248.964 C 115.572 248.220,115.567 248.221,115.962 249.000 M109.914 254.200 C 110.141 254.640,110.838 255.449,111.463 255.999 L 112.600 256.997 111.403 255.599 C 109.507 253.382,109.480 253.358,109.914 254.200 M121.027 255.576 C 121.482 256.139,122.337 257.199,122.927 257.931 C 123.517 258.663,123.998 259.113,123.996 258.931 C 123.993 258.749,123.138 257.689,122.096 256.576 C 121.053 255.462,120.572 255.012,121.027 255.576 M278.463 256.400 C 278.951 257.060,279.530 257.600,279.750 257.600 C 279.970 257.600,279.632 257.060,279.000 256.400 C 278.368 255.740,277.789 255.200,277.713 255.200 C 277.638 255.200,277.975 255.740,278.463 256.400 M115.071 260.783 C 115.912 261.874,116.746 262.774,116.924 262.783 C 117.102 262.792,116.489 261.900,115.561 260.800 C 113.392 258.227,113.092 258.217,115.071 260.783 M124.806 260.376 C 125.083 260.913,125.942 261.993,126.715 262.776 C 128.479 264.563,127.915 263.509,125.851 261.162 C 124.996 260.189,124.528 259.837,124.806 260.376 M153.200 261.567 C 154.163 262.352,154.800 262.608,154.800 262.210 C 154.800 262.106,154.215 261.735,153.500 261.386 L 152.200 260.752 153.200 261.567 M118.281 264.983 C 118.677 265.524,119.270 266.075,119.599 266.209 C 119.929 266.342,119.670 265.900,119.024 265.226 C 117.608 263.747,117.305 263.648,118.281 264.983 " stroke="none" fill="#804b0b" fill-rule="evenodd"></path><path id="path3" d="M246.279 101.600 C 246.992 103.820,246.661 239.217,245.937 241.400 C 245.572 242.500,245.168 244.030,245.039 244.800 C 244.317 249.108,236.325 260.400,233.998 260.400 C 233.750 260.400,232.974 260.830,232.273 261.356 C 231.573 261.881,229.470 262.938,227.600 263.705 C 224.369 265.029,222.640 265.502,217.600 266.437 C 216.195 266.697,206.151 266.792,189.800 266.698 L 164.200 266.552 161.318 265.495 C 154.783 263.099,147.398 257.320,146.223 253.684 C 146.101 253.308,145.547 252.460,144.991 251.800 L 143.981 250.600 145.049 252.600 C 146.852 255.976,152.922 262.800,154.122 262.800 C 154.336 262.800,155.354 263.319,156.385 263.953 C 157.415 264.587,158.875 265.237,159.629 265.399 C 160.383 265.560,161.206 265.858,161.458 266.060 C 161.982 266.481,165.239 267.100,169.600 267.608 C 173.525 268.064,212.008 268.047,214.600 267.587 C 215.700 267.392,217.753 267.044,219.163 266.813 C 220.572 266.583,221.922 266.240,222.163 266.052 C 222.403 265.863,223.363 265.593,224.294 265.451 C 225.928 265.202,228.783 264.086,229.204 263.532 C 229.316 263.384,229.946 263.131,230.604 262.969 C 233.736 262.199,242.800 253.641,242.800 251.454 C 242.800 251.120,242.964 250.746,243.165 250.621 C 243.828 250.212,245.161 247.032,245.438 245.200 C 245.587 244.210,245.848 243.220,246.018 243.000 C 247.905 240.553,248.641 103.686,246.779 101.544 L 245.958 100.600 246.279 101.600 M32.400 141.904 C 32.400 142.071,32.750 142.426,33.178 142.694 C 33.606 142.961,34.669 144.219,35.540 145.490 C 36.410 146.760,37.765 148.430,38.549 149.200 C 39.333 149.970,39.980 150.761,39.987 150.957 C 39.994 151.153,40.771 152.233,41.714 153.357 C 42.657 154.481,43.725 155.870,44.087 156.444 C 44.449 157.018,45.432 158.313,46.272 159.321 C 47.806 161.162,49.228 163.002,52.200 166.993 C 53.080 168.174,54.970 170.607,56.400 172.399 C 57.830 174.191,59.630 176.525,60.400 177.585 C 61.170 178.646,62.520 180.368,63.400 181.413 C 64.280 182.458,65.067 183.512,65.149 183.756 C 65.231 184.000,65.784 184.740,66.378 185.400 C 67.238 186.356,70.275 190.203,72.062 192.600 C 73.418 194.420,75.394 196.400,75.854 196.400 C 76.162 196.400,75.601 195.621,74.607 194.669 C 73.613 193.716,72.800 192.816,72.800 192.669 C 72.800 192.521,72.485 192.070,72.100 191.666 C 71.715 191.262,71.130 190.516,70.800 190.007 C 70.470 189.499,69.705 188.563,69.100 187.927 C 68.495 187.292,68.000 186.599,68.000 186.386 C 68.000 186.174,67.685 185.682,67.300 185.293 C 66.915 184.904,65.973 183.779,65.206 182.793 C 64.439 181.807,63.602 180.780,63.345 180.511 C 63.088 180.241,62.486 179.386,62.007 178.611 C 61.527 177.835,60.969 177.200,60.767 177.200 C 60.565 177.200,60.400 176.967,60.400 176.681 C 60.400 176.396,59.868 175.721,59.217 175.181 C 58.566 174.642,58.026 173.976,58.017 173.701 C 58.008 173.427,57.403 172.527,56.674 171.701 C 55.945 170.876,54.468 169.030,53.393 167.600 C 52.318 166.170,51.205 164.856,50.919 164.680 C 50.634 164.504,50.400 164.191,50.400 163.984 C 50.400 163.608,47.764 159.981,47.214 159.600 C 47.056 159.490,46.237 158.410,45.394 157.200 C 44.552 155.990,43.651 154.820,43.393 154.600 C 43.135 154.380,42.051 153.030,40.984 151.600 C 39.917 150.170,38.539 148.471,37.922 147.824 C 37.305 147.177,36.800 146.457,36.800 146.223 C 36.800 145.787,33.014 141.600,32.619 141.600 C 32.499 141.600,32.400 141.737,32.400 141.904 M125.565 144.100 C 124.821 145.255,124.142 146.380,124.057 146.600 C 123.971 146.820,123.402 147.540,122.791 148.200 C 122.180 148.860,121.210 150.103,120.636 150.962 C 120.062 151.821,118.965 153.261,118.198 154.162 C 117.431 155.063,115.588 157.392,114.102 159.337 C 112.616 161.282,110.815 163.622,110.101 164.537 C 109.386 165.452,108.146 167.145,107.344 168.300 C 106.543 169.455,105.732 170.400,105.543 170.400 C 105.355 170.400,105.200 170.670,105.200 171.000 C 105.200 171.330,105.059 171.600,104.886 171.600 C 104.714 171.600,104.253 172.140,103.864 172.800 C 103.474 173.460,102.619 174.585,101.965 175.300 C 101.310 176.015,100.285 177.320,99.687 178.200 C 99.089 179.080,98.406 179.980,98.169 180.200 C 97.363 180.949,95.200 183.914,95.209 184.258 C 95.221 184.707,98.000 181.619,98.000 181.156 C 98.000 180.960,98.315 180.479,98.700 180.086 C 99.085 179.694,99.850 178.776,100.400 178.047 C 100.950 177.317,101.901 176.153,102.513 175.460 C 103.125 174.767,104.105 173.480,104.692 172.600 C 105.278 171.720,105.953 170.820,106.190 170.600 C 106.805 170.031,110.400 165.233,110.400 164.982 C 110.400 164.867,110.940 164.245,111.600 163.600 C 112.260 162.955,112.800 162.338,112.800 162.230 C 112.800 161.817,116.132 157.600,116.458 157.600 C 116.646 157.600,116.800 157.415,116.800 157.190 C 116.800 156.648,119.680 152.800,120.085 152.800 C 120.258 152.800,120.400 152.530,120.400 152.200 C 120.400 151.870,120.565 151.600,120.767 151.600 C 120.969 151.600,121.541 150.925,122.037 150.100 C 122.534 149.275,123.223 148.294,123.570 147.919 C 124.771 146.621,125.103 146.134,125.378 145.269 C 125.530 144.791,125.804 144.400,125.988 144.400 C 126.171 144.400,126.510 143.860,126.740 143.200 C 127.321 141.532,127.123 141.684,125.565 144.100 M23.602 143.251 C 23.601 143.829,23.870 144.526,24.200 144.800 C 24.530 145.074,24.800 145.513,24.800 145.777 C 24.800 146.040,25.340 146.861,26.000 147.600 C 26.660 148.339,27.200 149.047,27.200 149.172 C 27.200 149.297,27.825 150.120,28.588 151.000 C 30.331 153.011,30.464 153.181,31.255 154.400 C 31.611 154.950,32.330 155.868,32.851 156.439 C 34.379 158.113,35.325 159.305,36.554 161.108 C 37.189 162.039,37.864 162.800,38.054 162.800 C 38.244 162.800,38.400 163.006,38.400 163.259 C 38.400 163.777,41.098 167.230,41.886 167.720 C 42.169 167.896,42.400 168.232,42.400 168.467 C 42.400 168.837,43.274 170.023,45.318 172.425 C 45.610 172.768,46.989 174.568,48.383 176.425 C 49.776 178.281,51.115 179.984,51.358 180.209 C 51.601 180.434,51.980 180.913,52.200 181.274 C 52.420 181.634,53.729 183.340,55.109 185.064 C 58.158 188.876,57.895 188.537,59.805 191.100 C 60.666 192.255,61.512 193.200,61.685 193.200 C 61.858 193.200,62.000 193.445,62.000 193.744 C 62.000 194.043,62.585 194.936,63.300 195.729 C 65.123 197.749,65.345 198.031,66.595 199.921 C 67.206 200.845,67.818 201.600,67.956 201.600 C 68.093 201.600,68.461 202.179,68.774 202.886 C 69.087 203.593,69.411 203.966,69.495 203.715 C 69.675 203.174,67.989 200.391,66.242 198.345 C 65.559 197.545,63.650 195.134,62.000 192.988 C 60.350 190.842,58.100 187.945,57.000 186.550 C 54.566 183.462,51.801 179.870,49.187 176.400 C 48.110 174.970,46.227 172.540,45.003 171.000 C 40.918 165.862,39.411 163.929,38.000 162.017 C 35.275 158.325,27.390 148.285,26.666 147.586 C 26.263 147.197,25.408 145.825,24.768 144.539 C 23.836 142.667,23.603 142.410,23.602 143.251 M271.600 146.601 C 271.600 147.933,273.559 148.000,310.726 147.934 C 331.423 147.897,345.680 147.738,343.000 147.574 C 340.360 147.412,323.640 147.266,305.844 147.249 C 277.364 147.222,273.374 147.144,272.544 146.600 C 271.692 146.042,271.600 146.042,271.600 146.601 M363.800 147.084 C 366.910 149.372,371.600 154.726,371.600 155.988 C 371.600 156.179,371.856 156.845,372.168 157.468 C 375.515 164.138,375.400 162.471,375.400 204.400 C 375.400 227.667,375.534 241.123,375.747 239.400 C 376.433 233.872,376.469 178.587,375.792 170.324 C 375.146 162.442,375.073 162.153,372.111 155.700 C 370.504 152.198,365.555 146.930,363.197 146.211 C 362.439 145.980,362.584 146.190,363.800 147.084 M189.930 147.900 C 198.801 147.960,213.201 147.960,221.930 147.900 C 230.658 147.840,223.400 147.791,205.800 147.791 C 188.200 147.791,181.058 147.840,189.930 147.900 M169.200 148.634 L 167.400 149.190 169.982 148.993 C 171.403 148.884,172.744 148.616,172.962 148.398 C 173.536 147.824,171.387 147.959,169.200 148.634 M238.209 149.800 C 238.366 150.900,238.630 151.949,238.798 152.131 C 238.965 152.313,238.928 151.503,238.716 150.331 C 238.218 147.585,237.838 147.187,238.209 149.800 M348.576 148.613 C 349.004 148.936,349.961 149.200,350.705 149.200 C 351.449 149.200,352.327 149.470,352.657 149.800 C 352.987 150.130,353.739 150.393,354.329 150.384 L 355.400 150.368 354.390 149.818 C 353.438 149.300,348.887 147.985,348.142 148.013 C 347.954 148.020,348.149 148.290,348.576 148.613 M164.800 149.833 L 163.800 150.388 164.824 150.394 C 165.386 150.397,166.196 150.136,166.624 149.813 C 167.702 148.997,166.278 149.013,164.800 149.833 M162.000 151.000 C 161.726 151.330,161.336 151.600,161.134 151.600 C 160.932 151.600,160.549 151.780,160.283 152.000 C 160.017 152.219,158.765 153.248,157.500 154.286 C 156.235 155.323,155.200 156.372,155.200 156.616 C 155.200 156.861,154.741 157.492,154.180 158.019 C 153.144 158.992,150.275 164.009,150.580 164.314 C 150.920 164.654,151.600 163.928,151.600 163.225 C 151.600 162.825,151.852 162.289,152.161 162.033 C 152.469 161.777,152.832 161.128,152.966 160.592 C 153.101 160.055,153.704 159.097,154.306 158.462 C 154.908 157.827,155.740 156.833,156.156 156.254 C 156.572 155.674,157.075 155.200,157.275 155.200 C 157.475 155.200,158.083 154.720,158.627 154.133 C 159.629 153.052,160.848 152.214,162.072 151.767 C 162.788 151.505,163.406 150.400,162.836 150.400 C 162.650 150.400,162.274 150.670,162.000 151.000 M355.819 150.905 C 355.926 151.183,356.562 151.653,357.232 151.950 C 359.695 153.040,364.077 158.300,365.352 161.696 C 365.743 162.739,366.217 163.687,366.406 163.804 C 366.859 164.084,366.131 161.571,365.607 161.047 C 365.383 160.823,365.200 160.349,365.200 159.992 C 365.200 158.473,360.663 153.380,357.508 151.357 C 355.806 150.266,355.547 150.196,355.819 150.905 M366.800 165.353 C 366.800 165.683,366.980 166.064,367.200 166.200 C 367.420 166.336,367.600 166.177,367.600 165.847 C 367.600 165.517,367.420 165.136,367.200 165.000 C 366.980 164.864,366.800 165.023,366.800 165.353 M149.696 166.309 C 149.115 167.540,149.030 169.752,149.577 169.414 C 149.958 169.179,150.626 165.692,150.344 165.411 C 150.260 165.327,149.969 165.731,149.696 166.309 M148.650 171.250 C 148.282 173.090,148.404 233.888,148.780 236.000 C 148.956 236.990,149.122 222.545,149.150 203.900 C 149.177 185.255,149.133 170.000,149.050 170.000 C 148.968 170.000,148.787 170.563,148.650 171.250 M94.115 185.702 C 93.248 186.650,88.429 192.751,86.525 195.312 C 85.906 196.143,84.626 197.763,83.679 198.912 C 80.921 202.259,80.507 203.720,82.010 204.800 C 82.163 204.910,82.566 205.540,82.906 206.200 C 83.490 207.335,84.475 208.656,85.740 210.000 C 86.051 210.330,86.747 211.257,87.288 212.060 C 87.828 212.864,89.113 214.507,90.143 215.712 C 91.172 216.917,92.416 218.455,92.907 219.129 C 94.274 221.004,98.869 226.924,99.483 227.600 C 99.783 227.930,100.697 229.100,101.514 230.200 C 102.331 231.300,103.199 232.380,103.442 232.600 C 103.685 232.820,105.024 234.530,106.418 236.400 C 107.812 238.270,109.188 239.944,109.476 240.120 C 109.764 240.296,110.004 240.656,110.009 240.920 C 110.014 241.184,110.667 242.120,111.459 243.000 C 112.251 243.879,113.444 245.392,114.111 246.361 C 114.778 247.330,115.610 248.424,115.962 248.791 C 117.249 250.137,118.619 251.830,119.368 253.000 C 119.790 253.660,121.005 255.204,122.068 256.431 C 123.131 257.658,124.000 258.772,124.000 258.905 C 124.000 259.039,124.753 259.976,125.672 260.986 C 130.113 265.866,129.936 266.800,124.570 266.800 C 120.229 266.800,119.341 266.486,117.993 264.478 C 117.448 263.665,116.769 262.755,116.485 262.456 C 116.023 261.968,113.121 258.289,109.800 253.979 C 106.093 249.167,104.787 247.507,102.513 244.714 C 101.131 243.017,100.000 241.464,100.000 241.263 C 100.000 241.062,99.718 240.664,99.374 240.378 C 99.029 240.092,96.824 237.345,94.474 234.272 C 92.123 231.200,89.773 228.217,89.251 227.643 C 88.730 227.069,88.016 226.150,87.666 225.600 C 87.130 224.760,83.851 220.648,83.199 220.000 C 83.088 219.890,82.506 219.080,81.905 218.200 C 81.304 217.320,79.896 215.610,78.777 214.400 C 77.657 213.190,76.464 211.795,76.124 211.300 C 75.181 209.923,74.768 210.309,68.934 218.000 C 68.017 219.210,66.931 220.560,66.522 221.000 C 66.113 221.440,65.336 222.428,64.795 223.195 C 64.253 223.962,63.575 224.862,63.288 225.195 C 63.000 225.528,62.137 226.610,61.371 227.600 C 60.605 228.590,59.668 229.772,59.289 230.226 C 58.910 230.680,58.150 231.644,57.600 232.368 C 57.050 233.092,55.231 235.345,53.557 237.375 C 51.884 239.405,50.354 241.345,50.157 241.686 C 49.961 242.026,49.170 243.073,48.400 244.011 C 47.630 244.948,46.190 246.738,45.200 247.987 C 39.214 255.540,37.688 257.439,36.706 258.556 C 36.105 259.240,35.610 259.924,35.606 260.076 C 35.603 260.227,34.925 261.158,34.100 262.145 C 33.275 263.131,32.086 264.582,31.458 265.369 C 30.219 266.923,27.499 267.350,24.971 266.389 C 23.798 265.943,23.210 266.170,23.858 266.818 C 25.291 268.251,31.600 267.840,31.600 266.314 C 31.600 266.141,31.878 265.685,32.218 265.300 C 32.558 264.915,33.457 263.790,34.217 262.800 C 34.976 261.810,35.835 260.730,36.126 260.400 C 36.417 260.070,37.534 258.630,38.608 257.200 C 39.682 255.770,40.795 254.456,41.081 254.280 C 41.366 254.104,41.600 253.699,41.600 253.380 C 41.600 253.061,41.752 252.800,41.938 252.800 C 42.124 252.800,43.127 251.641,44.168 250.223 C 45.208 248.806,46.181 247.591,46.330 247.523 C 46.786 247.315,49.200 244.071,49.200 243.666 C 49.200 243.457,49.470 243.182,49.800 243.055 C 50.130 242.929,50.400 242.633,50.400 242.399 C 50.400 242.165,50.940 241.445,51.600 240.800 C 52.260 240.155,52.800 239.442,52.800 239.217 C 52.800 238.991,53.340 238.325,54.000 237.737 C 54.660 237.149,55.200 236.509,55.200 236.314 C 55.200 236.120,55.830 235.312,56.600 234.519 C 57.370 233.726,58.000 232.829,58.000 232.526 C 58.000 232.223,58.270 231.871,58.600 231.745 C 58.930 231.618,59.200 231.359,59.200 231.169 C 59.200 230.979,60.007 229.963,60.993 228.912 C 61.979 227.860,62.789 226.851,62.793 226.668 C 62.798 226.411,66.159 222.241,67.200 221.200 C 67.310 221.090,67.837 220.370,68.370 219.600 C 68.904 218.830,69.579 218.056,69.870 217.880 C 70.162 217.704,70.400 217.366,70.400 217.129 C 70.400 216.891,70.985 216.022,71.700 215.198 C 72.415 214.373,73.360 213.235,73.800 212.668 C 74.819 211.355,77.200 211.859,77.200 213.389 C 77.200 213.492,77.751 214.167,78.423 214.889 C 80.441 217.051,83.160 220.466,84.664 222.728 C 85.443 223.898,86.332 224.952,86.640 225.071 C 86.948 225.189,87.200 225.506,87.200 225.776 C 87.200 226.046,87.735 226.792,88.389 227.433 C 89.043 228.075,89.587 228.780,89.598 229.000 C 89.609 229.220,90.226 230.074,90.969 230.899 C 91.711 231.723,93.280 233.658,94.455 235.199 C 95.630 236.739,96.729 238.000,96.896 238.000 C 97.063 238.000,97.200 238.257,97.200 238.572 C 97.200 238.886,97.785 239.772,98.500 240.540 C 99.215 241.309,100.104 242.357,100.476 242.869 C 100.847 243.381,101.657 244.462,102.276 245.271 C 102.894 246.081,104.300 247.943,105.400 249.409 C 106.500 250.876,107.895 252.605,108.500 253.252 C 109.105 253.898,109.600 254.535,109.600 254.665 C 109.600 254.796,110.185 255.588,110.900 256.426 C 111.615 257.264,112.949 258.906,113.864 260.075 C 119.718 267.550,120.325 268.014,124.194 267.977 C 129.825 267.923,131.321 266.787,129.012 264.317 C 128.456 263.722,128.000 263.112,128.000 262.962 C 128.000 262.812,127.325 261.930,126.500 261.003 C 124.792 259.082,121.295 254.728,120.400 253.407 C 119.297 251.780,114.209 245.460,113.500 244.837 C 113.115 244.499,112.800 244.065,112.800 243.872 C 112.800 243.680,112.083 242.708,111.206 241.712 C 110.330 240.716,108.999 238.979,108.248 237.851 C 107.498 236.723,106.460 235.320,105.942 234.733 C 104.226 232.790,103.412 231.764,102.246 230.073 C 101.611 229.153,100.936 228.400,100.746 228.400 C 100.556 228.400,100.400 228.130,100.400 227.800 C 100.400 227.470,100.225 227.200,100.010 227.200 C 99.796 227.200,99.361 226.705,99.044 226.100 C 98.727 225.495,98.114 224.626,97.682 224.169 C 97.250 223.711,95.929 222.091,94.746 220.569 C 92.487 217.661,91.067 215.951,89.900 214.731 C 89.515 214.329,89.200 213.884,89.200 213.741 C 89.200 213.599,88.528 212.654,87.706 211.641 C 84.134 207.239,81.600 203.681,81.600 203.067 C 81.600 202.754,81.870 202.274,82.200 202.000 C 82.530 201.726,82.800 201.254,82.800 200.951 C 82.800 200.648,82.943 200.400,83.118 200.400 C 83.518 200.400,89.200 192.989,89.200 192.468 C 89.200 192.258,89.470 191.982,89.800 191.855 C 90.130 191.729,90.400 191.433,90.400 191.199 C 90.400 190.965,90.940 190.245,91.600 189.600 C 92.260 188.955,92.800 188.255,92.800 188.044 C 92.800 187.834,93.362 187.100,94.049 186.413 C 94.736 185.726,95.216 185.083,95.117 184.984 C 95.018 184.884,94.567 185.207,94.115 185.702 M301.000 190.000 C 299.680 190.146,314.035 190.296,332.900 190.333 C 355.545 190.377,367.200 190.264,367.200 190.000 C 367.200 189.550,305.067 189.550,301.000 190.000 M295.800 191.014 C 294.608 191.560,294.606 191.564,295.624 191.582 C 296.186 191.592,296.996 191.336,297.424 191.013 C 298.438 190.245,297.477 190.247,295.800 191.014 M367.206 192.033 C 367.209 192.785,367.377 193.661,367.579 193.979 C 367.816 194.354,367.865 193.930,367.718 192.779 C 367.435 190.570,367.198 190.225,367.206 192.033 M292.000 192.200 L 291.000 192.772 292.024 192.786 C 292.586 192.794,293.396 192.536,293.824 192.213 C 294.921 191.382,293.448 191.372,292.000 192.200 M288.400 194.000 C 287.630 194.648,286.812 195.183,286.581 195.189 C 286.051 195.203,283.283 198.021,282.581 199.262 C 282.024 200.249,280.177 204.039,279.591 205.400 C 278.795 207.249,278.400 213.633,278.408 224.564 C 278.417 238.569,278.981 243.239,281.012 246.139 L 281.600 246.978 281.600 246.076 C 281.600 245.581,281.330 245.071,281.000 244.945 C 280.644 244.808,280.399 244.204,280.398 243.457 C 280.396 242.766,280.126 241.684,279.798 241.054 C 279.084 239.686,278.886 208.641,279.588 208.207 C 279.802 208.075,280.090 207.120,280.227 206.084 C 280.365 205.048,280.909 203.480,281.435 202.600 C 281.961 201.720,282.554 200.634,282.752 200.188 C 283.360 198.820,286.494 195.786,288.500 194.625 C 290.517 193.456,291.184 192.793,290.324 192.811 C 290.036 192.817,289.170 193.352,288.400 194.000 M149.318 239.400 C 149.581 241.501,150.355 244.461,150.778 244.984 C 150.963 245.213,151.202 245.760,151.311 246.200 C 151.486 246.915,151.512 246.903,151.554 246.086 C 151.579 245.583,151.351 244.773,151.047 244.286 C 150.743 243.799,150.393 242.339,150.270 241.043 C 150.147 239.747,149.837 238.487,149.582 238.243 C 149.232 237.909,149.167 238.194,149.318 239.400 M374.459 244.000 C 374.195 244.990,373.714 246.391,373.390 247.114 C 372.646 248.770,372.612 249.583,373.320 248.786 C 374.063 247.949,375.317 243.876,375.111 242.967 C 374.995 242.452,374.781 242.791,374.459 244.000 M142.454 246.056 C 142.425 246.637,142.756 247.897,143.191 248.856 C 143.849 250.307,143.984 250.430,143.991 249.589 C 143.996 249.033,143.748 248.218,143.439 247.778 C 143.131 247.338,142.796 246.532,142.694 245.989 L 142.509 245.000 142.454 246.056 M272.447 246.113 C 272.398 247.271,274.284 251.449,274.678 251.055 C 274.802 250.932,274.477 249.969,273.958 248.915 C 273.438 247.862,272.897 246.550,272.754 246.000 L 272.495 245.000 272.447 246.113 M151.600 247.399 C 151.600 248.532,157.503 255.200,158.506 255.200 C 158.593 255.200,157.355 253.835,155.755 252.166 C 154.156 250.498,152.791 248.757,152.723 248.298 C 152.613 247.552,151.600 246.742,151.600 247.399 M281.600 247.463 C 281.600 248.518,287.924 255.200,288.921 255.200 C 289.163 255.200,288.560 254.468,287.581 253.573 C 284.420 250.685,283.237 249.348,282.783 248.155 C 282.458 247.300,281.600 246.798,281.600 247.463 M372.100 250.381 C 371.825 250.826,371.600 251.366,371.600 251.582 C 371.600 252.903,364.629 261.062,363.080 261.552 C 362.816 261.636,362.313 261.953,361.962 262.258 C 360.816 263.253,356.676 265.200,355.707 265.200 C 355.186 265.200,354.184 265.515,353.480 265.900 C 352.295 266.548,350.093 266.600,323.800 266.600 C 297.609 266.600,295.280 266.546,293.851 265.900 C 292.999 265.515,292.012 265.200,291.658 265.200 C 289.014 265.200,280.548 259.257,277.982 255.600 C 277.442 254.830,276.904 254.110,276.786 254.000 C 276.669 253.890,276.174 253.281,275.686 252.646 C 275.199 252.011,274.800 251.710,274.800 251.976 C 274.800 253.076,282.300 261.600,283.268 261.600 C 283.429 261.600,284.334 262.118,285.280 262.752 C 287.452 264.207,290.517 265.600,291.545 265.600 C 291.978 265.600,292.397 265.792,292.475 266.026 C 292.553 266.260,293.423 266.544,294.409 266.656 C 295.394 266.769,296.632 267.073,297.161 267.331 C 298.593 268.030,349.759 268.001,350.460 267.300 C 350.735 267.025,351.509 266.799,352.180 266.798 C 352.851 266.796,353.916 266.526,354.546 266.198 C 355.176 265.869,355.952 265.600,356.271 265.600 C 357.982 265.600,364.166 261.847,366.807 259.207 C 368.017 257.996,370.400 254.977,370.400 254.654 C 370.400 254.527,370.958 253.632,371.640 252.665 C 372.321 251.698,372.816 250.606,372.740 250.240 C 372.619 249.662,372.533 249.681,372.100 250.381 " stroke="none" fill="#6c4c24" fill-rule="evenodd"></path><path id="path4" d="M242.522 102.565 L 241.400 103.530 241.200 121.954 L 241.000 140.379 240.089 141.289 L 239.178 142.200 205.689 142.439 C 169.753 142.696,171.399 142.600,164.600 144.816 C 163.060 145.318,161.170 146.124,160.400 146.608 C 159.630 147.092,158.190 147.945,157.200 148.503 C 150.411 152.335,145.390 160.239,143.291 170.400 C 141.773 177.747,142.201 242.054,143.797 246.405 C 144.159 247.392,144.629 248.898,144.841 249.751 C 145.662 253.050,150.438 259.329,153.800 261.530 C 156.230 263.120,159.646 264.888,159.865 264.668 C 159.973 264.561,159.177 264.029,158.096 263.486 C 151.448 260.147,147.288 254.903,144.858 246.800 L 143.839 243.400 143.693 210.800 C 143.520 171.989,143.690 169.473,147.003 161.940 C 150.985 152.883,159.003 146.678,169.397 144.609 C 176.087 143.278,178.253 143.200,208.754 143.200 L 239.555 143.200 240.599 142.300 C 242.242 140.882,242.380 139.251,242.390 121.129 C 242.401 102.414,242.376 102.603,244.750 102.878 L 245.800 103.000 245.915 170.200 C 246.044 245.134,246.093 243.850,242.927 248.589 C 242.637 249.023,242.408 249.653,242.417 249.989 C 242.469 251.906,244.643 246.225,245.857 241.000 C 247.044 235.887,247.013 103.037,245.824 102.168 C 244.711 101.354,243.804 101.463,242.522 102.565 M27.800 142.192 C 27.580 142.268,26.905 142.439,26.300 142.573 C 23.982 143.084,24.636 144.448,31.200 152.793 C 32.630 154.612,34.250 156.688,34.800 157.407 C 35.350 158.127,36.687 159.859,37.771 161.258 C 38.855 162.656,40.640 164.970,41.739 166.400 C 42.837 167.830,44.111 169.474,44.568 170.053 C 46.668 172.710,56.799 185.762,65.000 196.376 C 68.961 201.502,69.708 202.586,70.416 204.238 C 71.609 207.021,71.331 207.939,68.108 211.837 C 63.782 217.071,59.891 221.892,57.800 224.613 C 56.480 226.330,54.770 228.485,54.000 229.403 C 53.230 230.320,52.060 231.748,51.400 232.576 C 47.899 236.966,46.826 238.302,45.000 240.544 C 42.677 243.396,41.225 245.251,39.000 248.209 C 38.120 249.379,36.320 251.648,35.000 253.253 C 33.680 254.857,32.330 256.565,32.000 257.048 C 31.670 257.531,29.981 259.664,28.246 261.789 C 24.777 266.038,24.756 266.290,27.843 266.656 C 29.990 266.910,30.286 266.692,33.657 262.359 C 34.238 261.611,37.308 257.760,40.478 253.800 C 43.649 249.840,47.758 244.626,49.609 242.213 C 51.460 239.800,53.250 237.531,53.587 237.170 C 53.924 236.810,54.596 235.994,55.079 235.358 C 55.562 234.721,56.964 232.940,58.193 231.400 C 59.422 229.860,60.776 228.150,61.202 227.600 C 61.628 227.050,63.106 225.176,64.488 223.437 C 67.224 219.992,68.788 217.951,69.883 216.400 C 70.271 215.850,70.783 215.220,71.020 215.000 C 71.257 214.780,72.152 213.655,73.008 212.500 C 74.610 210.338,75.769 209.842,76.182 211.142 C 76.311 211.550,77.268 212.692,78.308 213.681 C 79.349 214.669,82.090 217.955,84.400 220.983 C 88.305 226.101,92.177 231.069,93.252 232.342 C 93.504 232.640,94.578 233.990,95.639 235.342 C 96.701 236.694,98.566 239.060,99.785 240.600 C 102.105 243.532,106.626 249.370,108.879 252.343 C 109.606 253.302,110.740 254.772,111.400 255.611 C 112.060 256.449,113.680 258.524,115.000 260.222 C 116.320 261.920,118.141 264.095,119.047 265.055 L 120.695 266.800 124.071 266.800 C 129.446 266.800,129.752 266.098,126.139 262.056 C 125.620 261.475,123.981 259.436,122.498 257.524 C 116.415 249.688,112.078 244.145,110.000 241.551 C 108.790 240.041,106.540 237.176,105.000 235.184 C 103.460 233.192,101.300 230.420,100.200 229.022 C 99.100 227.625,97.480 225.549,96.600 224.408 C 95.720 223.267,94.581 221.854,94.070 221.267 C 93.558 220.680,92.838 219.750,92.470 219.200 C 92.101 218.650,90.720 216.846,89.400 215.192 C 85.510 210.315,83.393 207.455,81.880 205.030 C 80.525 202.859,80.655 202.499,84.514 197.685 C 85.881 195.980,87.495 193.868,88.100 192.992 C 88.705 192.116,89.695 190.833,90.300 190.141 C 90.905 189.448,91.670 188.472,92.000 187.972 C 92.330 187.471,93.185 186.396,93.900 185.582 C 94.615 184.769,95.200 183.955,95.200 183.773 C 95.200 183.592,95.677 182.945,96.261 182.336 C 96.844 181.727,97.969 180.329,98.761 179.229 C 100.920 176.227,108.775 166.021,113.680 159.841 C 114.186 159.204,115.140 157.924,115.800 156.996 C 116.460 156.069,118.552 153.335,120.449 150.923 C 125.096 145.012,126.264 142.938,125.146 142.583 C 122.623 141.782,120.710 143.153,116.442 148.819 C 115.042 150.679,113.695 152.380,113.448 152.600 C 113.202 152.820,112.202 154.170,111.227 155.600 C 110.251 157.030,108.613 159.190,107.586 160.400 C 106.558 161.610,105.500 163.015,105.233 163.521 C 104.967 164.028,103.635 165.842,102.274 167.553 C 100.914 169.263,98.090 172.945,96.000 175.735 C 93.910 178.526,91.210 182.049,90.000 183.566 C 88.790 185.083,87.033 187.376,86.095 188.662 C 78.373 199.252,77.507 199.700,73.699 195.069 C 71.792 192.749,65.843 185.186,64.606 183.507 C 64.163 182.906,62.450 180.680,60.800 178.560 C 56.252 172.717,54.526 170.468,50.632 165.319 C 48.670 162.723,46.858 160.420,46.606 160.200 C 46.355 159.980,44.732 157.910,43.000 155.600 C 41.268 153.290,39.389 150.843,38.825 150.161 C 38.261 149.480,37.350 148.342,36.800 147.633 C 34.871 145.144,33.063 143.155,32.434 142.830 C 31.693 142.447,28.383 141.991,27.800 142.192 M274.586 142.774 C 272.400 143.677,272.148 146.342,274.200 146.852 C 274.860 147.016,291.690 147.206,311.600 147.275 C 331.510 147.344,346.090 147.285,344.000 147.145 C 341.910 147.004,325.746 146.869,308.080 146.845 C 279.524 146.805,275.823 146.729,274.727 146.162 L 273.494 145.524 274.556 144.462 L 275.618 143.400 308.109 143.277 C 348.732 143.122,351.888 143.379,360.516 147.541 C 367.205 150.768,370.971 154.897,372.972 161.200 C 373.357 162.410,373.875 164.030,374.124 164.800 C 374.373 165.570,374.686 168.180,374.819 170.600 L 375.062 175.000 375.121 171.000 C 375.178 167.240,374.419 162.853,373.254 160.200 C 368.990 150.495,364.542 146.845,353.200 143.747 L 349.000 142.600 312.200 142.519 C 291.960 142.475,275.034 142.589,274.586 142.774 M31.811 143.832 C 33.329 144.552,34.266 145.438,36.221 148.000 C 36.976 148.990,38.044 150.340,38.594 151.000 C 39.144 151.660,40.508 153.458,41.626 154.995 C 42.744 156.532,43.781 157.882,43.929 157.995 C 44.078 158.108,45.019 159.280,46.019 160.600 C 47.974 163.179,53.077 169.814,53.864 170.800 C 54.428 171.507,58.049 176.186,59.082 177.544 C 59.477 178.063,60.259 179.053,60.820 179.744 C 61.381 180.435,63.271 182.864,65.020 185.142 C 66.769 187.420,69.145 190.449,70.300 191.875 C 71.455 193.300,72.400 194.592,72.400 194.746 C 72.400 194.899,73.296 195.964,74.391 197.113 C 77.620 200.498,78.877 200.075,83.371 194.091 C 84.813 192.171,86.400 190.068,86.897 189.418 C 87.393 188.769,88.700 187.048,89.800 185.594 C 92.245 182.363,94.384 179.577,96.941 176.293 C 98.009 174.922,99.853 172.450,101.039 170.800 C 102.224 169.150,104.541 166.090,106.185 164.000 C 107.830 161.910,109.932 159.120,110.855 157.800 C 111.779 156.480,113.539 154.159,114.767 152.643 C 117.589 149.159,119.019 147.286,119.891 145.932 C 120.627 144.787,122.727 143.600,124.014 143.600 C 124.871 143.600,125.032 144.157,124.394 144.917 C 123.715 145.725,111.465 161.898,110.475 163.295 C 109.965 164.013,109.155 165.059,108.675 165.621 C 108.194 166.182,107.358 167.262,106.818 168.021 C 106.278 168.779,105.691 169.580,105.514 169.800 C 105.337 170.020,104.434 171.190,103.506 172.400 C 102.579 173.610,101.725 174.690,101.610 174.800 C 101.021 175.361,98.400 178.767,98.400 178.971 C 98.400 179.101,97.962 179.700,97.427 180.303 C 96.892 180.907,94.609 183.830,92.353 186.800 C 90.098 189.770,88.060 192.420,87.826 192.689 C 87.592 192.958,86.860 193.915,86.200 194.817 C 85.540 195.718,84.446 197.118,83.768 197.927 C 83.091 198.737,81.976 200.228,81.290 201.240 L 80.044 203.080 81.026 204.525 C 81.566 205.320,82.186 206.382,82.404 206.885 C 82.851 207.920,84.760 210.624,87.052 213.470 C 87.904 214.527,88.738 215.574,88.906 215.796 C 91.660 219.435,95.339 224.031,96.155 224.854 C 96.730 225.434,97.200 226.064,97.200 226.254 C 97.200 226.444,97.848 227.320,98.638 228.200 C 99.429 229.080,100.629 230.610,101.305 231.600 C 101.981 232.590,103.179 234.151,103.967 235.069 C 105.459 236.806,106.132 237.668,107.801 239.975 C 108.349 240.732,108.944 241.452,109.125 241.575 C 109.306 241.699,110.248 242.880,111.220 244.200 C 112.191 245.520,113.889 247.704,114.993 249.054 C 116.097 250.403,118.260 253.168,119.800 255.198 C 121.340 257.228,123.820 260.352,125.312 262.141 C 128.613 266.101,128.436 266.548,123.658 266.320 C 120.403 266.165,120.669 266.352,117.000 261.632 C 116.120 260.500,114.770 258.810,114.000 257.877 C 113.230 256.943,111.092 254.159,109.248 251.690 C 107.404 249.220,105.739 247.200,105.548 247.200 C 105.357 247.200,105.200 246.952,105.200 246.649 C 105.200 246.346,104.906 245.854,104.547 245.556 C 104.188 245.258,103.513 244.450,103.047 243.760 C 102.289 242.638,98.581 237.834,96.440 235.200 C 94.530 232.850,92.818 230.670,90.000 226.998 C 88.350 224.849,86.730 222.794,86.400 222.432 C 86.070 222.069,85.281 221.014,84.646 220.087 C 84.011 219.159,83.374 218.400,83.232 218.400 C 83.089 218.400,82.673 217.893,82.307 217.273 C 81.388 215.718,75.692 210.000,75.061 210.000 C 74.779 210.000,73.516 211.305,72.254 212.900 C 70.993 214.495,68.395 217.754,66.480 220.142 C 64.566 222.529,62.733 224.869,62.406 225.342 C 62.080 225.814,60.943 227.280,59.880 228.600 C 58.818 229.920,57.520 231.540,56.996 232.200 C 56.473 232.860,54.819 234.909,53.322 236.754 C 51.825 238.599,50.081 240.849,49.447 241.754 C 48.813 242.659,48.166 243.490,48.008 243.600 C 47.850 243.710,46.659 245.164,45.360 246.831 C 44.062 248.497,42.226 250.837,41.281 252.031 C 40.335 253.224,39.165 254.717,38.681 255.349 C 38.196 255.982,37.170 257.284,36.400 258.244 C 35.630 259.204,34.370 260.819,33.600 261.833 C 30.220 266.284,29.472 266.788,27.409 266.003 L 26.365 265.607 28.365 263.103 C 29.464 261.726,30.926 259.932,31.614 259.116 C 32.301 258.300,33.416 256.860,34.091 255.916 C 34.767 254.972,35.968 253.469,36.760 252.575 C 38.297 250.841,46.602 240.474,47.593 239.051 C 47.920 238.583,49.540 236.572,51.193 234.583 C 52.847 232.594,55.010 229.916,56.000 228.631 C 56.990 227.347,58.712 225.195,59.827 223.848 C 61.796 221.471,66.178 215.855,67.800 213.631 C 68.240 213.028,69.382 211.604,70.338 210.466 C 73.636 206.542,73.216 205.421,64.241 194.200 C 62.976 192.619,58.347 186.685,54.931 182.268 C 53.429 180.325,51.255 177.585,50.100 176.180 C 48.945 174.774,48.000 173.467,48.000 173.274 C 48.000 173.082,47.619 172.581,47.153 172.162 C 46.688 171.743,45.758 170.590,45.087 169.600 C 44.416 168.610,43.627 167.530,43.332 167.200 C 43.038 166.870,42.213 165.841,41.499 164.914 C 38.075 160.470,36.930 159.032,36.100 158.133 C 35.605 157.597,35.199 157.033,35.198 156.879 C 35.197 156.726,34.612 155.954,33.898 155.164 C 33.184 154.374,31.970 152.861,31.200 151.802 C 30.430 150.742,29.047 148.868,28.127 147.638 C 25.236 143.772,27.266 141.676,31.811 143.832 M207.600 147.596 L 238.600 147.800 238.730 148.716 C 238.801 149.220,239.386 150.634,240.030 151.857 L 241.200 154.081 241.198 195.141 C 241.197 230.163,241.106 236.757,240.582 239.991 C 238.658 251.855,230.099 259.152,215.000 261.802 C 211.670 262.386,175.208 262.053,171.487 261.404 C 161.459 259.655,154.439 254.474,150.885 246.200 C 150.413 245.100,150.020 244.519,150.013 244.910 C 149.996 245.816,152.410 250.456,154.118 252.800 C 160.547 261.626,166.869 263.209,195.600 263.187 C 220.849 263.167,227.613 261.453,235.563 253.061 C 242.265 245.986,242.401 244.830,242.396 194.836 C 242.391 150.895,242.467 152.721,240.557 150.637 C 239.811 149.822,239.200 148.931,239.200 148.658 C 239.200 147.208,238.952 147.198,207.420 147.296 L 176.600 147.393 207.600 147.596 M167.976 148.228 C 165.828 148.750,162.931 149.993,163.851 149.998 C 164.099 149.999,164.951 149.729,165.744 149.398 C 166.537 149.066,168.584 148.542,170.293 148.234 C 172.479 147.838,172.926 147.674,171.800 147.680 C 170.920 147.685,169.199 147.932,167.976 148.228 M350.600 148.416 C 354.444 149.437,358.121 151.405,360.806 153.880 C 362.898 155.807,363.513 156.589,366.169 160.700 C 370.261 167.031,371.491 183.764,367.926 184.585 C 367.417 184.702,351.610 184.844,332.800 184.899 L 298.600 185.000 294.200 186.538 C 284.587 189.898,277.167 196.775,275.142 204.200 C 274.902 205.080,274.374 206.880,273.970 208.200 C 270.595 219.223,272.201 246.333,276.638 253.236 C 279.841 258.219,289.667 266.067,291.014 264.719 C 291.126 264.608,289.908 263.878,288.308 263.098 C 285.445 261.702,280.981 258.263,280.261 256.898 C 280.059 256.514,279.491 255.750,279.001 255.200 C 277.322 253.318,275.606 249.400,274.710 245.400 C 273.349 239.326,273.350 215.946,274.712 209.600 C 277.429 196.942,285.959 188.796,298.973 186.431 C 300.538 186.147,312.534 185.992,334.173 185.977 C 369.182 185.953,369.274 185.948,370.312 184.000 C 371.037 182.639,370.710 169.855,369.877 167.000 C 366.975 157.061,356.178 147.263,348.538 147.636 C 348.132 147.656,349.060 148.007,350.600 148.416 M160.304 151.374 C 155.871 154.404,148.970 163.103,150.101 164.234 C 150.199 164.332,150.954 163.064,151.779 161.416 C 153.527 157.925,157.302 153.877,160.991 151.536 C 162.316 150.695,163.130 150.023,162.800 150.043 C 162.470 150.062,161.347 150.661,160.304 151.374 M149.266 165.887 C 147.922 169.273,147.800 172.399,147.800 203.400 C 147.800 235.017,147.954 238.731,149.421 242.600 C 150.110 244.417,150.021 243.171,149.251 240.200 C 148.184 236.089,147.935 227.259,148.108 199.800 C 148.283 172.160,148.407 169.496,149.670 166.287 C 149.911 165.675,150.018 165.084,149.908 164.974 C 149.798 164.864,149.509 165.275,149.266 165.887 M301.000 189.416 C 299.096 189.773,298.840 189.872,300.200 189.728 C 301.300 189.611,316.822 189.439,334.693 189.345 L 367.186 189.173 367.444 190.783 C 367.585 191.668,368.127 192.852,368.647 193.413 C 370.078 194.957,370.062 194.606,369.902 220.230 L 369.753 244.200 368.470 247.889 C 366.656 253.106,363.362 257.433,359.965 259.063 C 353.516 262.158,351.454 262.360,326.200 262.380 C 300.280 262.401,295.645 261.617,288.807 256.058 C 280.027 248.919,278.037 243.076,278.023 224.400 C 278.008 205.543,280.151 199.133,288.200 193.952 C 289.520 193.103,290.396 192.406,290.146 192.404 C 287.779 192.384,280.010 200.424,279.998 202.906 C 279.996 203.178,279.726 203.916,279.397 204.546 C 277.793 207.623,276.954 227.876,278.032 237.532 C 278.790 244.326,281.447 250.090,286.019 254.859 C 290.086 259.101,295.443 261.613,303.000 262.822 C 308.071 263.633,352.071 263.140,354.785 262.241 C 363.453 259.373,368.182 254.363,370.005 246.119 C 370.727 242.850,370.783 240.896,370.785 218.600 C 370.788 193.227,370.775 193.038,368.946 192.228 C 368.454 192.010,367.960 191.265,367.753 190.428 L 367.400 189.000 335.600 188.946 C 310.893 188.904,303.175 189.009,301.000 189.416 M293.674 190.980 C 292.285 191.496,291.040 192.026,290.908 192.159 C 290.528 192.539,291.537 192.440,292.305 192.022 C 292.687 191.814,294.170 191.286,295.600 190.849 C 297.030 190.412,297.750 190.052,297.200 190.048 C 296.650 190.045,295.063 190.464,293.674 190.980 M374.872 238.325 C 374.832 239.494,374.521 241.384,374.181 242.525 C 372.589 247.858,371.868 249.891,371.175 251.000 C 370.763 251.660,370.166 252.740,369.849 253.400 C 369.005 255.159,365.431 259.159,363.595 260.400 C 363.107 260.730,362.323 261.280,361.854 261.623 C 361.384 261.966,359.965 262.760,358.699 263.389 C 356.189 264.636,355.828 265.344,358.286 264.200 C 361.060 262.909,365.063 260.039,366.781 258.108 C 367.715 257.059,368.821 255.815,369.239 255.344 C 369.658 254.873,370.000 254.312,370.000 254.098 C 370.000 253.883,370.326 253.279,370.724 252.754 C 372.782 250.041,375.352 241.475,375.097 238.178 L 374.944 236.200 374.872 238.325 M240.673 252.883 C 238.630 255.913,234.493 259.977,233.414 260.014 C 233.186 260.022,232.466 260.465,231.814 260.998 C 231.161 261.532,229.138 262.547,227.318 263.255 C 223.908 264.581,222.972 265.326,226.062 264.255 C 230.418 262.744,234.411 260.281,237.629 257.118 C 239.899 254.886,242.623 251.289,242.292 250.959 C 242.187 250.853,241.458 251.719,240.673 252.883 M161.800 265.418 C 166.580 267.160,215.269 267.371,221.000 265.675 C 222.540 265.219,223.433 264.836,222.984 264.823 C 222.535 264.810,221.095 265.115,219.784 265.500 C 217.623 266.135,215.006 266.200,191.800 266.200 C 168.622 266.200,165.967 266.134,163.742 265.500 C 160.783 264.657,159.571 264.606,161.800 265.418 M293.800 265.740 C 297.577 267.093,350.055 267.075,353.800 265.719 C 355.120 265.241,355.818 264.839,355.350 264.825 C 354.883 264.811,353.713 265.114,352.750 265.498 C 350.070 266.567,298.294 266.569,294.542 265.500 C 291.235 264.558,290.849 264.682,293.800 265.740 " stroke="none" fill="#9c5404" fill-rule="evenodd"></path></g></svg>